<svg width="16" height="16" viewBox="0 0 16 16" fill="none" xmlns="http://www.w3.org/2000/svg">
<path fill-rule="evenodd" clip-rule="evenodd" d="M8 0C12.4183 0 16 3.58172 16 8C16 10.2071 15.1062 12.2055 13.6608 13.6529C13.6596 13.6542 13.6583 13.6555 13.6569 13.6568C13.6556 13.6581 13.6543 13.6594 13.653 13.6607C12.2056 15.1062 10.2072 16 8 16C3.58172 16 0 12.4183 0 8C0 3.58172 3.58172 0 8 0ZM12.8587 11.5211C13.5766 10.5322 14 9.31552 14 8C14 4.68629 11.3137 2 8 2C6.68448 2 5.46783 2.42337 4.4789 3.1413C4.6405 3.27036 4.8042 3.41126 4.96757 3.56274L5.22606 3.81172L12.1883 10.774C12.4365 11.0221 12.6614 11.2741 12.8587 11.5211ZM3.14141 4.47874C3.33872 4.7258 3.56368 4.97777 3.81185 5.22593L10.7741 12.1882L11.0326 12.4372C11.196 12.5887 11.3597 12.7295 11.5212 12.8586C10.5323 13.5766 9.31559 14 8 14C4.68629 14 2 11.3137 2 8C2 6.68441 2.42342 5.46771 3.14141 4.47874Z" fill="#F44336"/>
</svg>
