<svg width="16" height="16" viewBox="0 0 16 16" fill="none" xmlns="http://www.w3.org/2000/svg">
<path d="M4.66667 7.3335V4.66683C4.66667 3.78277 5.01786 2.93493 5.64298 2.30981C6.2681 1.68469 7.11594 1.3335 8 1.3335C8.88406 1.3335 9.7319 1.68469 10.357 2.30981C10.9821 2.93493 11.3333 3.78277 11.3333 4.66683V7.3335M3.33333 7.3335H12.6667C13.403 7.3335 14 7.93045 14 8.66683V13.3335C14 14.0699 13.403 14.6668 12.6667 14.6668H3.33333C2.59695 14.6668 2 14.0699 2 13.3335V8.66683C2 7.93045 2.59695 7.3335 3.33333 7.3335Z" stroke="#757575" stroke-width="1.33333" stroke-linecap="round" stroke-linejoin="round"/>
</svg>
