<svg width="16" height="16" viewBox="0 0 16 16" fill="none" xmlns="http://www.w3.org/2000/svg">
<path d="M14 6.6665C14 11.3332 8 15.3332 8 15.3332C8 15.3332 2 11.3332 2 6.6665C2 5.0752 2.63214 3.54908 3.75736 2.42386C4.88258 1.29864 6.4087 0.666504 8 0.666504C9.5913 0.666504 11.1174 1.29864 12.2426 2.42386C13.3679 3.54908 14 5.0752 14 6.6665Z" stroke="#757575" stroke-width="1.33333" stroke-linecap="round" stroke-linejoin="round"/>
<path d="M8 8.6665C9.10457 8.6665 10 7.77107 10 6.6665C10 5.56193 9.10457 4.6665 8 4.6665C6.89543 4.6665 6 5.56193 6 6.6665C6 7.77107 6.89543 8.6665 8 8.6665Z" stroke="#757575" stroke-width="1.33333" stroke-linecap="round" stroke-linejoin="round"/>
</svg>
