<svg width="16" height="16" viewBox="0 0 16 16" fill="none" xmlns="http://www.w3.org/2000/svg">
<path d="M10.6667 1.33317V5.33317M10.6667 5.33317H14.6667M10.6667 5.33317L15.3334 0.666504M14.6667 11.2798V13.2798C14.6675 13.4655 14.6294 13.6493 14.555 13.8194C14.4807 13.9895 14.3716 14.1422 14.2348 14.2677C14.0979 14.3933 13.9364 14.4888 13.7605 14.5483C13.5847 14.6078 13.3983 14.6299 13.2134 14.6132C11.1619 14.3903 9.19137 13.6893 7.46004 12.5665C5.84926 11.5429 4.48359 10.1773 3.46004 8.5665C2.33336 6.82731 1.6322 4.84717 1.41337 2.7865C1.39671 2.60215 1.41862 2.41634 1.4777 2.24092C1.53679 2.0655 1.63175 1.9043 1.75655 1.76758C1.88134 1.63087 2.03324 1.52164 2.20256 1.44685C2.37189 1.37206 2.55493 1.33334 2.74004 1.33317H4.74004C5.06357 1.32999 5.37723 1.44456 5.62254 1.65553C5.86786 1.8665 6.02809 2.15947 6.07337 2.47984C6.15779 3.11988 6.31434 3.74832 6.54004 4.35317C6.62973 4.59179 6.64915 4.85111 6.59597 5.10042C6.5428 5.34973 6.41928 5.57858 6.24004 5.75984L5.39337 6.6065C6.34241 8.27553 7.72434 9.65747 9.39337 10.6065L10.24 9.75984C10.4213 9.5806 10.6501 9.45707 10.8995 9.4039C11.1488 9.35073 11.4081 9.37014 11.6467 9.45984C12.2516 9.68554 12.88 9.84209 13.52 9.92651C13.8439 9.97219 14.1396 10.1353 14.3511 10.3848C14.5625 10.6344 14.6748 10.9529 14.6667 11.2798Z" stroke="#757575" stroke-width="1.33333" stroke-linecap="round" stroke-linejoin="round"/>
</svg>
