<svg width="28" height="28" viewBox="0 0 28 28" fill="none" xmlns="http://www.w3.org/2000/svg">
<path d="M5.83325 19.8333H4.66659C4.04775 19.8333 3.45425 19.5875 3.01667 19.1499C2.57908 18.7123 2.33325 18.1188 2.33325 17.5V5.83333C2.33325 5.21449 2.57908 4.621 3.01667 4.18342C3.45425 3.74583 4.04775 3.5 4.66659 3.5H23.3333C23.9521 3.5 24.5456 3.74583 24.9832 4.18342C25.4208 4.621 25.6666 5.21449 25.6666 5.83333V17.5C25.6666 18.1188 25.4208 18.7123 24.9832 19.1499C24.5456 19.5875 23.9521 19.8333 23.3333 19.8333H22.1666M13.9999 17.5L19.8333 24.5H8.16658L13.9999 17.5Z" stroke="#757575" stroke-width="2.33333" stroke-linecap="round" stroke-linejoin="round"/>
</svg>
