<svg width="28" height="28" viewBox="0 0 28 28" fill="none" xmlns="http://www.w3.org/2000/svg">
<path d="M13.9999 9.3335C15.9329 9.3335 17.4999 7.76649 17.4999 5.8335C17.4999 3.9005 15.9329 2.3335 13.9999 2.3335C12.0669 2.3335 10.4999 3.9005 10.4999 5.8335C10.4999 7.76649 12.0669 9.3335 13.9999 9.3335ZM13.9999 9.3335V25.6668M13.9999 25.6668C10.9057 25.6668 7.93826 24.4377 5.75034 22.2497C3.56242 20.0618 2.33325 17.0944 2.33325 14.0002H5.83325M13.9999 25.6668C17.0941 25.6668 20.0616 24.4377 22.2495 22.2497C24.4374 20.0618 25.6666 17.0944 25.6666 14.0002H22.1666" stroke="currentColor" stroke-linecap="round" stroke-linejoin="round"/>
</svg>
