<svg width="28" height="28" viewBox="0 0 28 28" fill="none" xmlns="http://www.w3.org/2000/svg">
<path d="M18.6666 9.33326V15.1666C18.6666 16.0949 19.0353 16.9851 19.6917 17.6415C20.3481 18.2978 21.2383 18.6666 22.1666 18.6666C23.0949 18.6666 23.9851 18.2978 24.6415 17.6415C25.2978 16.9851 25.6666 16.0949 25.6666 15.1666V13.9999C25.6664 11.3668 24.7755 8.81115 23.1387 6.74855C21.502 4.68594 19.2156 3.23769 16.6513 2.63927C14.0871 2.04086 11.3959 2.32748 9.01517 3.45252C6.63448 4.57757 4.70439 6.47487 3.53873 8.83594C2.37307 11.197 2.04039 13.883 2.59479 16.4571C3.14919 19.0312 4.55807 21.342 6.59233 23.0139C8.62659 24.6858 11.1666 25.6203 13.7993 25.6656C16.4321 25.7109 19.0027 24.8642 21.0933 23.2633M18.6666 13.9999C18.6666 16.5773 16.5773 18.6666 13.9999 18.6666C11.4226 18.6666 9.33327 16.5773 9.33327 13.9999C9.33327 11.4226 11.4226 9.33326 13.9999 9.33326C16.5773 9.33326 18.6666 11.4226 18.6666 13.9999Z" stroke="currentColor" stroke-linecap="round" stroke-linejoin="round"/>
</svg>
