<svg width="28" height="28" viewBox="0 0 28 28" fill="none" xmlns="http://www.w3.org/2000/svg">
<path d="M5.83341 21H3.50008C2.88124 21 2.28775 20.7542 1.85017 20.3166C1.41258 19.879 1.16675 19.2855 1.16675 18.6667V9.33333C1.16675 8.71449 1.41258 8.121 1.85017 7.68342C2.28775 7.24583 2.88124 7 3.50008 7H7.22175M17.5001 7H19.8334C20.4523 7 21.0457 7.24583 21.4833 7.68342C21.9209 8.121 22.1667 8.71449 22.1667 9.33333V18.6667C22.1667 19.2855 21.9209 19.879 21.4833 20.3166C21.0457 20.7542 20.4523 21 19.8334 21H16.1117M26.8334 15.1667V12.8333M12.8334 7L8.16675 14H15.1667L10.5001 21" stroke="currentColor" stroke-linecap="round" stroke-linejoin="round"/>
</svg>
