<svg width="28" height="28" viewBox="0 0 28 28" fill="none" xmlns="http://www.w3.org/2000/svg">
<path d="M16.0184 24.4998C15.8133 24.8534 15.5189 25.1469 15.1647 25.351C14.8105 25.555 14.4089 25.6624 14.0001 25.6624C13.5913 25.6624 13.1897 25.555 12.8355 25.351C12.4813 25.1469 12.1869 24.8534 11.9817 24.4998M21.7351 15.1665C21.2161 13.2665 20.9686 11.3026 21.0001 9.33317C21.002 8.06508 20.6593 6.82029 20.0088 5.73178C19.3583 4.64326 18.4243 3.7519 17.3066 3.15292C16.1888 2.55393 14.9294 2.26981 13.6628 2.33092C12.3962 2.39202 11.1699 2.79604 10.1151 3.49984M7.30341 7.30317C7.10072 7.96072 6.99846 8.64509 7.00008 9.33317C7.00008 17.4998 3.50008 19.8332 3.50008 19.8332H19.8334M1.16675 1.1665L26.8334 26.8332" stroke="#757575" stroke-width="2.33333" stroke-linecap="round" stroke-linejoin="round"/>
</svg>
