<svg width="28" height="28" viewBox="0 0 28 28" fill="none" xmlns="http://www.w3.org/2000/svg">
<path d="M13.9999 8.16667C13.9999 6.92899 13.5083 5.742 12.6331 4.86683C11.7579 3.99167 10.5709 3.5 9.33325 3.5H2.33325V21H10.4999C11.4282 21 12.3184 21.3687 12.9748 22.0251C13.6312 22.6815 13.9999 23.5717 13.9999 24.5M13.9999 8.16667V24.5M13.9999 8.16667C13.9999 6.92899 14.4916 5.742 15.3668 4.86683C16.2419 3.99167 17.4289 3.5 18.6666 3.5H25.6666V21H17.4999C16.5717 21 15.6814 21.3687 15.025 22.0251C14.3687 22.6815 13.9999 23.5717 13.9999 24.5" stroke="currentColor" stroke-linecap="round" stroke-linejoin="round"/>
</svg>
