<svg width="28" height="28" viewBox="0 0 28 28" fill="none" xmlns="http://www.w3.org/2000/svg">
<path d="M18.6666 24.5V5.83333C18.6666 5.21449 18.4208 4.621 17.9832 4.18342C17.5456 3.74583 16.9521 3.5 16.3333 3.5H11.6666C11.0477 3.5 10.4543 3.74583 10.0167 4.18342C9.57909 4.621 9.33325 5.21449 9.33325 5.83333V24.5M4.66659 8.16667H23.3333C24.6219 8.16667 25.6666 9.21134 25.6666 10.5V22.1667C25.6666 23.4553 24.6219 24.5 23.3333 24.5H4.66659C3.37792 24.5 2.33325 23.4553 2.33325 22.1667V10.5C2.33325 9.21134 3.37792 8.16667 4.66659 8.16667Z" stroke="currentColor" stroke-linecap="round" stroke-linejoin="round"/>
</svg>
