<svg width="28" height="28" viewBox="0 0 28 28" fill="none" xmlns="http://www.w3.org/2000/svg">
<path d="M1.16675 1.1665L26.8334 26.8332M10.5001 3.49984H17.5001L19.8334 6.99984H24.5001C25.1189 6.99984 25.7124 7.24567 26.15 7.68325C26.5876 8.12084 26.8334 8.71433 26.8334 9.33317V20.2298M17.8267 17.8265C17.4395 18.3924 16.9324 18.866 16.3413 19.2136C15.7503 19.5613 15.0899 19.7744 14.4072 19.8378C13.7244 19.9013 13.0361 19.8135 12.3911 19.5807C11.7462 19.3479 11.1604 18.9759 10.6756 18.491C10.1907 18.0062 9.81867 17.4204 9.58589 16.7754C9.3531 16.1305 9.26531 15.4421 9.32875 14.7594C9.3922 14.0767 9.60532 13.4163 9.95295 12.8252C10.3006 12.2342 10.7742 11.7271 11.3401 11.3398M24.5001 24.4998H3.50008C2.88124 24.4998 2.28775 24.254 1.85017 23.8164C1.41258 23.3788 1.16675 22.7853 1.16675 22.1665V9.33317C1.16675 8.71433 1.41258 8.12084 1.85017 7.68325C2.28775 7.24567 2.88124 6.99984 3.50008 6.99984H7.00008L24.5001 24.4998Z" stroke="currentColor" stroke-linecap="round" stroke-linejoin="round"/>
</svg>
