<svg width="28" height="28" viewBox="0 0 28 28" fill="none" xmlns="http://www.w3.org/2000/svg">
<path d="M2.33325 18.7832C3.45429 19.0118 4.48335 19.565 5.29236 20.3741C6.10138 21.1831 6.65462 22.2121 6.88325 23.3332M2.33325 14.0582C4.70251 14.3217 6.91157 15.3836 8.59722 17.0692C10.2829 18.7548 11.3447 20.9639 11.6083 23.3332M2.33325 9.33317V6.99984C2.33325 6.381 2.57908 5.78751 3.01667 5.34992C3.45425 4.91234 4.04775 4.6665 4.66659 4.6665H23.3333C23.9521 4.6665 24.5456 4.91234 24.9832 5.34992C25.4208 5.78751 25.6666 6.381 25.6666 6.99984V20.9998C25.6666 21.6187 25.4208 22.2122 24.9832 22.6498C24.5456 23.0873 23.9521 23.3332 23.3333 23.3332H16.3333M2.33325 23.3332H2.34492" stroke="#757575" stroke-linecap="round" stroke-linejoin="round"/>
</svg>
