<svg width="28" height="28" viewBox="0 0 28 28" fill="none" xmlns="http://www.w3.org/2000/svg">
<path d="M13.9999 9.3335C11.4226 9.3335 9.33325 11.4228 9.33325 14.0002C9.33325 16.5775 11.4226 18.6668 13.9999 18.6668C16.5772 18.6668 18.6666 16.5775 18.6666 14.0002C18.6666 11.4228 16.5772 9.3335 13.9999 9.3335ZM13.9999 9.3335H24.6983M4.60825 7.07016L9.96325 16.3335M12.6933 25.5968L18.0366 16.3335M25.6666 14.0002C25.6666 20.4435 20.4432 25.6668 13.9999 25.6668C7.5566 25.6668 2.33325 20.4435 2.33325 14.0002C2.33325 7.55684 7.5566 2.3335 13.9999 2.3335C20.4432 2.3335 25.6666 7.55684 25.6666 14.0002Z" stroke="#757575" stroke-width="2.33333" stroke-linecap="round" stroke-linejoin="round"/>
</svg>
