<svg width="28" height="28" viewBox="0 0 28 28" fill="none" xmlns="http://www.w3.org/2000/svg">
<path d="M18.6667 4.66683H21.0001C21.6189 4.66683 22.2124 4.91266 22.65 5.35025C23.0876 5.78783 23.3334 6.38132 23.3334 7.00016V23.3335C23.3334 23.9523 23.0876 24.5458 22.65 24.9834C22.2124 25.421 21.6189 25.6668 21.0001 25.6668H7.00008C6.38124 25.6668 5.78775 25.421 5.35017 24.9834C4.91258 24.5458 4.66675 23.9523 4.66675 23.3335V7.00016C4.66675 6.38132 4.91258 5.78783 5.35017 5.35025C5.78775 4.91266 6.38124 4.66683 7.00008 4.66683H9.33341M10.5001 2.3335H17.5001C18.1444 2.3335 18.6667 2.85583 18.6667 3.50016V5.8335C18.6667 6.47783 18.1444 7.00016 17.5001 7.00016H10.5001C9.85575 7.00016 9.33342 6.47783 9.33342 5.8335V3.50016C9.33342 2.85583 9.85575 2.3335 10.5001 2.3335Z" stroke="#757575" stroke-width="2.33333" stroke-linecap="round" stroke-linejoin="round"/>
</svg>
