<svg width="28" height="28" viewBox="0 0 28 28" fill="none" xmlns="http://www.w3.org/2000/svg">
<g clip-path="url(#clip0_1178_17998)">
<path d="M9.33345 22.1667V24.5M9.33345 15.1667V17.5M18.6668 22.1667V24.5M18.6668 15.1667V17.5M14.0001 24.5V26.8333M14.0001 17.5V19.8333M23.3335 19.3433C24.5599 18.8062 25.5642 17.8635 26.1779 16.6735C26.7915 15.4834 26.9771 14.1185 26.7035 12.8079C26.4299 11.4972 25.7137 10.3206 24.6752 9.47546C23.6367 8.63036 22.339 8.16823 21.0001 8.16666H19.5301C19.1603 6.7346 18.4554 5.41093 17.4736 4.30476C16.4918 3.19858 15.2612 2.34158 13.8832 1.80438C12.5051 1.26719 11.0192 1.06518 9.54775 1.21501C8.07632 1.36484 6.66157 1.86222 5.4201 2.66615C4.17863 3.47009 3.14599 4.55755 2.40731 5.83892C1.66862 7.12029 1.24504 8.55886 1.17147 10.0361C1.0979 11.5133 1.37645 12.9868 1.98416 14.3352C2.59187 15.6837 3.51134 16.8683 4.66679 17.7917" stroke="#757575" stroke-linecap="round" stroke-linejoin="round"/>
</g>
<defs>
<clipPath id="clip0_1178_17998">
<rect width="28" height="28" fill="white"/>
</clipPath>
</defs>
</svg>
