<svg width="28" height="28" viewBox="0 0 28 28" fill="none" xmlns="http://www.w3.org/2000/svg">
<g clip-path="url(#clip0_1178_17990)">
<path d="M26.3784 19.7748C26.7543 18.8874 26.9044 17.9206 26.8154 16.9609C26.7263 16.0012 26.4009 15.0786 25.8681 14.2754C25.3354 13.4722 24.6119 12.8136 23.7624 12.3583C22.9129 11.903 21.9639 11.6654 21.0001 11.6665H19.5301C19.0538 9.79107 18.0065 8.11002 16.5329 6.85594C15.0594 5.60186 13.2325 4.83676 11.3051 4.6665M5.8334 5.83317C4.01116 6.84075 2.57818 8.42875 1.76242 10.3446C0.946666 12.2604 0.794983 14.394 1.3315 16.4059C1.86802 18.4178 3.06193 20.1926 4.7233 21.4478C6.38467 22.7031 8.41809 23.3667 10.5001 23.3332H21.0001C21.6765 23.3324 22.3476 23.2139 22.9834 22.9832M1.16674 1.1665L26.8334 26.8332" stroke="currentColor" stroke-linecap="round" stroke-linejoin="round"/>
</g>
<defs>
<clipPath id="clip0_1178_17990">
<rect width="28" height="28" fill="white"/>
</clipPath>
</defs>
</svg>
