<svg width="28" height="28" viewBox="0 0 28 28" fill="none" xmlns="http://www.w3.org/2000/svg">
<g clip-path="url(#clip0_1178_17986)">
<path d="M23.3335 20.5098C24.5599 19.9727 25.5642 19.03 26.1779 17.84C26.7915 16.6499 26.9771 15.285 26.7035 13.9744C26.4299 12.6637 25.7137 11.4871 24.6752 10.642C23.6367 9.79686 22.339 9.33474 21.0001 9.33316H19.5301C19.1603 7.9011 18.4554 6.57743 17.4736 5.47126C16.4918 4.36509 15.2612 3.50808 13.8832 2.97089C12.5051 2.43369 11.0192 2.23168 9.54775 2.38151C8.07632 2.53134 6.66157 3.02872 5.4201 3.83266C4.17863 4.63659 3.14599 5.72406 2.40731 7.00542C1.66862 8.28679 1.24504 9.72536 1.17147 11.2026C1.0979 12.6798 1.37645 14.1533 1.98416 15.5017C2.59187 16.8502 3.51134 18.0349 4.66679 18.9582M9.33345 18.6665H9.34512M9.33345 23.3332H9.34512M14.0001 20.9998H14.0118M14.0001 25.6665H14.0118M18.6668 18.6665H18.6785M18.6668 23.3332H18.6785" stroke="#757575" stroke-width="2.33333" stroke-linecap="round" stroke-linejoin="round"/>
</g>
<defs>
<clipPath id="clip0_1178_17986">
<rect width="28" height="28" fill="white"/>
</clipPath>
</defs>
</svg>
