<svg width="28" height="28" viewBox="0 0 28 28" fill="none" xmlns="http://www.w3.org/2000/svg">
<g clip-path="url(#clip0_1178_17983)">
<path d="M21 11.6665H19.53C19.0935 9.976 18.1916 8.44182 16.9267 7.2383C15.6619 6.03477 14.0848 5.21016 12.3747 4.85816C10.6646 4.50616 8.89008 4.64088 7.25273 5.24703C5.61538 5.85317 4.18088 6.90643 3.11223 8.28712C2.04357 9.6678 1.38362 11.3206 1.20736 13.0576C1.03109 14.7946 1.34559 16.5462 2.1151 18.1135C2.88462 19.6807 4.0783 21.0006 5.56051 21.9233C7.04272 22.846 8.75402 23.3345 10.5 23.3332H21C22.5471 23.3332 24.0308 22.7186 25.1248 21.6246C26.2187 20.5307 26.8333 19.0469 26.8333 17.4998C26.8333 15.9527 26.2187 14.469 25.1248 13.375C24.0308 12.2811 22.5471 11.6665 21 11.6665Z" stroke="currentColor" stroke-linecap="round" stroke-linejoin="round"/>
</g>
<defs>
<clipPath id="clip0_1178_17983">
<rect width="28" height="28" fill="white"/>
</clipPath>
</defs>
</svg>
