<svg width="28" height="28" viewBox="0 0 28 28" fill="none" xmlns="http://www.w3.org/2000/svg">
<g clip-path="url(#clip0_1178_17994)">
<path d="M22.1667 19.7167C23.5843 19.4288 24.8445 18.6245 25.7025 17.4597C26.5604 16.295 26.955 14.8531 26.8097 13.4138C26.6643 11.9745 25.9893 10.6406 24.9157 9.67096C23.8422 8.70135 22.4466 8.16524 21 8.16669H19.53C19.1435 6.67023 18.3914 5.29318 17.3412 4.15917C16.2911 3.02517 14.9757 2.16971 13.5133 1.6696C12.0509 1.16949 10.4871 1.04038 8.96249 1.29387C7.43785 1.54735 6.00002 2.1755 4.77809 3.12192C3.55617 4.06833 2.5884 5.30338 1.96168 6.71619C1.33495 8.12899 1.06889 9.67532 1.18738 11.2163C1.30587 12.7574 1.8052 14.2449 2.64055 15.5452C3.47589 16.8456 4.62109 17.9182 5.97334 18.6667M15.1667 12.8334L10.5 19.8334H17.5L12.8333 26.8334" stroke="#757575" stroke-width="2.33333" stroke-linecap="round" stroke-linejoin="round"/>
</g>
<defs>
<clipPath id="clip0_1178_17994">
<rect width="28" height="28" fill="white"/>
</clipPath>
</defs>
</svg>
