<svg width="28" height="28" viewBox="0 0 28 28" fill="none" xmlns="http://www.w3.org/2000/svg">
<path d="M20.9999 9.33317H22.1666C23.4043 9.33317 24.5912 9.82484 25.4664 10.7C26.3416 11.5752 26.8333 12.7622 26.8333 13.9998C26.8333 15.2375 26.3416 16.4245 25.4664 17.2997C24.5912 18.1748 23.4043 18.6665 22.1666 18.6665H20.9999M20.9999 9.33317H2.33325V19.8332C2.33325 21.0708 2.82492 22.2578 3.70009 23.133C4.57526 24.0082 5.76224 24.4998 6.99992 24.4998H16.3333C17.5709 24.4998 18.7579 24.0082 19.6331 23.133C20.5083 22.2578 20.9999 21.0708 20.9999 19.8332V9.33317ZM6.99992 1.1665V4.6665M11.6666 1.1665V4.6665M16.3333 1.1665V4.6665" stroke="#757575" stroke-width="2.33333" stroke-linecap="round" stroke-linejoin="round"/>
</svg>
