<svg width="28" height="28" viewBox="0 0 28 28" fill="none" xmlns="http://www.w3.org/2000/svg">
<path d="M21 3.5C20.0717 3.5 19.1815 3.86875 18.5251 4.52513C17.8687 5.1815 17.5 6.07174 17.5 7V21C17.5 21.9283 17.8687 22.8185 18.5251 23.4749C19.1815 24.1313 20.0717 24.5 21 24.5C21.9283 24.5 22.8185 24.1313 23.4749 23.4749C24.1313 22.8185 24.5 21.9283 24.5 21C24.5 20.0717 24.1313 19.1815 23.4749 18.5251C22.8185 17.8687 21.9283 17.5 21 17.5H7C6.07174 17.5 5.1815 17.8687 4.52513 18.5251C3.86875 19.1815 3.5 20.0717 3.5 21C3.5 21.9283 3.86875 22.8185 4.52513 23.4749C5.1815 24.1313 6.07174 24.5 7 24.5C7.92826 24.5 8.8185 24.1313 9.47487 23.4749C10.1313 22.8185 10.5 21.9283 10.5 21V7C10.5 6.07174 10.1313 5.1815 9.47487 4.52513C8.8185 3.86875 7.92826 3.5 7 3.5C6.07174 3.5 5.1815 3.86875 4.52513 4.52513C3.86875 5.1815 3.5 6.07174 3.5 7C3.5 7.92826 3.86875 8.8185 4.52513 9.47487C5.1815 10.1313 6.07174 10.5 7 10.5H21C21.9283 10.5 22.8185 10.1313 23.4749 9.47487C24.1313 8.8185 24.5 7.92826 24.5 7C24.5 6.07174 24.1313 5.1815 23.4749 4.52513C22.8185 3.86875 21.9283 3.5 21 3.5Z" stroke="currentColor" stroke-linecap="round" stroke-linejoin="round"/>
</svg>
