<svg width="28" height="28" viewBox="0 0 28 28" fill="none" xmlns="http://www.w3.org/2000/svg">
<path d="M5.83325 17.5002H4.66659C4.04775 17.5002 3.45425 17.2543 3.01667 16.8167C2.57908 16.3792 2.33325 15.7857 2.33325 15.1668V4.66683C2.33325 4.04799 2.57908 3.4545 3.01667 3.01691C3.45425 2.57933 4.04775 2.3335 4.66659 2.3335H15.1666C15.7854 2.3335 16.3789 2.57933 16.8165 3.01691C17.2541 3.4545 17.4999 4.04799 17.4999 4.66683V5.8335M12.8333 10.5002H23.3333C24.6219 10.5002 25.6666 11.5448 25.6666 12.8335V23.3335C25.6666 24.6222 24.6219 25.6668 23.3333 25.6668H12.8333C11.5446 25.6668 10.4999 24.6222 10.4999 23.3335V12.8335C10.4999 11.5448 11.5446 10.5002 12.8333 10.5002Z" stroke="#757575" stroke-linecap="round" stroke-linejoin="round"/>
</svg>
