<svg width="28" height="28" viewBox="0 0 28 28" fill="none" xmlns="http://www.w3.org/2000/svg">
<path d="M10.5001 1.1665V4.6665M17.5001 1.1665V4.6665M10.5001 23.3332V26.8332M17.5001 23.3332V26.8332M23.3334 10.4998H26.8334M23.3334 16.3332H26.8334M1.16675 10.4998H4.66675M1.16675 16.3332H4.66675M7.00008 4.6665H21.0001C22.2887 4.6665 23.3334 5.71117 23.3334 6.99984V20.9998C23.3334 22.2885 22.2887 23.3332 21.0001 23.3332H7.00008C5.71142 23.3332 4.66675 22.2885 4.66675 20.9998V6.99984C4.66675 5.71117 5.71142 4.6665 7.00008 4.6665ZM10.5001 10.4998H17.5001V17.4998H10.5001V10.4998Z" stroke="#757575" stroke-linecap="round" stroke-linejoin="round"/>
</svg>
