<svg width="28" height="28" viewBox="0 0 28 28" fill="none" xmlns="http://www.w3.org/2000/svg">
<path d="M24.5 5.8335C24.5 7.76649 19.799 9.3335 14 9.3335C8.20101 9.3335 3.5 7.76649 3.5 5.8335M24.5 5.8335C24.5 3.9005 19.799 2.3335 14 2.3335C8.20101 2.3335 3.5 3.9005 3.5 5.8335M24.5 5.8335V22.1668C24.5 24.1035 19.8333 25.6668 14 25.6668C8.16667 25.6668 3.5 24.1035 3.5 22.1668V5.8335M24.5 14.0002C24.5 15.9368 19.8333 17.5002 14 17.5002C8.16667 17.5002 3.5 15.9368 3.5 14.0002" stroke="#757575" stroke-width="2.33333" stroke-linecap="round" stroke-linejoin="round"/>
</svg>
