<svg width="28" height="28" viewBox="0 0 28 28" fill="none" xmlns="http://www.w3.org/2000/svg">
<path fill-rule="evenodd" clip-rule="evenodd" d="M8.16675 13.9998C8.16675 13.3555 8.68908 12.8332 9.33341 12.8332H18.6667C19.3111 12.8332 19.8334 13.3555 19.8334 13.9998C19.8334 14.6442 19.3111 15.1665 18.6667 15.1665H9.33341C8.68908 15.1665 8.16675 14.6442 8.16675 13.9998Z" fill="currentColor"/>
<path fill-rule="evenodd" clip-rule="evenodd" d="M14.0001 3.49984C8.20109 3.49984 3.50008 8.20085 3.50008 13.9998C3.50008 19.7988 8.20109 24.4998 14.0001 24.4998C19.7991 24.4998 24.5001 19.7988 24.5001 13.9998C24.5001 8.20085 19.7991 3.49984 14.0001 3.49984ZM1.16675 13.9998C1.16675 6.91218 6.91243 1.1665 14.0001 1.1665C21.0877 1.1665 26.8334 6.91218 26.8334 13.9998C26.8334 21.0875 21.0877 26.8332 14.0001 26.8332C6.91243 26.8332 1.16675 21.0875 1.16675 13.9998Z" fill="currentColor"/>
<path d="M16.0001 7.99984C16.0001 9.10441 15.1047 9.99984 14.0001 9.99984C12.8955 9.99984 12.0001 9.10441 12.0001 7.99984C12.0001 6.89527 12.8955 5.99984 14.0001 5.99984C15.1047 5.99984 16.0001 6.89527 16.0001 7.99984Z" fill="currentColor"/>
<path d="M16.0001 19.9998C16.0001 21.1044 15.1047 21.9998 14.0001 21.9998C12.8955 21.9998 12.0001 21.1044 12.0001 19.9998C12.0001 18.8953 12.8955 17.9998 14.0001 17.9998C15.1047 17.9998 16.0001 18.8953 16.0001 19.9998Z" fill="currentColor"/>
</svg>
