<svg width="28" height="28" viewBox="0 0 28 28" fill="none" xmlns="http://www.w3.org/2000/svg">
<path fill-rule="evenodd" clip-rule="evenodd" d="M5.83325 4.66683C5.18892 4.66683 4.66659 5.18916 4.66659 5.8335V22.1668C4.66659 22.8112 5.18892 23.3335 5.83325 23.3335H22.1666C22.8109 23.3335 23.3333 22.8112 23.3333 22.1668V5.8335C23.3333 5.18916 22.8109 4.66683 22.1666 4.66683H5.83325ZM2.33325 5.8335C2.33325 3.9005 3.90026 2.3335 5.83325 2.3335H22.1666C24.0996 2.3335 25.6666 3.9005 25.6666 5.8335V22.1668C25.6666 24.0998 24.0996 25.6668 22.1666 25.6668H5.83325C3.90026 25.6668 2.33325 24.0998 2.33325 22.1668V5.8335Z" fill="#757575"/>
<path fill-rule="evenodd" clip-rule="evenodd" d="M8.16658 14.0002C8.16658 13.3558 8.68892 12.8335 9.33325 12.8335H18.6666C19.3109 12.8335 19.8333 13.3558 19.8333 14.0002C19.8333 14.6445 19.3109 15.1668 18.6666 15.1668H9.33325C8.68892 15.1668 8.16658 14.6445 8.16658 14.0002Z" fill="#757575"/>
<path d="M15.9999 8.00016C15.9999 9.10473 15.1045 10.0002 13.9999 10.0002C12.8953 10.0002 11.9999 9.10473 11.9999 8.00016C11.9999 6.89559 12.8953 6.00016 13.9999 6.00016C15.1045 6.00016 15.9999 6.89559 15.9999 8.00016Z" fill="#757575"/>
<path d="M15.9999 20.0002C15.9999 21.1047 15.1045 22.0002 13.9999 22.0002C12.8953 22.0002 11.9999 21.1047 11.9999 20.0002C11.9999 18.8956 12.8953 18.0002 13.9999 18.0002C15.1045 18.0002 15.9999 18.8956 15.9999 20.0002Z" fill="#757575"/>
</svg>
