<svg width="28" height="28" viewBox="0 0 28 28" fill="none" xmlns="http://www.w3.org/2000/svg">
<path d="M25.3749 14.9802C21.2916 13.8952 17.6399 14.0235 14.9449 14.9802C11.9349 16.0535 9.09992 18.3168 6.26492 22.3535M25.6666 14.0002C25.6666 20.4435 20.4432 25.6668 13.9999 25.6668C7.5566 25.6668 2.33325 20.4435 2.33325 14.0002C2.33325 7.55684 7.5566 2.3335 13.9999 2.3335C20.4432 2.3335 25.6666 7.55684 25.6666 14.0002ZM9.98659 3.2085C15.0849 10.2435 17.0099 14.1985 19.3549 23.8818L9.98659 3.2085ZM22.3182 5.9385C14.9449 9 10.9999 9.86102 2.62492 12.7635L22.3182 5.9385Z" stroke="#757575" stroke-linecap="round" stroke-linejoin="round"/>
</svg>
