<svg width="28" height="28" viewBox="0 0 28 28" fill="none" xmlns="http://www.w3.org/2000/svg">
<path d="M19.8333 3.50019C20.1397 3.19377 20.5034 2.95071 20.9038 2.78488C21.3041 2.61904 21.7332 2.53369 22.1666 2.53369C22.5999 2.53369 23.029 2.61904 23.4294 2.78488C23.8297 2.95071 24.1935 3.19377 24.4999 3.50019C24.8063 3.80661 25.0494 4.17038 25.2152 4.57073C25.3811 4.97109 25.4664 5.40018 25.4664 5.83352C25.4664 6.26686 25.3811 6.69596 25.2152 7.09631C25.0494 7.49667 24.8063 7.86044 24.4999 8.16686L8.74992 23.9169L2.33325 25.6669L4.08325 19.2502L19.8333 3.50019Z" stroke="#757575" stroke-width="2.33333" stroke-linecap="round" stroke-linejoin="round"/>
</svg>
