<svg width="28" height="28" viewBox="0 0 28 28" fill="none" xmlns="http://www.w3.org/2000/svg">
<path d="M12.8333 4.66677H4.66659C4.04775 4.66677 3.45425 4.9126 3.01667 5.35019C2.57908 5.78777 2.33325 6.38126 2.33325 7.0001V23.3334C2.33325 23.9523 2.57908 24.5458 3.01667 24.9833C3.45425 25.4209 4.04775 25.6668 4.66659 25.6668H20.9999C21.6188 25.6668 22.2122 25.4209 22.6498 24.9833C23.0874 24.5458 23.3333 23.9523 23.3333 23.3334V15.1668M21.5833 2.91677C22.0474 2.45264 22.6769 2.19189 23.3333 2.19189C23.9896 2.19189 24.6191 2.45264 25.0833 2.91677C25.5474 3.3809 25.8081 4.01039 25.8081 4.66677C25.8081 5.32315 25.5474 5.95264 25.0833 6.41677L13.9999 17.5001L9.33325 18.6668L10.4999 14.0001L21.5833 2.91677Z" stroke="currentColor" stroke-linecap="round" stroke-linejoin="round"/>
</svg>
