<svg width="28" height="28" viewBox="0 0 28 28" fill="none" xmlns="http://www.w3.org/2000/svg">
<path d="M11.5501 4.9465C12.3531 4.75853 13.1753 4.66457 14.0001 4.6665C22.1667 4.6665 26.8334 13.9998 26.8334 13.9998C26.1252 15.3247 25.2806 16.572 24.3134 17.7215M16.4734 16.4732C16.153 16.817 15.7666 17.0929 15.3373 17.2841C14.9079 17.4754 14.4445 17.5783 13.9745 17.5866C13.5046 17.5949 13.0378 17.5084 12.602 17.3324C12.1661 17.1564 11.7703 16.8944 11.4379 16.562C11.1055 16.2297 10.8435 15.8338 10.6675 15.398C10.4915 14.9621 10.405 14.4953 10.4133 14.0254C10.4216 13.5555 10.5245 13.092 10.7158 12.6627C10.9071 12.2333 11.1829 11.8469 11.5267 11.5265M1.16675 1.1665L26.8334 26.8332M20.9301 20.9298C18.9358 22.45 16.5074 23.2922 14.0001 23.3332C5.83342 23.3332 1.16675 13.9998 1.16675 13.9998C2.61795 11.2954 4.63074 8.93255 7.07008 7.06984L20.9301 20.9298Z" stroke="#757575" stroke-linecap="round" stroke-linejoin="round"/>
</svg>
