<svg width="28" height="28" viewBox="0 0 28 28" fill="none" xmlns="http://www.w3.org/2000/svg">
<path d="M13.9999 2.3335H9.91658C8.83362 2.3335 7.79501 2.7637 7.02923 3.52948C6.26346 4.29525 5.83325 5.33386 5.83325 6.41683C5.83325 7.4998 6.26346 8.53841 7.02923 9.30418C7.79501 10.07 8.83362 10.5002 9.91658 10.5002M13.9999 2.3335V10.5002M13.9999 2.3335H18.0833C18.6195 2.3335 19.1505 2.43911 19.6459 2.64432C20.1413 2.84953 20.5914 3.1503 20.9706 3.52948C21.3498 3.90865 21.6506 4.35879 21.8558 4.85421C22.061 5.34962 22.1666 5.8806 22.1666 6.41683C22.1666 6.95306 22.061 7.48404 21.8558 7.97945C21.6506 8.47487 21.3498 8.92501 20.9706 9.30418C20.5914 9.68335 20.1413 9.98413 19.6459 10.1893C19.1505 10.3945 18.6195 10.5002 18.0833 10.5002M13.9999 10.5002H9.91658M13.9999 10.5002H18.0833M13.9999 10.5002V18.6668M9.91658 10.5002C8.83362 10.5002 7.79501 10.9304 7.02923 11.6961C6.26346 12.4619 5.83325 13.5005 5.83325 14.5835C5.83325 15.6665 6.26346 16.7051 7.02923 17.4708C7.79501 18.2366 8.83362 18.6668 9.91658 18.6668M18.0833 10.5002C17.547 10.5002 17.016 10.6058 16.5206 10.811C16.0252 11.0162 15.5751 11.317 15.1959 11.6961C14.8167 12.0753 14.516 12.5255 14.3107 13.0209C14.1055 13.5163 13.9999 14.0473 13.9999 14.5835C13.9999 15.1197 14.1055 15.6507 14.3107 16.1461C14.516 16.6415 14.8167 17.0917 15.1959 17.4708C15.5751 17.85 16.0252 18.1508 16.5206 18.356C17.016 18.5612 17.547 18.6668 18.0833 18.6668C18.6195 18.6668 19.1505 18.5612 19.6459 18.356C20.1413 18.1508 20.5914 17.85 20.9706 17.4708C21.3498 17.0917 21.6506 16.6415 21.8558 16.1461C22.061 15.6507 22.1666 15.1197 22.1666 14.5835C22.1666 14.0473 22.061 13.5163 21.8558 13.0209C21.6506 12.5255 21.3498 12.0753 20.9706 11.6961C20.5914 11.317 20.1413 11.0162 19.6459 10.811C19.1505 10.6058 18.6195 10.5002 18.0833 10.5002ZM9.91658 18.6668C8.83362 18.6668 7.79501 19.097 7.02923 19.8628C6.26346 20.6286 5.83325 21.6672 5.83325 22.7502C5.83325 23.8331 6.26346 24.8717 7.02923 25.6375C7.79501 26.4033 8.83362 26.8335 9.91658 26.8335C10.9996 26.8335 12.0382 26.4033 12.8039 25.6375C13.5697 24.8717 13.9999 23.8331 13.9999 22.7502V18.6668M9.91658 18.6668H13.9999" stroke="#757575" stroke-width="2.33333" stroke-linecap="round" stroke-linejoin="round"/>
</svg>
