<svg width="28" height="28" viewBox="0 0 28 28" fill="none" xmlns="http://www.w3.org/2000/svg">
<path d="M13.9999 12.8333V19.8333M10.4999 16.3333H17.4999M25.6666 22.1667C25.6666 22.7855 25.4208 23.379 24.9832 23.8166C24.5456 24.2542 23.9521 24.5 23.3333 24.5H4.66659C4.04775 24.5 3.45425 24.2542 3.01667 23.8166C2.57908 23.379 2.33325 22.7855 2.33325 22.1667V5.83333C2.33325 5.21449 2.57908 4.621 3.01667 4.18342C3.45425 3.74583 4.04775 3.5 4.66659 3.5H10.4999L12.8333 7H23.3333C23.9521 7 24.5456 7.24583 24.9832 7.68342C25.4208 8.121 25.6666 8.71449 25.6666 9.33333V22.1667Z" stroke="currentColor" stroke-linecap="round" stroke-linejoin="round"/>
</svg>
