<svg width="28" height="28" viewBox="0 0 28 28" fill="none" xmlns="http://www.w3.org/2000/svg">
<path d="M23.3333 14.0002V25.6668H4.66659V14.0002M13.9999 25.6668V8.16683M13.9999 8.16683H8.74992C7.97637 8.16683 7.2345 7.85954 6.68752 7.31256C6.14054 6.76558 5.83325 6.02371 5.83325 5.25016C5.83325 4.47661 6.14054 3.73475 6.68752 3.18777C7.2345 2.64079 7.97637 2.3335 8.74992 2.3335C12.8333 2.3335 13.9999 8.16683 13.9999 8.16683ZM13.9999 8.16683H19.2499C20.0235 8.16683 20.7653 7.85954 21.3123 7.31256C21.8593 6.76558 22.1666 6.02371 22.1666 5.25016C22.1666 4.47661 21.8593 3.73475 21.3123 3.18777C20.7653 2.64079 20.0235 2.3335 19.2499 2.3335C15.1666 2.3335 13.9999 8.16683 13.9999 8.16683ZM2.33325 8.16683H25.6666V14.0002H2.33325V8.16683Z" stroke="#757575" stroke-linecap="round" stroke-linejoin="round"/>
</svg>
