<svg width="28" height="28" viewBox="0 0 28 28" fill="none" xmlns="http://www.w3.org/2000/svg">
<path d="M7 3.5V17.5M7 17.5C5.067 17.5 3.5 19.067 3.5 21C3.5 22.933 5.067 24.5 7 24.5C8.933 24.5 10.5 22.933 10.5 21M7 17.5C8.933 17.5 10.5 19.067 10.5 21M21 10.5C22.933 10.5 24.5 8.933 24.5 7C24.5 5.067 22.933 3.5 21 3.5C19.067 3.5 17.5 5.067 17.5 7C17.5 8.933 19.067 10.5 21 10.5ZM21 10.5C21 13.2848 19.8938 15.9555 17.9246 17.9246C15.9555 19.8938 13.2848 21 10.5 21" stroke="currentColor" stroke-linecap="round" stroke-linejoin="round"/>
</svg>
