<svg width="28" height="28" viewBox="0 0 28 28" fill="none" xmlns="http://www.w3.org/2000/svg">
<g clip-path="url(#clip0_1178_18077)">
<path d="M18.6666 25.6665V21.1515C18.7103 20.5952 18.6352 20.036 18.4461 19.5109C18.257 18.9859 17.9583 18.5072 17.5699 18.1065C21.2333 17.6982 25.0833 16.3098 25.0833 9.93985C25.083 8.31098 24.4564 6.74458 23.3333 5.56485C23.8651 4.13977 23.8275 2.56459 23.2283 1.16651C23.2283 1.16651 21.8516 0.758179 18.6666 2.89318C15.9926 2.16847 13.1739 2.16847 10.4999 2.89318C7.31492 0.758179 5.93825 1.16651 5.93825 1.16651C5.33902 2.56459 5.30142 4.13977 5.83325 5.56485C4.70173 6.75333 4.07453 8.33389 4.08325 9.97485C4.08325 16.2982 7.93325 17.6865 11.5966 18.1415C11.2127 18.5381 10.9167 19.0112 10.7278 19.5298C10.5388 20.0484 10.4612 20.6009 10.4999 21.1515V25.6665M10.4999 22.1665C4.66658 23.9165 4.66659 19.2498 2.33325 18.6665L10.4999 22.1665Z" stroke="#757575" stroke-linecap="round" stroke-linejoin="round"/>
</g>
<defs>
<clipPath id="clip0_1178_18077">
<rect width="28" height="28" fill="white"/>
</clipPath>
</defs>
</svg>
