<svg width="28" height="28" viewBox="0 0 28 28" fill="none" xmlns="http://www.w3.org/2000/svg">
<g clip-path="url(#clip0_1178_18001)">
<path d="M26.4249 16.7884L13.9999 25.8184L1.57492 16.7884C1.40835 16.6659 1.2848 16.4939 1.22193 16.2969C1.15907 16.0999 1.16011 15.8881 1.22492 15.6917L2.64826 11.2817L5.49492 2.52008C5.52253 2.44868 5.56649 2.38475 5.62326 2.33341C5.7157 2.24897 5.83638 2.20215 5.96159 2.20215C6.0868 2.20215 6.20748 2.24897 6.29992 2.33341C6.35987 2.39135 6.40404 2.46363 6.42826 2.54341L9.27492 11.2817H18.7249L21.5716 2.52008C21.5992 2.44868 21.6432 2.38475 21.6999 2.33341C21.7924 2.24897 21.9131 2.20215 22.0383 2.20215C22.1635 2.20215 22.2841 2.24897 22.3766 2.33341C22.4365 2.39135 22.4807 2.46363 22.5049 2.54341L25.3516 11.3051L26.8333 15.6917C26.8922 15.8941 26.8843 16.1102 26.8107 16.3077C26.7372 16.5053 26.6019 16.6738 26.4249 16.7884V16.7884Z" stroke="#757575" stroke-linecap="round" stroke-linejoin="round"/>
</g>
<defs>
<clipPath id="clip0_1178_18001">
<rect width="28" height="28" fill="white"/>
</clipPath>
</defs>
</svg>
