<svg width="28" height="28" viewBox="0 0 28 28" fill="none" xmlns="http://www.w3.org/2000/svg">
<path d="M25.6666 14.0002C25.6666 20.4435 20.4432 25.6668 13.9999 25.6668M25.6666 14.0002C25.6666 7.55684 20.4432 2.3335 13.9999 2.3335M25.6666 14.0002H2.33325M13.9999 25.6668C7.5566 25.6668 2.33325 20.4435 2.33325 14.0002M13.9999 25.6668C16.9181 22.4721 18.5765 18.3261 18.6666 14.0002C18.5765 9.6742 16.9181 5.52824 13.9999 2.3335M13.9999 25.6668C11.0818 22.4721 9.42337 18.3261 9.33325 14.0002C9.42337 9.6742 11.0818 5.52824 13.9999 2.3335M2.33325 14.0002C2.33325 7.55684 7.5566 2.3335 13.9999 2.3335" stroke="#757575" stroke-width="2.33333" stroke-linecap="round" stroke-linejoin="round"/>
</svg>
