<svg width="28" height="28" viewBox="0 0 28 28" fill="none" xmlns="http://www.w3.org/2000/svg">
<path d="M2.31885 7.97885C3.1665 6.21244 4.36416 4.71947 5.87353 3.47807C7.91885 1.78822 10.2649 0.771036 12.8954 0.459318C15.9853 0.0929113 18.8892 0.678068 21.5743 2.28588C22.2415 2.6851 22.8649 3.13901 23.461 3.63119C23.6087 3.75151 23.5923 3.8226 23.4665 3.94291C22.247 5.15697 21.0274 6.37104 19.8188 7.59604C19.6767 7.73822 19.6001 7.72729 19.447 7.61244C15.9032 4.88354 10.7353 5.62182 8.09385 9.23119C7.629 9.86557 7.25166 10.5492 6.98916 11.2929C6.96728 11.3585 6.92353 11.4187 6.89072 11.4843C6.18525 10.9484 5.47432 10.4124 4.77432 9.87104C3.954 9.24213 3.13369 8.61322 2.31885 7.97885Z" fill="currentColor"/>
<path d="M6.89058 16.6143C7.12573 17.1338 7.32261 17.6752 7.61792 18.1619C8.85933 20.1963 10.6312 21.5033 12.9664 21.9682C15.0718 22.3893 17.0953 22.1049 18.982 21.0494C19.0476 21.0166 19.1132 20.9838 19.1734 20.951C19.2062 20.9838 19.2335 21.0221 19.2664 21.0494C20.6773 22.1432 22.0937 23.2369 23.5046 24.3307C22.8265 25.0033 22.0554 25.5447 21.2351 26.015C18.8562 27.3713 16.2804 27.9182 13.5679 27.7104C10.1882 27.4479 7.27339 26.1135 4.86714 23.7072C3.81167 22.6518 2.94214 21.4596 2.31323 20.0979C2.89839 19.6494 3.48355 19.2064 4.0687 18.758C5.00933 18.0416 5.94995 17.3307 6.89058 16.6143Z" fill="currentColor"/>
<path d="M23.5101 24.3305C22.0992 23.2367 20.6828 22.143 19.2719 21.0492C19.239 21.0219 19.2062 20.9836 19.1789 20.9508C19.6656 20.5734 20.1633 20.207 20.5625 19.7258C21.2297 18.9273 21.6726 18.025 21.9023 17.0133C21.9297 16.8875 21.9078 16.8438 21.782 16.8492C21.7164 16.8547 21.6562 16.8492 21.5906 16.8492C19.3594 16.8492 17.1226 16.8438 14.8914 16.8547C14.6453 16.8547 14.5906 16.7891 14.5961 16.5539C14.607 14.968 14.607 13.382 14.5961 11.7961C14.5961 11.5937 14.6508 11.5391 14.8531 11.5391C18.9437 11.5445 23.0344 11.5445 27.1305 11.5391C27.3055 11.5391 27.3766 11.5828 27.4203 11.7687C27.7539 13.2727 27.732 14.782 27.5297 16.3023C27.3656 17.5164 27.0703 18.6922 26.6164 19.8297C25.9437 21.5086 24.9539 22.9742 23.6523 24.232C23.6031 24.2703 23.5539 24.2977 23.5101 24.3305Z" fill="currentColor"/>
<path d="M6.89064 16.6141C5.95002 17.3305 5.00939 18.0414 4.06877 18.7578C3.48361 19.2008 2.89846 19.6492 2.3133 20.0977C1.85939 19.2555 1.56408 18.3641 1.32346 17.4453C0.864081 15.668 0.792987 13.8633 1.04455 12.0531C1.24142 10.6312 1.65158 9.26406 2.3133 7.98438C3.13361 8.61328 3.94846 9.24766 4.76877 9.87656C5.47424 10.418 6.17971 10.9539 6.88517 11.4898C6.76486 12.075 6.59533 12.6492 6.54064 13.2508C6.44221 14.3445 6.54611 15.4109 6.85783 16.4609C6.87971 16.5047 6.88517 16.5594 6.89064 16.6141Z" fill="currentColor"/>
</svg>
