<svg width="28" height="28" viewBox="0 0 28 28" fill="none" xmlns="http://www.w3.org/2000/svg">
<g clip-path="url(#clip0_5624_8979)">
<path d="M14 5.6875C14 5.10734 14.2305 4.55094 14.6407 4.1407C15.0509 3.73047 15.6073 3.5 16.1875 3.5C16.7677 3.5 17.3241 3.73047 17.7343 4.1407C18.1445 4.55094 18.375 5.10734 18.375 5.6875V12.25" stroke="#757575" stroke-linecap="round" stroke-linejoin="round"/>
<path d="M9.625 7.4375V3.9375C9.625 3.35734 9.85547 2.80094 10.2657 2.3907C10.6759 1.98047 11.2323 1.75 11.8125 1.75C12.3927 1.75 12.9491 1.98047 13.3593 2.3907C13.7695 2.80094 14 3.35734 14 3.9375V11.375" stroke="#757575" stroke-linecap="round" stroke-linejoin="round"/>
<path d="M14 18.8125C14 17.6522 14.4609 16.5394 15.2814 15.7189C16.1019 14.8984 17.2147 14.4375 18.375 14.4375V12.25C18.375 11.6698 18.6055 11.1134 19.0157 10.7032C19.4259 10.293 19.9823 10.0625 20.5625 10.0625C21.1427 10.0625 21.6991 10.293 22.1093 10.7032C22.5195 11.1134 22.75 11.6698 22.75 12.25V16.625C22.75 18.9456 21.8281 21.1712 20.1872 22.8122C18.5462 24.4531 16.3206 25.375 14 25.375C11.6794 25.375 9.45376 24.4531 7.81282 22.8122C6.17187 21.1712 5.25 18.9456 5.25 16.625V7.4375C5.25 6.85734 5.48047 6.30094 5.8907 5.8907C6.30094 5.48047 6.85734 5.25 7.4375 5.25C8.01766 5.25 8.57406 5.48047 8.9843 5.8907C9.39453 6.30094 9.625 6.85734 9.625 7.4375V12.25" stroke="#757575" stroke-linecap="round" stroke-linejoin="round"/>
</g>
<defs>
<clipPath id="clip0_5624_8979">
<rect width="28" height="28" fill="white"/>
</clipPath>
</defs>
</svg>
