<svg width="28" height="28" viewBox="0 0 28 28" fill="none" xmlns="http://www.w3.org/2000/svg">
<path d="M14.4354 2.60433C14.6248 2.41492 14.8817 2.30851 15.1496 2.30851C15.4175 2.30851 15.6744 2.41492 15.8638 2.60433C16.0532 2.79373 16.1596 3.05062 16.1596 3.31848V10.6769C16.1596 11.3143 16.6764 11.8311 17.3138 11.8311C17.9513 11.8311 18.4681 11.3143 18.4681 10.6769V5.04987C18.4681 4.78201 18.5745 4.52511 18.7639 4.33571C18.9533 4.1463 19.2102 4.03989 19.4781 4.03989C19.7459 4.03989 20.0028 4.1463 20.1922 4.33571C20.3816 4.52511 20.488 4.78201 20.488 5.04987V12.6754C19.4646 12.8958 18.5171 13.4067 17.7654 14.1584C16.7372 15.1866 16.1596 16.5811 16.1596 18.0352C16.1596 18.6727 16.6764 19.1895 17.3138 19.1895C17.9513 19.1895 18.4681 18.6727 18.4681 18.0352C18.4681 17.1934 18.8025 16.386 19.3978 15.7907C19.9931 15.1955 20.8004 14.861 21.6423 14.861C22.2798 14.861 22.7965 14.3443 22.7965 13.7068V11.5426C22.7965 11.2747 22.903 11.0178 23.0924 10.8284C23.2818 10.639 23.5387 10.5326 23.8065 10.5326C24.0744 10.5326 24.3313 10.639 24.5207 10.8284C24.7101 11.0178 24.8165 11.2747 24.8165 11.5426V15.871C24.8165 17.8608 24.026 19.7692 22.619 21.1762C21.212 22.5832 19.3037 23.3737 17.3138 23.3737C16.7545 23.3737 16.2016 23.3112 15.6645 23.1902C15.4066 23.9439 15.0539 24.6537 14.6207 25.3053C15.489 25.5532 16.3948 25.6822 17.3138 25.6822C19.9159 25.6822 22.4114 24.6485 24.2514 22.8086C26.0913 20.9686 27.125 18.4731 27.125 15.871V11.5426C27.125 10.6624 26.7754 9.81837 26.153 9.19603C25.5307 8.57369 24.6866 8.22407 23.8065 8.22407C23.4605 8.22407 23.1201 8.2781 22.7965 8.38149V5.04987C22.7965 4.16975 22.4469 3.32568 21.8246 2.70334C21.2022 2.08101 20.3582 1.73138 19.4781 1.73138C19.0317 1.73138 18.5946 1.82131 18.1911 1.99112C18.0267 1.61452 17.7923 1.26813 17.4961 0.971962C16.8738 0.349625 16.0297 0 15.1496 0C14.2695 0 13.4254 0.349625 12.8031 0.971962C12.1807 1.5943 11.8311 2.43837 11.8311 3.31848V3.62019C11.5076 3.5168 11.1671 3.46277 10.8211 3.46277C9.94103 3.46277 9.09696 3.81239 8.47462 4.43473C7.85229 5.05706 7.50266 5.90113 7.50266 6.78125V10.9832C8.30412 11.0326 9.07792 11.1842 9.81117 11.4253V6.78125C9.81117 6.51339 9.91758 6.2565 10.107 6.06709C10.2964 5.87768 10.5533 5.77128 10.8211 5.77128C11.089 5.77128 11.3459 5.87768 11.5353 6.06709C11.7247 6.2565 11.8311 6.51339 11.8311 6.78125V11.5426C11.8311 12.18 12.3479 12.6968 12.9854 12.6968C13.6229 12.6968 14.1396 12.18 14.1396 11.5426V3.31848C14.1396 3.05062 14.246 2.79373 14.4354 2.60433Z" fill="currentColor"/>
<path fill-rule="evenodd" clip-rule="evenodd" d="M8.65692 14.1396C8.65692 13.6615 8.26933 13.2739 7.79122 13.2739H6.05984C5.58173 13.2739 5.19415 13.6615 5.19415 14.1396V15.3009C5.02042 15.3623 4.85093 15.4327 4.68624 15.5115L3.86482 14.6901C3.52675 14.352 2.97862 14.352 2.64055 14.6901L1.41627 15.9143C1.0782 16.2524 1.0782 16.8005 1.41627 17.1386L2.23764 17.96C2.15879 18.1247 2.08837 18.2943 2.02694 18.4681H0.865692C0.387583 18.4681 0 18.8557 0 19.3338V21.0652C0 21.5433 0.387583 21.9309 0.865692 21.9309H2.02694C2.08841 22.1048 2.15887 22.2744 2.23778 22.4393L1.4165 23.2605C1.07842 23.5986 1.07842 24.1467 1.4165 24.4848L2.64077 25.7091C2.97884 26.0472 3.52697 26.0472 3.86504 25.7091L4.68653 24.8876C4.85113 24.9664 5.02052 25.0367 5.19415 25.0981V26.2593C5.19415 26.7374 5.58173 27.125 6.05984 27.125H7.79122C8.26933 27.125 8.65691 26.7374 8.65691 26.2593V25.0981C8.83072 25.0366 9.00028 24.9662 9.16504 24.8874L9.98618 25.7085C10.3243 26.0466 10.8724 26.0466 11.2105 25.7085L12.4347 24.4842C12.7728 24.1462 12.7728 23.598 12.4347 23.26L11.6135 22.4388C11.6923 22.2741 11.7627 22.1046 11.8241 21.9309H12.9854C13.4635 21.9309 13.8511 21.5433 13.8511 21.0652V19.3338C13.8511 18.8557 13.4635 18.4681 12.9854 18.4681H11.8241C11.7628 18.2945 11.6924 18.1251 11.6137 17.9605L12.435 17.1392C12.773 16.8011 12.773 16.253 12.435 15.9149L11.2107 14.6906C10.8726 14.3526 10.3245 14.3526 9.98641 14.6906L9.16532 15.5117C9.00048 15.4328 8.83082 15.3623 8.65692 15.3009V14.1396ZM6.92553 22.7965C8.35986 22.7965 9.52261 21.6338 9.52261 20.1995C9.52261 18.7651 8.35986 17.6024 6.92553 17.6024C5.49121 17.6024 4.32846 18.7651 4.32846 20.1995C4.32846 21.6338 5.49121 22.7965 6.92553 22.7965Z" fill="currentColor"/>
</svg>
