<svg width="28" height="28" viewBox="0 0 28 28" fill="none" xmlns="http://www.w3.org/2000/svg">
<path d="M25.6666 13.9998H2.33325M25.6666 13.9998V20.9998C25.6666 21.6187 25.4208 22.2122 24.9832 22.6498C24.5456 23.0873 23.9521 23.3332 23.3333 23.3332H4.66659C4.04775 23.3332 3.45425 23.0873 3.01667 22.6498C2.57908 22.2122 2.33325 21.6187 2.33325 20.9998V13.9998M25.6666 13.9998L21.6416 5.9615C21.4484 5.57276 21.1506 5.2456 20.7817 5.01683C20.4128 4.78806 19.9873 4.66673 19.5533 4.6665H8.44658C8.01249 4.66673 7.58706 4.78806 7.21814 5.01683C6.84921 5.2456 6.55143 5.57276 6.35825 5.9615L2.33325 13.9998M6.99992 18.6665H7.01159M11.6666 18.6665H11.6783" stroke="#757575" stroke-linecap="round" stroke-linejoin="round"/>
</svg>
