<svg width="28" height="28" viewBox="0 0 28 28" fill="none" xmlns="http://www.w3.org/2000/svg">
<path d="M3.5 21V14C3.5 11.2152 4.60625 8.54451 6.57538 6.57538C8.54451 4.60625 11.2152 3.5 14 3.5C16.7848 3.5 19.4555 4.60625 21.4246 6.57538C23.3938 8.54451 24.5 11.2152 24.5 14V21M24.5 22.1667C24.5 22.7855 24.2542 23.379 23.8166 23.8166C23.379 24.2542 22.7855 24.5 22.1667 24.5H21C20.3812 24.5 19.7877 24.2542 19.3501 23.8166C18.9125 23.379 18.6667 22.7855 18.6667 22.1667V18.6667C18.6667 18.0478 18.9125 17.4543 19.3501 17.0168C19.7877 16.5792 20.3812 16.3333 21 16.3333H24.5V22.1667ZM3.5 22.1667C3.5 22.7855 3.74583 23.379 4.18342 23.8166C4.621 24.2542 5.21449 24.5 5.83333 24.5H7C7.61884 24.5 8.21233 24.2542 8.64992 23.8166C9.0875 23.379 9.33333 22.7855 9.33333 22.1667V18.6667C9.33333 18.0478 9.0875 17.4543 8.64992 17.0168C8.21233 16.5792 7.61884 16.3333 7 16.3333H3.5V22.1667Z" stroke="#757575" stroke-linecap="round" stroke-linejoin="round"/>
</svg>
