<svg width="28" height="28" viewBox="0 0 28 28" fill="none" xmlns="http://www.w3.org/2000/svg">
<path d="M10.6049 10.5002C10.8792 9.72044 11.4206 9.06295 12.1332 8.64415C12.8458 8.22535 13.6836 8.07226 14.4983 8.21199C15.313 8.35173 16.0519 8.77527 16.5842 9.40761C17.1165 10.0399 17.4078 10.8403 17.4066 11.6668C17.4066 14.0002 13.9066 15.1668 13.9066 15.1668M13.9999 19.8335H14.0116M25.6666 14.0002C25.6666 20.4435 20.4432 25.6668 13.9999 25.6668C7.5566 25.6668 2.33325 20.4435 2.33325 14.0002C2.33325 7.55684 7.5566 2.3335 13.9999 2.3335C20.4432 2.3335 25.6666 7.55684 25.6666 14.0002Z" stroke="#757575" stroke-width="2.33333" stroke-linecap="round" stroke-linejoin="round"/>
</svg>
