<svg width="28" height="28" viewBox="0 0 28 28" fill="none" xmlns="http://www.w3.org/2000/svg">
<path d="M5.83333 24.5H22.1667C23.4553 24.5 24.5 23.4553 24.5 22.1667V5.83333C24.5 4.54467 23.4553 3.5 22.1667 3.5H5.83333C4.54467 3.5 3.5 4.54467 3.5 5.83333V22.1667C3.5 23.4553 4.54467 24.5 5.83333 24.5ZM5.83333 24.5L18.6667 11.6667L24.5 17.5M11.6667 9.91667C11.6667 10.8832 10.8832 11.6667 9.91667 11.6667C8.95017 11.6667 8.16667 10.8832 8.16667 9.91667C8.16667 8.95017 8.95017 8.16667 9.91667 8.16667C10.8832 8.16667 11.6667 8.95017 11.6667 9.91667Z" stroke="currentColor" stroke-linecap="round" stroke-linejoin="round"/>
</svg>
