<svg width="28" height="28" viewBox="0 0 28 28" fill="none" xmlns="http://www.w3.org/2000/svg">
<path d="M20.4166 7.5835H20.4283M8.16658 2.3335H19.8333C23.0549 2.3335 25.6666 4.94517 25.6666 8.16683V19.8335C25.6666 23.0552 23.0549 25.6668 19.8333 25.6668H8.16658C4.94492 25.6668 2.33325 23.0552 2.33325 19.8335V8.16683C2.33325 4.94517 4.94492 2.3335 8.16658 2.3335ZM18.6666 13.2652C18.8106 14.2361 18.6447 15.2277 18.1926 16.099C17.7406 16.9703 17.0253 17.6768 16.1485 18.1181C15.2717 18.5594 14.2781 18.713 13.309 18.5571C12.3399 18.4011 11.4446 17.9436 10.7506 17.2495C10.0565 16.5554 9.59894 15.6602 9.443 14.6911C9.28705 13.722 9.44066 12.7284 9.88197 11.8516C10.3233 10.9748 11.0298 10.2595 11.9011 9.80745C12.7723 9.35536 13.764 9.18952 14.7349 9.3335C15.7253 9.48036 16.6422 9.94187 17.3502 10.6499C18.0582 11.3578 18.5197 12.2748 18.6666 13.2652Z" stroke="currentColor" stroke-linecap="round" stroke-linejoin="round"/>
</svg>
