<svg width="28" height="28" viewBox="0 0 28 28" fill="none" xmlns="http://www.w3.org/2000/svg">
<path d="M18.0834 8.75016L22.1667 4.66683M24.5001 2.3335L22.1667 4.66683L24.5001 2.3335ZM13.2884 13.5452C13.8908 14.1395 14.3697 14.8472 14.6975 15.6274C15.0252 16.4076 15.1954 17.245 15.1983 18.0912C15.2011 18.9375 15.0365 19.776 14.714 20.5583C14.3914 21.3407 13.9173 22.0516 13.3189 22.65C12.7205 23.2484 12.0097 23.7225 11.2273 24.0451C10.4449 24.3676 9.60641 24.5322 8.76015 24.5294C7.91389 24.5265 7.07654 24.3563 6.29633 24.0285C5.51612 23.7008 4.80845 23.2219 4.21408 22.6195C3.04523 21.4093 2.39846 19.7884 2.41308 18.106C2.4277 16.4236 3.10254 14.8142 4.29224 13.6245C5.48194 12.4348 7.09132 11.76 8.77375 11.7453C10.4562 11.7307 12.077 12.3775 13.2872 13.5463L13.2884 13.5452ZM13.2884 13.5452L18.0834 8.75016L13.2884 13.5452ZM18.0834 8.75016L21.5834 12.2502L25.6667 8.16683L22.1667 4.66683L18.0834 8.75016Z" stroke="#757575" stroke-width="2.33333" stroke-linecap="round" stroke-linejoin="round"/>
</svg>
