<svg width="28" height="28" viewBox="0 0 28 28" fill="none" xmlns="http://www.w3.org/2000/svg">
<path d="M18.6666 9.3335C20.5231 9.3335 22.3036 10.071 23.6163 11.3837C24.9291 12.6965 25.6666 14.477 25.6666 16.3335V24.5002H20.9999V16.3335C20.9999 15.7147 20.7541 15.1212 20.3165 14.6836C19.8789 14.246 19.2854 14.0002 18.6666 14.0002C18.0477 14.0002 17.4543 14.246 17.0167 14.6836C16.5791 15.1212 16.3333 15.7147 16.3333 16.3335V24.5002H11.6666V16.3335C11.6666 14.477 12.4041 12.6965 13.7168 11.3837C15.0296 10.071 16.8101 9.3335 18.6666 9.3335Z" stroke="currentColor" stroke-linecap="round" stroke-linejoin="round"/>
<path d="M6.99992 10.5002H2.33325V24.5002H6.99992V10.5002Z" stroke="currentColor" stroke-linecap="round" stroke-linejoin="round"/>
<path d="M4.66659 7.00016C5.95525 7.00016 6.99992 5.95549 6.99992 4.66683C6.99992 3.37816 5.95525 2.3335 4.66659 2.3335C3.37792 2.3335 2.33325 3.37816 2.33325 4.66683C2.33325 5.95549 3.37792 7.00016 4.66659 7.00016Z" stroke="currentColor" stroke-linecap="round" stroke-linejoin="round"/>
</svg>
