<svg width="28" height="28" viewBox="0 0 28 28" fill="none" xmlns="http://www.w3.org/2000/svg">
<path d="M17.5001 8.1665H21.0001C21.7661 8.1665 22.5247 8.31739 23.2324 8.61054C23.9401 8.90369 24.5832 9.33337 25.1249 9.87505C25.6665 10.4167 26.0962 11.0598 26.3894 11.7675C26.6825 12.4752 26.8334 13.2338 26.8334 13.9998C26.8334 14.7659 26.6825 15.5244 26.3894 16.2322C26.0962 16.9399 25.6665 17.583 25.1249 18.1246C24.5832 18.6663 23.9401 19.096 23.2324 19.3891C22.5247 19.6823 21.7661 19.8332 21.0001 19.8332H17.5001M10.5001 19.8332H7.00008C6.23404 19.8332 5.47549 19.6823 4.76776 19.3891C4.06003 19.096 3.41697 18.6663 2.87529 18.1246C1.78133 17.0307 1.16675 15.5469 1.16675 13.9998C1.16675 12.4527 1.78133 10.969 2.87529 9.87505C3.96925 8.78109 5.45298 8.1665 7.00008 8.1665H10.5001M9.33342 13.9998H18.6667" stroke="#757575" stroke-linecap="round" stroke-linejoin="round"/>
</svg>
