<svg width="28" height="28" viewBox="0 0 28 28" fill="none" xmlns="http://www.w3.org/2000/svg">
<path d="M11.6667 15.1665C12.1677 15.8363 12.8069 16.3905 13.541 16.7916C14.275 17.1926 15.0867 17.4311 15.9211 17.4909C16.7554 17.5506 17.5928 17.4302 18.3766 17.1379C19.1603 16.8455 19.872 16.388 20.4633 15.7965L23.9633 12.2965C25.0259 11.1963 25.6139 9.72277 25.6006 8.19329C25.5873 6.66381 24.9738 5.20074 23.8923 4.11919C22.8107 3.03764 21.3476 2.42416 19.8182 2.41087C18.2887 2.39757 16.8152 2.98554 15.715 4.04813L13.7083 6.04313M16.3333 12.8331C15.8323 12.1633 15.1931 11.6091 14.459 11.208C13.725 10.807 12.9132 10.5685 12.0789 10.5087C11.2446 10.449 10.4071 10.5694 9.62342 10.8617C8.8397 11.1541 8.12802 11.6115 7.53666 12.2031L4.03666 15.7031C2.97407 16.8033 2.3861 18.2768 2.39939 19.8063C2.41268 21.3358 3.02617 22.7989 4.10771 23.8804C5.18926 24.962 6.65233 25.5754 8.18181 25.5887C9.7113 25.602 11.1848 25.0141 12.285 23.9515L14.28 21.9565" stroke="currentColor" stroke-linecap="round" stroke-linejoin="round"/>
</svg>
