<svg width="28" height="28" viewBox="0 0 28 28" fill="none" xmlns="http://www.w3.org/2000/svg">
<path d="M8.16667 12.8335V8.16683C8.16667 6.61973 8.78125 5.136 9.87521 4.04204C10.9692 2.94808 12.4529 2.3335 14 2.3335C15.5471 2.3335 17.0308 2.94808 18.1248 4.04204C19.2188 5.136 19.8333 6.61973 19.8333 8.16683V12.8335M5.83333 12.8335H22.1667C23.4553 12.8335 24.5 13.8782 24.5 15.1668V23.3335C24.5 24.6222 23.4553 25.6668 22.1667 25.6668H5.83333C4.54467 25.6668 3.5 24.6222 3.5 23.3335V15.1668C3.5 13.8782 4.54467 12.8335 5.83333 12.8335Z" stroke="currentColor" stroke-linecap="round" stroke-linejoin="round"/>
</svg>
