<svg width="28" height="28" viewBox="0 0 28 28" fill="none" xmlns="http://www.w3.org/2000/svg">
<path d="M24.5 11.6665C24.5 19.8332 14 26.8332 14 26.8332C14 26.8332 3.5 19.8332 3.5 11.6665C3.5 8.88173 4.60625 6.21101 6.57538 4.24188C8.54451 2.27275 11.2152 1.1665 14 1.1665C16.7848 1.1665 19.4555 2.27275 21.4246 4.24188C23.3938 6.21101 24.5 8.88173 24.5 11.6665Z" stroke="currentColor" stroke-linecap="round" stroke-linejoin="round"/>
<path d="M14 15.1665C15.933 15.1665 17.5 13.5995 17.5 11.6665C17.5 9.73351 15.933 8.1665 14 8.1665C12.067 8.1665 10.5 9.73351 10.5 11.6665C10.5 13.5995 12.067 15.1665 14 15.1665Z" stroke="currentColor" stroke-linecap="round" stroke-linejoin="round"/>
</svg>
