<svg width="28" height="28" viewBox="0 0 28 28" fill="none" xmlns="http://www.w3.org/2000/svg">
<g clip-path="url(#clip0_1178_17899)">
<path d="M1.16675 1.16661L26.8334 26.8333M17.5001 10.8966V4.66661C17.501 3.79864 17.1793 2.96132 16.5975 2.31718C16.0158 1.67304 15.2154 1.26804 14.3518 1.18081C13.4883 1.09358 12.6231 1.33034 11.9242 1.84513C11.2254 2.35992 10.7428 3.116 10.5701 3.96661M19.8334 19.7749C18.6945 20.9374 17.2342 21.7331 15.64 22.06C14.0457 22.3868 12.3901 22.2299 10.8857 21.6093C9.3812 20.9887 8.09647 19.9328 7.19628 18.577C6.29609 17.2212 5.82151 15.6273 5.83341 13.9999V11.6666M22.1667 11.6666V13.9999C22.1663 14.4811 22.1234 14.9613 22.0384 15.4349M14.0001 22.1666V26.8333M9.33342 26.8333H18.6667M10.5001 10.4999V13.9999C10.5007 14.6917 10.7063 15.3678 11.0909 15.9428C11.4755 16.5178 12.0219 16.966 12.6611 17.2306C13.3003 17.4953 14.0035 17.5646 14.682 17.4298C15.3606 17.295 15.9839 16.9621 16.4734 16.4733L10.5001 10.4999Z" stroke="currentColor" stroke-linecap="round" stroke-linejoin="round"/>
</g>
<defs>
<clipPath id="clip0_1178_17899">
<rect width="28" height="28" fill="white"/>
</clipPath>
</defs>
</svg>
