<svg width="28" height="28" viewBox="0 0 28 28" fill="none" xmlns="http://www.w3.org/2000/svg">
<path d="M22.1666 11.6665V13.9998C22.1666 16.1658 21.3062 18.243 19.7746 19.7745C18.2431 21.3061 16.1659 22.1665 13.9999 22.1665M13.9999 22.1665C11.834 22.1665 9.75676 21.3061 8.22521 19.7745C6.69367 18.243 5.83325 16.1658 5.83325 13.9998V11.6665M13.9999 22.1665V26.8332M9.33325 26.8332H18.6666M13.9999 1.1665C13.0717 1.1665 12.1814 1.53525 11.525 2.19163C10.8687 2.84801 10.4999 3.73825 10.4999 4.6665V13.9998C10.4999 14.9281 10.8687 15.8183 11.525 16.4747C12.1814 17.1311 13.0717 17.4998 13.9999 17.4998C14.9282 17.4998 15.8184 17.1311 16.4748 16.4747C17.1312 15.8183 17.4999 14.9281 17.4999 13.9998V4.6665C17.4999 3.73825 17.1312 2.84801 16.4748 2.19163C15.8184 1.53525 14.9282 1.1665 13.9999 1.1665Z" stroke="#757575" stroke-width="2.33333" stroke-linecap="round" stroke-linejoin="round"/>
</svg>
