<svg width="28" height="28" viewBox="0 0 28 28" fill="none" xmlns="http://www.w3.org/2000/svg">
<path d="M9.33333 3.5V7C9.33333 7.61884 9.0875 8.21233 8.64992 8.64992C8.21233 9.0875 7.61884 9.33333 7 9.33333H3.5M24.5 9.33333H21C20.3812 9.33333 19.7877 9.0875 19.3501 8.64992C18.9125 8.21233 18.6667 7.61884 18.6667 7V3.5M18.6667 24.5V21C18.6667 20.3812 18.9125 19.7877 19.3501 19.3501C19.7877 18.9125 20.3812 18.6667 21 18.6667H24.5M3.5 18.6667H7C7.61884 18.6667 8.21233 18.9125 8.64992 19.3501C9.0875 19.7877 9.33333 20.3812 9.33333 21V24.5" stroke="#757575" stroke-width="2.33333" stroke-linecap="round" stroke-linejoin="round"/>
</svg>
