<svg width="28" height="28" viewBox="0 0 28 28" fill="none" xmlns="http://www.w3.org/2000/svg">
<path d="M24.4999 14.9217C24.3164 16.9076 23.5711 18.8001 22.3512 20.3779C21.1313 21.9557 19.4873 23.1534 17.6115 23.831C15.7358 24.5085 13.7059 24.6378 11.7593 24.2038C9.81274 23.7697 8.03004 22.7903 6.61981 21.3801C5.20958 19.9698 4.23015 18.1871 3.79611 16.2406C3.36207 14.294 3.49139 12.2641 4.16892 10.3883C4.84646 8.51259 6.04419 6.86859 7.62197 5.64871C9.19975 4.42883 11.0923 3.68352 13.0782 3.5C11.9155 5.07298 11.356 7.01102 11.5015 8.96165C11.647 10.9123 12.4877 12.7459 13.8709 14.129C15.254 15.5122 17.0876 16.3529 19.0382 16.4984C20.9889 16.6438 22.9269 16.0844 24.4999 14.9217Z" stroke="#757575" stroke-width="2.33333" stroke-linecap="round" stroke-linejoin="round"/>
</svg>
