<svg width="28" height="28" viewBox="0 0 28 28" fill="none" xmlns="http://www.w3.org/2000/svg">
<path d="M13.9999 15.1665C14.6443 15.1665 15.1666 14.6442 15.1666 13.9998C15.1666 13.3555 14.6443 12.8332 13.9999 12.8332C13.3556 12.8332 12.8333 13.3555 12.8333 13.9998C12.8333 14.6442 13.3556 15.1665 13.9999 15.1665Z" stroke="#757575" stroke-linecap="round" stroke-linejoin="round"/>
<path d="M13.9999 6.99984C14.6443 6.99984 15.1666 6.4775 15.1666 5.83317C15.1666 5.18884 14.6443 4.6665 13.9999 4.6665C13.3556 4.6665 12.8333 5.18884 12.8333 5.83317C12.8333 6.4775 13.3556 6.99984 13.9999 6.99984Z" stroke="#757575" stroke-linecap="round" stroke-linejoin="round"/>
<path d="M13.9999 23.3332C14.6443 23.3332 15.1666 22.8108 15.1666 22.1665C15.1666 21.5222 14.6443 20.9998 13.9999 20.9998C13.3556 20.9998 12.8333 21.5222 12.8333 22.1665C12.8333 22.8108 13.3556 23.3332 13.9999 23.3332Z" stroke="#757575" stroke-linecap="round" stroke-linejoin="round"/>
</svg>
