<svg width="28" height="28" viewBox="0 0 28 28" fill="none" xmlns="http://www.w3.org/2000/svg">
<path d="M10.5 21V5.83333L24.5 3.5V18.6667M10.5 21C10.5 22.933 8.933 24.5 7 24.5C5.067 24.5 3.5 22.933 3.5 21C3.5 19.067 5.067 17.5 7 17.5C8.933 17.5 10.5 19.067 10.5 21ZM24.5 18.6667C24.5 20.5997 22.933 22.1667 21 22.1667C19.067 22.1667 17.5 20.5997 17.5 18.6667C17.5 16.7337 19.067 15.1667 21 15.1667C22.933 15.1667 24.5 16.7337 24.5 18.6667Z" stroke="#757575" stroke-linecap="round" stroke-linejoin="round"/>
</svg>
