<svg width="28" height="28" viewBox="0 0 28 28" fill="none" xmlns="http://www.w3.org/2000/svg">
<path d="M19.25 10.9669L8.75 4.91188M3.815 8.12021L14 14.0119L24.185 8.12021M14 25.7602V14.0002M24.5 18.6669V9.33354C24.4996 8.92436 24.3916 8.52249 24.1868 8.16823C23.982 7.81398 23.6877 7.5198 23.3333 7.31521L15.1667 2.64854C14.812 2.44375 14.4096 2.33594 14 2.33594C13.5904 2.33594 13.188 2.44375 12.8333 2.64854L4.66667 7.31521C4.31231 7.5198 4.01798 7.81398 3.81321 8.16823C3.60843 8.52249 3.50042 8.92436 3.5 9.33354V18.6669C3.50042 19.0761 3.60843 19.4779 3.81321 19.8322C4.01798 20.1864 4.31231 20.4806 4.66667 20.6852L12.8333 25.3519C13.188 25.5567 13.5904 25.6645 14 25.6645C14.4096 25.6645 14.812 25.5567 15.1667 25.3519L23.3333 20.6852C23.6877 20.4806 23.982 20.1864 24.1868 19.8322C24.3916 19.4779 24.4996 19.0761 24.5 18.6669Z" stroke="#757575" stroke-linecap="round" stroke-linejoin="round"/>
</svg>
