<svg width="28" height="28" viewBox="0 0 28 28" fill="none" xmlns="http://www.w3.org/2000/svg">
<path d="M25.0133 12.8917L14.2916 23.6134C12.9781 24.9269 11.1966 25.6648 9.3391 25.6648C7.48155 25.6648 5.70008 24.9269 4.3866 23.6134C3.07311 22.2999 2.33521 20.5184 2.33521 18.6609C2.33521 16.8034 3.07311 15.0219 4.3866 13.7084L15.1083 2.98674C15.9839 2.11108 17.1716 1.61914 18.4099 1.61914C19.6483 1.61914 20.8359 2.11108 21.7116 2.98674C22.5873 3.86239 23.0792 5.05004 23.0792 6.2884C23.0792 7.52677 22.5873 8.71441 21.7116 9.59007L10.9783 20.3117C10.5404 20.7496 9.94661 20.9955 9.32743 20.9955C8.70825 20.9955 8.11443 20.7496 7.6766 20.3117C7.23877 19.8739 6.9928 19.2801 6.9928 18.6609C6.9928 18.0417 7.23877 17.4479 7.6766 17.0101L17.5816 7.11674" stroke="#757575" stroke-linecap="round" stroke-linejoin="round"/>
</svg>
