<svg width="28" height="28" viewBox="0 0 28 28" fill="none" xmlns="http://www.w3.org/2000/svg">
<path d="M6.05508 14.9448C4.09025 11.915 2.8635 8.46653 2.47341 4.8765C2.44426 4.55388 2.4826 4.22872 2.586 3.92173C2.68939 3.61474 2.85558 3.33264 3.07397 3.0934C3.29237 2.85415 3.55819 2.663 3.8545 2.53211C4.15082 2.40123 4.47115 2.33348 4.79508 2.33317H8.29508C8.86127 2.3276 9.41017 2.5281 9.83947 2.89729C10.2688 3.26649 10.5492 3.77919 10.6284 4.33984C10.7761 5.45991 11.0501 6.55969 11.4451 7.61817C11.602 8.03575 11.636 8.48957 11.543 8.92586C11.4499 9.36216 11.2338 9.76263 10.9201 10.0798L9.43841 11.5615M26.8334 1.1665L1.16675 26.8332M12.4601 15.5282C13.6441 16.7132 14.9822 17.7335 16.4384 18.5615L17.9201 17.0798C18.2373 16.7662 18.6378 16.55 19.0741 16.4569C19.5103 16.3639 19.9642 16.3979 20.3817 16.5548C21.4402 16.9498 22.54 17.2238 23.6601 17.3715C24.2207 17.4507 24.7334 17.7311 25.1026 18.1604C25.4718 18.5897 25.6723 19.1386 25.6667 19.7048V23.2048C25.6681 23.5298 25.6015 23.8514 25.4713 24.1491C25.3412 24.4468 25.1503 24.714 24.9108 24.9337C24.6714 25.1533 24.3887 25.3206 24.081 25.4247C23.7732 25.5288 23.447 25.5674 23.1234 25.5382C19.5334 25.1481 16.0849 23.9213 13.0551 21.9565C11.6496 21.0641 10.3467 20.0194 9.17008 18.8415L12.4601 15.5282Z" stroke="#757575" stroke-width="2.33333" stroke-linecap="round" stroke-linejoin="round"/>
</svg>
