<svg width="28" height="28" viewBox="0 0 28 28" fill="none" xmlns="http://www.w3.org/2000/svg">
<path d="M25.6667 19.7398V23.2398C25.668 23.5647 25.6014 23.8863 25.4713 24.184C25.3411 24.4817 25.1502 24.749 24.9108 24.9686C24.6713 25.1883 24.3887 25.3555 24.0809 25.4596C23.7731 25.5637 23.4469 25.6024 23.1233 25.5731C19.5333 25.183 16.0848 23.9563 13.055 21.9915C10.2361 20.2002 7.84623 17.8103 6.055 14.9915C4.08331 11.9479 2.85629 8.48261 2.47334 4.87645C2.44418 4.55383 2.48252 4.22867 2.58592 3.92168C2.68932 3.61469 2.8555 3.33259 3.0739 3.09335C3.29229 2.8541 3.55811 2.66295 3.85443 2.53206C4.15074 2.40118 4.47107 2.33343 4.795 2.33312H8.295C8.86119 2.32755 9.41009 2.52805 9.83939 2.89724C10.2687 3.26644 10.5491 3.77914 10.6283 4.33979C10.7761 5.45986 11.05 6.55964 11.445 7.61812C11.602 8.0357 11.6359 8.48952 11.5429 8.92581C11.4498 9.36211 11.2337 9.76258 10.92 10.0798L9.43834 11.5615C11.0992 14.4823 13.5175 16.9006 16.4383 18.5615L17.92 17.0798C18.2372 16.7661 18.6377 16.5499 19.074 16.4569C19.5103 16.3638 19.9641 16.3978 20.3817 16.5548C21.4402 16.9498 22.5399 17.2237 23.66 17.3715C24.2267 17.4514 24.7443 17.7369 25.1143 18.1735C25.4843 18.6102 25.6809 19.1676 25.6667 19.7398Z" stroke="#757575" stroke-width="2.33333" stroke-linecap="round" stroke-linejoin="round"/>
</svg>
