<svg width="28" height="28" viewBox="0 0 28 28" fill="none" xmlns="http://www.w3.org/2000/svg">
<path d="M18.6667 2.33317V9.33317M18.6667 9.33317H25.6667M18.6667 9.33317L26.8333 1.1665M25.6667 19.7398V23.2398C25.668 23.5648 25.6014 23.8864 25.4713 24.1841C25.3411 24.4818 25.1502 24.749 24.9108 24.9687C24.6713 25.1883 24.3887 25.3556 24.0809 25.4597C23.7731 25.5638 23.4469 25.6024 23.1233 25.5732C19.5333 25.1831 16.0848 23.9563 13.055 21.9915C10.2361 20.2003 7.84623 17.8104 6.055 14.9915C4.08331 11.9479 2.85629 8.48266 2.47334 4.8765C2.44418 4.55388 2.48252 4.22872 2.58592 3.92173C2.68932 3.61474 2.8555 3.33264 3.0739 3.0934C3.29229 2.85415 3.55811 2.663 3.85443 2.53211C4.15074 2.40123 4.47107 2.33348 4.795 2.33317H8.295C8.86119 2.3276 9.41009 2.5281 9.83939 2.89729C10.2687 3.26649 10.5491 3.77919 10.6283 4.33984C10.7761 5.45991 11.05 6.55969 11.445 7.61817C11.602 8.03575 11.6359 8.48957 11.5429 8.92586C11.4498 9.36216 11.2337 9.76263 10.92 10.0798L9.43834 11.5615C11.0992 14.4823 13.5175 16.9007 16.4383 18.5615L17.92 17.0798C18.2372 16.7662 18.6377 16.55 19.074 16.4569C19.5103 16.3639 19.9641 16.3979 20.3817 16.5548C21.4402 16.9498 22.5399 17.2238 23.66 17.3715C24.2267 17.4515 24.7443 17.7369 25.1143 18.1736C25.4843 18.6103 25.6809 19.1677 25.6667 19.7398Z" stroke="#757575" stroke-width="2.33333" stroke-linecap="round" stroke-linejoin="round"/>
</svg>
