<svg width="28" height="28" viewBox="0 0 28 28" fill="none" xmlns="http://www.w3.org/2000/svg">
<path d="M24.7449 18.5385C24.0027 20.2937 22.8418 21.8404 21.3638 23.0433C19.8857 24.2463 18.1355 25.0688 16.2661 25.4391C14.3967 25.8093 12.4651 25.716 10.6401 25.1673C8.81508 24.6185 7.1523 23.6311 5.79709 22.2913C4.44188 20.9514 3.43552 19.3 2.86597 17.4814C2.29643 15.6628 2.18106 13.7324 2.52993 11.8589C2.87881 9.98541 3.68131 8.22589 4.86729 6.7342C6.05326 5.2425 7.5866 4.06403 9.33323 3.30183M25.6666 14.0002C25.6666 12.4681 25.3648 10.951 24.7785 9.53552C24.1922 8.12006 23.3328 6.83393 22.2495 5.75058C21.1661 4.66723 19.88 3.80787 18.4645 3.22157C17.0491 2.63526 15.532 2.3335 13.9999 2.3335V14.0002H25.6666Z" stroke="#757575" stroke-width="2.33333" stroke-linecap="round" stroke-linejoin="round"/>
</svg>
