<svg width="28" height="28" viewBox="0 0 28 28" fill="none" xmlns="http://www.w3.org/2000/svg">
<path d="M9.33325 11.6667L13.9999 16.3333L18.6666 11.6667M4.66659 3.5H23.3333C23.9521 3.5 24.5456 3.74583 24.9832 4.18342C25.4208 4.621 25.6666 5.21449 25.6666 5.83333V12.8333C25.6666 15.9275 24.4374 18.895 22.2495 21.0829C20.0616 23.2708 17.0941 24.5 13.9999 24.5C12.4678 24.5 10.9507 24.1982 9.53528 23.6119C8.11981 23.0256 6.83369 22.1663 5.75034 21.0829C3.56242 18.895 2.33325 15.9275 2.33325 12.8333V5.83333C2.33325 5.21449 2.57908 4.621 3.01667 4.18342C3.45425 3.74583 4.04775 3.5 4.66659 3.5Z" stroke="#757575" stroke-linecap="round" stroke-linejoin="round"/>
</svg>
