<svg width="28" height="28" viewBox="0 0 28 28" fill="none" xmlns="http://www.w3.org/2000/svg">
<path d="M6.99992 10.5002V2.3335H20.9999V10.5002M6.99992 21.0002H4.66659C4.04775 21.0002 3.45425 20.7543 3.01667 20.3167C2.57908 19.8792 2.33325 19.2857 2.33325 18.6668V12.8335C2.33325 12.2147 2.57908 11.6212 3.01667 11.1836C3.45425 10.746 4.04775 10.5002 4.66659 10.5002H23.3333C23.9521 10.5002 24.5456 10.746 24.9832 11.1836C25.4208 11.6212 25.6666 12.2147 25.6666 12.8335V18.6668C25.6666 19.2857 25.4208 19.8792 24.9832 20.3167C24.5456 20.7543 23.9521 21.0002 23.3333 21.0002H20.9999M6.99992 16.3335H20.9999V25.6668H6.99992V16.3335Z" stroke="currentColor" stroke-linecap="round" stroke-linejoin="round"/>
</svg>
