<svg width="29" height="28" viewBox="0 0 29 28" fill="none" xmlns="http://www.w3.org/2000/svg">
<path d="M15.5582 18.9004H13.1082V21.3504H15.5582V18.9004Z" fill="#757575"/>
<path d="M14.3332 1.75C7.56778 1.75 2.08325 7.23453 2.08325 14C2.08325 20.7654 7.56778 26.2499 14.3332 26.2499C21.0987 26.2499 26.5832 20.7654 26.5832 14C26.5832 7.23453 21.0987 1.75 14.3332 1.75ZM14.3332 24.0327C8.7923 24.0327 4.30048 19.5409 4.30048 14C4.30048 8.45905 8.7923 3.96723 14.3332 3.96723C19.8713 3.97395 24.3592 8.46181 24.366 14C24.366 19.5409 19.8742 24.0327 14.3332 24.0327Z" fill="#757575"/>
<path d="M19.0986 10.3861C18.4685 7.75427 15.8242 6.13164 13.1924 6.76179C10.9797 7.29156 9.42284 9.27468 9.4334 11.5499H11.8834C11.9984 10.1968 13.1886 9.19309 14.5416 9.3081C15.8947 9.42312 16.8984 10.6132 16.7834 11.9663C16.5332 13.1839 15.4409 14.0432 14.1987 13.9998C13.5965 13.9998 13.1084 14.488 13.1084 15.0901V17.6748H15.5584V16.2783C18.1493 15.6102 19.7252 12.9873 19.0986 10.3861Z" fill="#757575"/>
</svg>
