<svg width="28" height="28" viewBox="0 0 28 28" fill="none" xmlns="http://www.w3.org/2000/svg">
<path d="M1.16675 4.66684V11.6668M1.16675 11.6668H8.16675M1.16675 11.6668L6.58008 6.58017C7.83395 5.32567 9.38518 4.40924 11.089 3.91641C12.7929 3.42357 14.5938 3.37038 16.3237 3.7618C18.0537 4.15323 19.6563 4.97651 20.982 6.15482C22.3078 7.33314 23.3134 8.82809 23.9051 10.5002M26.8334 23.3335V16.3335M26.8334 16.3335H19.8334M26.8334 16.3335L21.4201 21.4202C20.1662 22.6747 18.615 23.5911 16.9111 24.0839C15.2073 24.5768 13.4064 24.63 11.6764 24.2385C9.94646 23.8471 8.34385 23.0238 7.01813 21.8455C5.6924 20.6672 4.68678 19.1723 4.09508 17.5002" stroke="currentColor" stroke-linecap="round" stroke-linejoin="round"/>
</svg>
