<svg width="28" height="28" viewBox="0 0 28 28" fill="none" xmlns="http://www.w3.org/2000/svg">
<path d="M26.8334 4.66684V11.6668M26.8334 11.6668H19.8334M26.8334 11.6668L21.4201 6.58017C20.1662 5.32567 18.615 4.40924 16.9111 3.91641C15.2073 3.42357 13.4064 3.37038 11.6764 3.7618C9.94646 4.15323 8.34385 4.97651 7.01813 6.15482C5.6924 7.33314 4.68678 8.82809 4.09508 10.5002M1.16675 23.3335V16.3335M1.16675 16.3335H8.16675M1.16675 16.3335L6.58008 21.4202C7.83395 22.6747 9.38518 23.5911 11.089 24.0839C12.7929 24.5768 14.5938 24.63 16.3237 24.2385C18.0537 23.8471 19.6563 23.0238 20.982 21.8455C22.3078 20.6672 23.3134 19.1723 23.9051 17.5002" stroke="currentColor" stroke-linecap="round" stroke-linejoin="round"/>
</svg>
