<svg width="28" height="28" viewBox="0 0 28 28" fill="none" xmlns="http://www.w3.org/2000/svg">
<path d="M26.8333 4.66685V11.6668M26.8333 11.6668H19.8333M26.8333 11.6668L21.4316 6.58018C19.8223 4.96987 17.7333 3.92623 15.4792 3.60651C13.2252 3.2868 10.9283 3.70833 8.93469 4.80759C6.94107 5.90685 5.35873 7.62429 4.42611 9.70109C3.4935 11.7779 3.26113 14.1016 3.76403 16.3219C4.26694 18.5423 5.47786 20.539 7.21432 22.0113C8.95079 23.4836 11.1187 24.3516 13.3914 24.4845C15.6641 24.6175 17.9185 24.0082 19.8148 22.7484C21.7111 21.4887 23.1466 19.6467 23.9049 17.5002" stroke="#757575" stroke-linecap="round" stroke-linejoin="round"/>
</svg>
