<svg width="28" height="28" viewBox="0 0 28 28" fill="none" xmlns="http://www.w3.org/2000/svg">
<path d="M1.16675 4.66653V11.6665M1.16675 11.6665H8.16675M1.16675 11.6665L6.58008 6.57986C8.19115 4.97152 10.2813 3.93032 12.5355 3.61316C14.7898 3.296 17.0861 3.72005 19.0784 4.82142C21.0707 5.92279 22.6511 7.64181 23.5815 9.71947C24.5119 11.7971 24.7418 14.1209 24.2367 16.3406C23.7315 18.5603 22.5187 20.5558 20.7809 22.0262C19.0431 23.4967 16.8745 24.3626 14.6017 24.4934C12.329 24.6242 10.0754 24.0129 8.18035 22.7515C6.28531 21.4901 4.85154 19.647 4.09508 17.4999" stroke="currentColor" stroke-linecap="round" stroke-linejoin="round"/>
</svg>
