<svg width="28" height="28" viewBox="0 0 28 28" fill="none" xmlns="http://www.w3.org/2000/svg">
<path d="M6.99992 7.00016H7.01159M6.99992 21.0002H7.01159M4.66659 2.3335H23.3333C24.6219 2.3335 25.6666 3.37816 25.6666 4.66683V9.3335C25.6666 10.6222 24.6219 11.6668 23.3333 11.6668H4.66659C3.37792 11.6668 2.33325 10.6222 2.33325 9.3335V4.66683C2.33325 3.37816 3.37792 2.3335 4.66659 2.3335ZM4.66659 16.3335H23.3333C24.6219 16.3335 25.6666 17.3782 25.6666 18.6668V23.3335C25.6666 24.6222 24.6219 25.6668 23.3333 25.6668H4.66659C3.37792 25.6668 2.33325 24.6222 2.33325 23.3335V18.6668C2.33325 17.3782 3.37792 16.3335 4.66659 16.3335Z" stroke="#757575" stroke-linecap="round" stroke-linejoin="round"/>
</svg>
