<svg width="28" height="28" viewBox="0 0 28 28" fill="none" xmlns="http://www.w3.org/2000/svg">
<path d="M3.5 7.00016L7 2.3335H21L24.5 7.00016M3.5 7.00016V23.3335C3.5 23.9523 3.74583 24.5458 4.18342 24.9834C4.621 25.421 5.21449 25.6668 5.83333 25.6668H22.1667C22.7855 25.6668 23.379 25.421 23.8166 24.9834C24.2542 24.5458 24.5 23.9523 24.5 23.3335V7.00016M3.5 7.00016H24.5M18.6667 11.6668C18.6667 12.9045 18.175 14.0915 17.2998 14.9667C16.4247 15.8418 15.2377 16.3335 14 16.3335C12.7623 16.3335 11.5753 15.8418 10.7002 14.9667C9.825 14.0915 9.33333 12.9045 9.33333 11.6668" stroke="currentColor" stroke-linecap="round" stroke-linejoin="round"/>
</svg>
