<svg width="28" height="28" viewBox="0 0 28 28" fill="none" xmlns="http://www.w3.org/2000/svg">
<path d="M16.9166 11.6668C15.9483 11.6668 15.1666 10.8852 15.1666 9.91683V4.0835C15.1666 3.11516 15.9483 2.3335 16.9166 2.3335C17.8849 2.3335 18.6666 3.11516 18.6666 4.0835V9.91683C18.6666 10.8852 17.8849 11.6668 16.9166 11.6668Z" stroke="#757575" stroke-width="2.33333" stroke-linecap="round" stroke-linejoin="round"/>
<path d="M23.9166 11.6668H22.1666V9.91683C22.1666 8.9485 22.9483 8.16683 23.9166 8.16683C24.8849 8.16683 25.6666 8.9485 25.6666 9.91683C25.6666 10.8852 24.8849 11.6668 23.9166 11.6668Z" stroke="#757575" stroke-width="2.33333" stroke-linecap="round" stroke-linejoin="round"/>
<path d="M11.0833 16.3335C12.0516 16.3335 12.8333 17.1152 12.8333 18.0835V23.9168C12.8333 24.8852 12.0516 25.6668 11.0833 25.6668C10.1149 25.6668 9.33325 24.8852 9.33325 23.9168V18.0835C9.33325 17.1152 10.1149 16.3335 11.0833 16.3335Z" stroke="#757575" stroke-width="2.33333" stroke-linecap="round" stroke-linejoin="round"/>
<path d="M4.08325 16.3335H5.83325V18.0835C5.83325 19.0518 5.05159 19.8335 4.08325 19.8335C3.11492 19.8335 2.33325 19.0518 2.33325 18.0835C2.33325 17.1152 3.11492 16.3335 4.08325 16.3335Z" stroke="#757575" stroke-width="2.33333" stroke-linecap="round" stroke-linejoin="round"/>
<path d="M16.3333 16.9168C16.3333 15.9485 17.1149 15.1668 18.0833 15.1668H23.9166C24.8849 15.1668 25.6666 15.9485 25.6666 16.9168C25.6666 17.8852 24.8849 18.6668 23.9166 18.6668H18.0833C17.1149 18.6668 16.3333 17.8852 16.3333 16.9168Z" stroke="#757575" stroke-width="2.33333" stroke-linecap="round" stroke-linejoin="round"/>
<path d="M18.0833 22.1668H16.3333V23.9168C16.3333 24.8852 17.1149 25.6668 18.0833 25.6668C19.0516 25.6668 19.8333 24.8852 19.8333 23.9168C19.8333 22.9485 19.0516 22.1668 18.0833 22.1668Z" stroke="#757575" stroke-width="2.33333" stroke-linecap="round" stroke-linejoin="round"/>
<path d="M11.6666 11.0835C11.6666 10.1152 10.8849 9.3335 9.91658 9.3335H4.08325C3.11492 9.3335 2.33325 10.1152 2.33325 11.0835C2.33325 12.0518 3.11492 12.8335 4.08325 12.8335H9.91658C10.8849 12.8335 11.6666 12.0518 11.6666 11.0835Z" stroke="#757575" stroke-width="2.33333" stroke-linecap="round" stroke-linejoin="round"/>
<path d="M9.91658 5.8335H11.6666V4.0835C11.6666 3.11516 10.8849 2.3335 9.91658 2.3335C8.94825 2.3335 8.16658 3.11516 8.16658 4.0835C8.16658 5.05183 8.94825 5.8335 9.91658 5.8335Z" stroke="#757575" stroke-width="2.33333" stroke-linecap="round" stroke-linejoin="round"/>
</svg>
