<svg width="28" height="28" viewBox="0 0 28 28" fill="none" xmlns="http://www.w3.org/2000/svg">
<path d="M14.0001 7.00016H14.0117M7.00008 2.3335H21.0001C22.2887 2.3335 23.3334 3.37816 23.3334 4.66683V23.3335C23.3334 24.6222 22.2887 25.6668 21.0001 25.6668H7.00008C5.71142 25.6668 4.66675 24.6222 4.66675 23.3335V4.66683C4.66675 3.37816 5.71142 2.3335 7.00008 2.3335ZM18.6667 16.3335C18.6667 18.9108 16.5774 21.0002 14.0001 21.0002C11.4228 21.0002 9.33342 18.9108 9.33342 16.3335C9.33342 13.7562 11.4228 11.6668 14.0001 11.6668C16.5774 11.6668 18.6667 13.7562 18.6667 16.3335Z" stroke="#757575" stroke-width="2.33333" stroke-linecap="round" stroke-linejoin="round"/>
</svg>
