<svg width="28" height="28" viewBox="0 0 28 28" fill="none" xmlns="http://www.w3.org/2000/svg">
<path d="M13.9999 25.6668C20.4432 25.6668 25.6666 20.4435 25.6666 14.0002C25.6666 7.55684 20.4432 2.3335 13.9999 2.3335C7.5566 2.3335 2.33325 7.55684 2.33325 14.0002C2.33325 20.4435 7.5566 25.6668 13.9999 25.6668Z" stroke="currentColor" stroke-linecap="round" stroke-linejoin="round"/>
<path d="M13.9999 21.0002C17.8659 21.0002 20.9999 17.8662 20.9999 14.0002C20.9999 10.1342 17.8659 7.00016 13.9999 7.00016C10.1339 7.00016 6.99992 10.1342 6.99992 14.0002C6.99992 17.8662 10.1339 21.0002 13.9999 21.0002Z" stroke="currentColor" stroke-linecap="round" stroke-linejoin="round"/>
<path d="M13.9999 16.3335C15.2886 16.3335 16.3333 15.2888 16.3333 14.0002C16.3333 12.7115 15.2886 11.6668 13.9999 11.6668C12.7113 11.6668 11.6666 12.7115 11.6666 14.0002C11.6666 15.2888 12.7113 16.3335 13.9999 16.3335Z" stroke="currentColor" stroke-linecap="round" stroke-linejoin="round"/>
</svg>
