<svg width="28" height="28" viewBox="0 0 28 28" fill="none" xmlns="http://www.w3.org/2000/svg">
<g clip-path="url(#clip0_1178_17958)">
<path d="M16.3334 17.2198V4.08317C16.3334 3.30962 16.0261 2.56776 15.4791 2.02078C14.9322 1.47379 14.1903 1.1665 13.4167 1.1665C12.6432 1.1665 11.9013 1.47379 11.3544 2.02078C10.8074 2.56776 10.5001 3.30962 10.5001 4.08317V17.2198C9.56357 17.8456 8.85312 18.7559 8.47367 19.8164C8.09421 20.8768 8.06585 22.0312 8.3928 23.1091C8.71974 24.1869 9.38464 25.131 10.2893 25.8019C11.194 26.4729 12.2904 26.8351 13.4167 26.8351C14.5431 26.8351 15.6395 26.4729 16.5442 25.8019C17.4489 25.131 18.1138 24.1869 18.4407 23.1091C18.7676 22.0312 18.7393 20.8768 18.3598 19.8164C17.9804 18.7559 17.2699 17.8456 16.3334 17.2198Z" stroke="#757575" stroke-width="2.33333" stroke-linecap="round" stroke-linejoin="round"/>
</g>
<defs>
<clipPath id="clip0_1178_17958">
<rect width="28" height="28" fill="white"/>
</clipPath>
</defs>
</svg>
