<svg width="28" height="28" viewBox="0 0 28 28" fill="none" xmlns="http://www.w3.org/2000/svg">
<path d="M8.16659 25.6668H4.66659C4.04775 25.6668 3.45425 25.421 3.01667 24.9834C2.57908 24.5458 2.33325 23.9523 2.33325 23.3335V15.1668C2.33325 14.548 2.57908 13.9545 3.01667 13.5169C3.45425 13.0793 4.04775 12.8335 4.66659 12.8335H8.16659M16.3333 10.5002V5.8335C16.3333 4.90524 15.9645 4.015 15.3081 3.35862C14.6517 2.70225 13.7615 2.3335 12.8333 2.3335L8.16659 12.8335V25.6668H21.3266C21.8893 25.6732 22.4354 25.476 22.8641 25.1115C23.2929 24.747 23.5755 24.2399 23.6599 23.6835L25.2699 13.1835C25.3207 12.8491 25.2981 12.5076 25.2038 12.1828C25.1095 11.858 24.9457 11.5575 24.7238 11.3023C24.5018 11.047 24.227 10.8431 23.9184 10.7046C23.6098 10.5661 23.2748 10.4963 22.9366 10.5002H16.3333Z" stroke="currentColor" stroke-linecap="round" stroke-linejoin="round"/>
</svg>
