<svg width="28" height="28" viewBox="0 0 28 28" fill="none" xmlns="http://www.w3.org/2000/svg">
<path d="M19.8334 2.33343H22.9484C23.6087 2.32175 24.2502 2.55292 24.7514 2.98305C25.2525 3.41318 25.5782 4.01233 25.6667 4.66676V12.8334C25.5782 13.4879 25.2525 14.087 24.7514 14.5171C24.2502 14.9473 23.6087 15.1784 22.9484 15.1668H19.8334M11.6667 17.5001V22.1668C11.6667 23.095 12.0355 23.9853 12.6918 24.6416C13.3482 25.298 14.2384 25.6668 15.1667 25.6668L19.8334 15.1668V2.33343H6.67337C6.11065 2.32707 5.5646 2.52429 5.13581 2.88876C4.70703 3.25322 4.42441 3.76037 4.34004 4.31676L2.73004 14.8168C2.67928 15.1512 2.70183 15.4926 2.79614 15.8175C2.89045 16.1423 3.05425 16.4428 3.2762 16.698C3.49815 16.9532 3.77294 17.1572 4.08154 17.2957C4.39013 17.4342 4.72514 17.5039 5.06337 17.5001H11.6667Z" stroke="#757575" stroke-linecap="round" stroke-linejoin="round"/>
</svg>
