<svg width="28" height="28" viewBox="0 0 28 28" fill="none" xmlns="http://www.w3.org/2000/svg">
<path d="M3.5 7.00016H5.83333M5.83333 7.00016H24.5M5.83333 7.00016L5.83333 23.3335C5.83333 23.9523 6.07917 24.5458 6.51675 24.9834C6.95434 25.421 7.54783 25.6668 8.16667 25.6668H19.8333C20.4522 25.6668 21.0457 25.421 21.4832 24.9834C21.9208 24.5458 22.1667 23.9523 22.1667 23.3335V7.00016L5.83333 7.00016ZM9.33333 7.00016V4.66683C9.33333 4.04799 9.57917 3.4545 10.0168 3.01691C10.4543 2.57933 11.0478 2.3335 11.6667 2.3335H16.3333C16.9522 2.3335 17.5457 2.57933 17.9832 3.01691C18.4208 3.4545 18.6667 4.04799 18.6667 4.66683V7.00016" stroke="#757575" stroke-linecap="round" stroke-linejoin="round"/>
</svg>
