<svg width="28" height="28" viewBox="0 0 28 28" fill="none" xmlns="http://www.w3.org/2000/svg">
<path d="M18.6667 18.6667V3.5H1.16675V18.6667H18.6667ZM18.6667 18.6667H26.8334V12.8333L23.3334 9.33333H18.6667L18.6667 18.6667ZM9.33341 21.5833C9.33341 23.1942 8.02758 24.5 6.41675 24.5C4.80592 24.5 3.50008 23.1942 3.50008 21.5833C3.50008 19.9725 4.80592 18.6667 6.41675 18.6667C8.02758 18.6667 9.33341 19.9725 9.33341 21.5833ZM24.5001 21.5833C24.5001 23.1942 23.1942 24.5 21.5834 24.5C19.9726 24.5 18.6667 23.1942 18.6667 21.5833C18.6667 19.9725 19.9726 18.6667 21.5834 18.6667C23.1942 18.6667 24.5001 19.9725 24.5001 21.5833Z" stroke="#757575" stroke-width="2.33333" stroke-linecap="round" stroke-linejoin="round"/>
</svg>
