<svg width="28" height="28" viewBox="0 0 28 28" fill="none" xmlns="http://www.w3.org/2000/svg">
<g clip-path="url(#clip0_1178_18047)">
<path d="M18.6666 18.6667L14 14.0001M14 14.0001L9.33329 18.6667M14 14.0001V24.5001M23.7883 21.4551C24.9262 20.8347 25.8251 19.8531 26.3431 18.6651C26.8612 17.4772 26.9689 16.1505 26.6492 14.8945C26.3295 13.6386 25.6007 12.5248 24.5777 11.7291C23.5548 10.9333 22.296 10.5009 21 10.5001H19.53C19.1768 9.13418 18.5186 7.86612 17.6049 6.79122C16.6911 5.71632 15.5456 4.86255 14.2544 4.2941C12.9632 3.72565 11.5599 3.45731 10.1501 3.50926C8.74025 3.5612 7.36053 3.93208 6.11466 4.59401C4.86879 5.25593 3.78918 6.19168 2.95701 7.33091C2.12484 8.47013 1.56176 9.78319 1.3101 11.1714C1.05843 12.5595 1.12474 13.9867 1.50404 15.3455C1.88333 16.7044 2.56574 17.9596 3.49995 19.0167" stroke="#757575" stroke-linecap="round" stroke-linejoin="round"/>
</g>
<defs>
<clipPath id="clip0_1178_18047">
<rect width="28" height="28" fill="white"/>
</clipPath>
</defs>
</svg>
