<svg width="28" height="28" viewBox="0 0 28 28" fill="none" xmlns="http://www.w3.org/2000/svg">
<path d="M18.6667 24.5V22.1667C18.6667 20.929 18.1751 19.742 17.2999 18.8668C16.4247 17.9917 15.2378 17.5 14.0001 17.5H5.83341C4.59574 17.5 3.40875 17.9917 2.53358 18.8668C1.65841 19.742 1.16675 20.929 1.16675 22.1667V24.5M21.0001 9.33333L26.8334 15.1667M26.8334 9.33333L21.0001 15.1667M14.5834 8.16667C14.5834 10.744 12.4941 12.8333 9.91675 12.8333C7.33942 12.8333 5.25008 10.744 5.25008 8.16667C5.25008 5.58934 7.33942 3.5 9.91675 3.5C12.4941 3.5 14.5834 5.58934 14.5834 8.16667Z" stroke="currentColor" stroke-linecap="round" stroke-linejoin="round"/>
</svg>
