<svg width="28" height="28" viewBox="0 0 28 28" fill="none" xmlns="http://www.w3.org/2000/svg">
<path d="M19.8334 24.5V22.1667C19.8334 20.929 19.3417 19.742 18.4666 18.8668C17.5914 17.9917 16.4044 17.5 15.1667 17.5H5.83341C4.59574 17.5 3.40875 17.9917 2.53358 18.8668C1.65841 19.742 1.16675 20.929 1.16675 22.1667V24.5M26.8334 24.5V22.1667C26.8326 21.1327 26.4885 20.1282 25.855 19.311C25.2215 18.4938 24.3346 17.9102 23.3334 17.6517M18.6667 3.65167C19.6706 3.90868 20.5603 4.49248 21.1957 5.31103C21.831 6.12957 22.1759 7.1363 22.1759 8.1725C22.1759 9.2087 21.831 10.2154 21.1957 11.034C20.5603 11.8525 19.6706 12.4363 18.6667 12.6933M15.1667 8.16667C15.1667 10.744 13.0774 12.8333 10.5001 12.8333C7.92275 12.8333 5.83341 10.744 5.83341 8.16667C5.83341 5.58934 7.92275 3.5 10.5001 3.5C13.0774 3.5 15.1667 5.58934 15.1667 8.16667Z" stroke="#757575" stroke-width="2.33333" stroke-linecap="round" stroke-linejoin="round"/>
</svg>
