<svg width="28" height="28" viewBox="0 0 28 28" fill="none" xmlns="http://www.w3.org/2000/svg">
<path d="M12.4367 5.83317H16.3334C16.9523 5.83317 17.5457 6.079 17.9833 6.51659C18.4209 6.95417 18.6667 7.54766 18.6667 8.1665V12.0632L19.8334 13.2298L26.8334 8.1665V19.8332M1.16675 1.1665L26.8334 26.8332M18.6667 18.6665V19.8332C18.6667 20.452 18.4209 21.0455 17.9833 21.4831C17.5457 21.9207 16.9523 22.1665 16.3334 22.1665H3.50008C2.88124 22.1665 2.28775 21.9207 1.85017 21.4831C1.41258 21.0455 1.16675 20.452 1.16675 19.8332V8.1665C1.16675 7.54766 1.41258 6.95417 1.85017 6.51659C2.28775 6.079 2.88124 5.83317 3.50008 5.83317H5.83341L18.6667 18.6665Z" stroke="#757575" stroke-width="2.33333" stroke-linecap="round" stroke-linejoin="round"/>
</svg>
