<svg width="28" height="28" viewBox="0 0 28 28" fill="none" xmlns="http://www.w3.org/2000/svg">
<path d="M13.9999 10.4999V13.9999L15.7499 15.7499M19.2616 20.2415L18.8533 24.7099C18.8007 25.2916 18.5318 25.8325 18.0998 26.2256C17.6678 26.6188 17.104 26.8356 16.5199 26.8332H11.4683C10.8841 26.8356 10.3204 26.6188 9.88836 26.2256C9.45634 25.8325 9.18748 25.2916 9.13492 24.7099L8.72658 20.2415M8.73825 7.75819L9.14658 3.28986C9.19897 2.71011 9.46617 2.17089 9.89572 1.77803C10.3253 1.38518 10.8861 1.16707 11.4683 1.16652H16.5433C17.1274 1.16415 17.6911 1.38095 18.1231 1.77409C18.5552 2.16723 18.824 2.70811 18.8766 3.28986L19.2849 7.75819M22.1666 13.9999C22.1666 18.5102 18.5102 22.1665 13.9999 22.1665C9.48959 22.1665 5.83325 18.5102 5.83325 13.9999C5.83325 9.48953 9.48959 5.83319 13.9999 5.83319C18.5102 5.83319 22.1666 9.48953 22.1666 13.9999Z" stroke="#757575" stroke-width="2.33333" stroke-linecap="round" stroke-linejoin="round"/>
</svg>
