<svg width="28" height="28" viewBox="0 0 28 28" fill="none" xmlns="http://www.w3.org/2000/svg">
<path d="M1.16675 1.1665L26.8334 26.8332M19.5067 12.9032C20.4624 13.3695 21.356 13.9535 22.1667 14.6415M5.83341 14.6415C7.56251 13.1958 9.6436 12.2338 11.8651 11.8532M12.4951 5.8915C14.9946 5.6901 17.509 5.99436 19.8883 6.78613C22.2676 7.57789 24.463 8.84093 26.3434 10.4998M1.65675 10.4998C3.27511 9.06933 5.13073 7.93227 7.14008 7.13984M9.95175 18.7948C11.1362 17.9534 12.553 17.5013 14.0059 17.5013C15.4588 17.5013 16.8757 17.9534 18.0601 18.7948M14.0001 23.3332H14.0117" stroke="#757575" stroke-width="2.33333" stroke-linecap="round" stroke-linejoin="round"/>
</svg>
