<?xml version="1.0" encoding="UTF-8"?>
<svg width="100%" height="100%" viewBox="0 0 12 12" version="1.1" xmlns="http://www.w3.org/2000/svg" xmlns:xlink="http://www.w3.org/1999/xlink">
    <!-- Generator: Sketch 55.1 (78136) - https://sketchapp.com -->
    <title>icon / 12 px / attachment</title>
    <desc>Created with Sketch.</desc>
    <g id="icon-/-12-px-/-attachment" stroke="none" stroke-width="1" fill="none" fill-rule="evenodd">
        <rect id="Rectangle" x="0" y="0" width="12" height="12"></rect>
        <path d="M10.8938551,5.29766853 L5.99679889,10.1947247 C4.94615622,11.2453674 3.24272791,11.2453674 2.19208524,10.1947247 C1.14144258,9.14408204 1.14144258,7.44065372 2.19208524,6.39001106 L7.08914142,1.49295489 C7.7233569,0.858739428 8.75162335,0.858739436 9.38583883,1.49295491 C10.0200543,2.12717039 10.0200543,3.15543684 9.38583884,3.78965233 L4.48364963,8.68651297 C4.26566569,8.9044968 3.91256108,8.9044968 3.69477278,8.68670849 C3.47698447,8.46892019 3.47698447,8.11581558 3.69477278,7.89802727 L8.2186094,3.3795192 L7.49969842,2.65976045 L2.97564979,7.1784804 C2.36037173,7.79375833 2.36037173,8.79097743 2.97543779,9.40604349 C3.59050384,10.0211095 4.58772294,10.0211095 5.20278899,9.40604349 L10.1049782,4.50918283 C11.136667,3.47749407 11.136667,1.80511314 10.1051738,0.773619921 C9.0736806,-0.257873296 7.40129967,-0.257873309 6.36980643,0.773619893 L1.47275025,5.67067607 C0.0248298479,7.11859648 0.0248298479,9.46613929 1.47275025,10.9140597 C2.92067066,12.3619801 5.26821347,12.3619801 6.71613388,10.9140597 L11.6131901,6.01700352 L10.8938551,5.29766853 Z" id="Path" fill="#2196F3" fill-rule="nonzero"></path>
    </g>
</svg>
