<?xml version="1.0" encoding="UTF-8"?>
<svg width="100%" height="100%" viewBox="0 0 16 16" version="1.1" xmlns="http://www.w3.org/2000/svg" xmlns:xlink="http://www.w3.org/1999/xlink">
    <title>icon / m / calendar</title>
    <g id="icon-/-m-/-calendar" stroke="none" stroke-width="1" fill="none" fill-rule="evenodd">
        <rect id="Rectangle" x="0" y="0" width="16" height="16"></rect>
        <g id="calendar" transform="translate(0.700000, 0.000000)" fill="#90A4AE">
            <path d="M10.1,-1.0658141e-14 C10.6128358,-1.0658141e-14 11.0355072,0.38604019 11.0932723,0.883378875 L11.1,1 L11.099,1.4 L11.6,1.4 C13.1976809,1.4 14.5036609,2.64891996 14.5949073,4.22372721 L14.6,4.4 L14.6,13 C14.6,14.6568542 13.2568542,16 11.6,16 L11.6,16 L3,16 C1.34314575,16 -2.71782596e-13,14.6568542 -2.71782596e-13,13 L-2.71782596e-13,13 L-2.71782596e-13,4.4 C-2.71782596e-13,2.74314575 1.34314575,1.4 3,1.4 L3,1.4 L3.5,1.4 L3.5,1 C3.5,0.44771525 3.94771525,-1.0658141e-14 4.5,-1.0658141e-14 C5.01283584,-1.0658141e-14 5.43550716,0.38604019 5.49327227,0.883378875 L5.5,1 L5.5,1.4 L9.099,1.4 L9.1,1 C9.1,0.44771525 9.54771525,-1.0658141e-14 10.1,-1.0658141e-14 Z M12.599,7.6 L1.999,7.6 L2,13 C2,13.5128358 2.38604019,13.9355072 2.88337887,13.9932723 L3,14 L11.6,14 C12.1522847,14 12.6,13.5522847 12.6,13 L12.6,13 L12.599,7.6 Z M3.5,3.4 L3,3.4 C2.44771525,3.4 2,3.84771525 2,4.4 L2,4.4 L1.999,5.6 L12.599,5.6 L12.6,4.4 C12.6,3.88716416 12.2139598,3.46449284 11.7166211,3.40672773 L11.6,3.4 L11.099,3.4 L11.1,3.8 C11.1,4.35228475 10.6522847,4.8 10.1,4.8 C9.58716416,4.8 9.16449284,4.41395981 9.10672773,3.91662113 L9.1,3.8 L9.099,3.4 L5.5,3.4 L5.5,3.8 C5.5,4.35228475 5.05228475,4.8 4.5,4.8 C3.98716416,4.8 3.56449284,4.41395981 3.50672773,3.91662113 L3.5,3.8 L3.5,3.4 Z" id="Combined-Shape"></path>
        </g>
    </g>
</svg>