<?xml version="1.0" encoding="UTF-8"?>
<svg width="100%" height="100%" viewBox="0 0 16 16" version="1.1" xmlns="http://www.w3.org/2000/svg" xmlns:xlink="http://www.w3.org/1999/xlink">
    <title>icon / m / close</title>
    <g id="icon-/-m-/-close" stroke="none" stroke-width="1" fill="none" fill-rule="evenodd">
        <rect id="Rectangle" x="0" y="0" width="16" height="16"></rect>
        <path d="M8,0 C12.418278,0 16,3.581722 16,8 C16,12.418278 12.418278,16 8,16 C3.581722,16 0,12.418278 0,8 C0,3.581722 3.581722,0 8,0 Z M5.61289944,4.20970461 C5.22060824,3.90467972 4.65337718,3.93240926 4.29289322,4.29289322 C3.90236893,4.68341751 3.90236893,5.31658249 4.29289322,5.70710678 L4.29289322,5.70710678 L6.585,8 L4.29289322,10.2928932 L4.20970461,10.3871006 C3.90467972,10.7793918 3.93240926,11.3466228 4.29289322,11.7071068 C4.68341751,12.0976311 5.31658249,12.0976311 5.70710678,11.7071068 L5.70710678,11.7071068 L8,9.415 L10.2928932,11.7071068 L10.3871006,11.7902954 C10.7793918,12.0953203 11.3466228,12.0675907 11.7071068,11.7071068 C12.0976311,11.3165825 12.0976311,10.6834175 11.7071068,10.2928932 L11.7071068,10.2928932 L9.415,8 L11.7071068,5.70710678 L11.7902954,5.61289944 C12.0953203,5.22060824 12.0675907,4.65337718 11.7071068,4.29289322 C11.3165825,3.90236893 10.6834175,3.90236893 10.2928932,4.29289322 L10.2928932,4.29289322 L8,6.585 L5.70710678,4.29289322 Z" id="Combined-Shape" fill="#F44336"></path>
    </g>
</svg>