<?xml version="1.0" encoding="UTF-8"?>
<svg width="100%" height="100%" viewBox="0 0 16 16" version="1.1" xmlns="http://www.w3.org/2000/svg" xmlns:xlink="http://www.w3.org/1999/xlink">
    <!-- Generator: Sketch 62 (91390) - https://sketch.com -->
    <title>icon / m / closed eye</title>
    <desc>Created with Sketch.</desc>
    <g id="icon-/-m-/-closed-eye" stroke="none" stroke-width="1" fill="none" fill-rule="evenodd">
        <rect id="Rectangle" x="0" y="0" width="16" height="16"></rect>
        <path d="M15.1084133,7.57841633 C15.224642,7.34595885 15.507308,7.25173685 15.7397655,7.36796558 C15.972223,7.48419432 16.066445,7.76686034 15.9502162,7.99931782 C15.9254935,8.04876336 15.8794811,8.13571582 15.8124589,8.25486636 L15.8124589,8.25486636 L15.6958209,8.45710287 C15.6135401,8.59643319 15.5222271,8.7445137 15.421955,8.89977382 C14.9930768,9.56384331 14.4869399,10.2276294 13.9047329,10.8486502 C13.8278793,10.9306273 13.7504253,11.011131 13.6723726,11.090125 L14.6843471,12.3704767 L14.7308044,12.4415703 C14.8355411,12.6385714 14.787865,12.8882823 14.6065301,13.0314152 C14.4025284,13.1924398 14.1066162,13.1575999 13.9455916,12.9535982 L13.9455916,12.9535982 L12.9835092,11.733886 C12.1353895,12.4624965 11.2229089,13.016319 10.247896,13.3546591 L10.7350851,14.8314839 L10.7544252,14.9141793 C10.7854671,15.1351219 10.6552601,15.3534672 10.4359067,15.4259479 C10.1891342,15.5074888 9.92298359,15.3735421 9.8414427,15.1267696 L9.8414427,15.1267696 L9.33815702,13.6029907 C8.90346833,13.6901348 8.45736783,13.7353145 8,13.7353145 C7.53843293,13.7353145 7.08834103,13.6893013 6.6498728,13.6005798 L6.14556258,15.1267696 C6.06402169,15.3735421 5.79787107,15.5074888 5.55109855,15.4259479 C5.33174519,15.3534672 5.20153817,15.1351219 5.23258011,14.9141793 L5.25192021,14.8314839 L5.74106812,13.3508194 C4.77476337,13.0137266 3.86994522,12.4649293 3.02839621,11.7440987 L2.07451371,12.9535982 C1.91348916,13.1575999 1.61757692,13.1924398 1.41357523,13.0314152 C1.23224039,12.8882823 1.18456428,12.6385714 1.28930098,12.4415703 L1.33575822,12.3704767 L2.3385455,11.1011609 C2.25679626,11.0186323 2.17570285,10.9344483 2.09526713,10.8486502 C1.51306014,10.2276294 1.00692323,9.56384331 0.578045021,8.89977382 C0.427636782,8.66688364 0.297386746,8.45014758 0.187541058,8.25486636 L0.187541058,8.25486636 L0.141218139,8.17162354 L0.0497837658,7.99931782 C-0.0664449712,7.76686034 0.0277770367,7.48419432 0.260234511,7.36796558 C0.492691985,7.25173685 0.775358008,7.34595885 0.891586745,7.57841633 C0.947468407,7.69017965 1.04511948,7.86732961 1.18336149,8.09414919 L1.18336149,8.09414919 L1.36866013,8.38916823 C1.76864824,9.00850466 2.24110835,9.62812447 2.78188154,10.2049492 C4.30515413,11.8297733 6.0530872,12.7941502 8,12.7941502 C9.9469128,12.7941502 11.6948459,11.8297733 13.2181185,10.2049492 C13.7588917,9.62812447 14.2313518,9.00850466 14.6313399,8.38916823 C14.8018661,8.12512766 14.9322727,7.90446992 15.0213814,7.74291201 L15.0213814,7.74291201 Z" id="Combined-Shape" fill="#90A4AE"></path>
    </g>
</svg>