<?xml version="1.0" encoding="UTF-8"?>
<svg width="100%" height="100%" viewBox="0 0 16 16" version="1.1" xmlns="http://www.w3.org/2000/svg" xmlns:xlink="http://www.w3.org/1999/xlink">
    <title>icon / m / copy</title>
    <g id="icon-/-m-/-copy" stroke="none" stroke-width="1" fill="none" fill-rule="evenodd">
        <rect id="Rectangle" x="0" y="0" width="16" height="16"></rect>
        <path d="M13.6,4.9 C14.9254834,4.9 16,5.9745166 16,7.3 L16,7.3 L16,13.6 C16,14.9254834 14.9254834,16 13.6,16 L13.6,16 L7.3,16 C5.9745166,16 4.9,14.9254834 4.9,13.6 L4.9,13.6 L4.9,7.3 C4.9,5.9745166 5.9745166,4.9 7.3,4.9 L7.3,4.9 Z M13.6,6.9 L7.3,6.9 C7.0790861,6.9 6.9,7.0790861 6.9,7.3 L6.9,7.3 L6.9,13.6 C6.9,13.8209139 7.0790861,14 7.3,14 L7.3,14 L13.6,14 C13.8209139,14 14,13.8209139 14,13.6 L14,13.6 L14,7.3 C14,7.0790861 13.8209139,6.9 13.6,6.9 L13.6,6.9 Z M8.7,-2.26485497e-13 C9.97025492,-2.26485497e-13 11.0100212,0.986839031 11.0944631,2.23568127 L11.1,2.4 L11.1,3.1 C11.1,3.65228475 10.6522847,4.1 10.1,4.1 C9.58716416,4.1 9.16449284,3.71395981 9.10672773,3.21662113 L9.1,3.1 L9.1,2.4 C9.1,2.20670034 8.9628872,2.04542508 8.78061395,2.00812658 L8.7,2 L2.4,2 C2.20670034,2 2.04542508,2.1371128 2.00812658,2.31938605 L2,2.4 L2,8.7 C2,8.89329966 2.1371128,9.05457492 2.31938605,9.09187342 L2.4,9.1 L3.1,9.1 C3.65228475,9.1 4.1,9.54771525 4.1,10.1 C4.1,10.6128358 3.71395981,11.0355072 3.21662113,11.0932723 L3.1,11.1 L2.4,11.1 C1.12974508,11.1 0.0899787563,10.113161 0.00553686671,8.86431873 L-2.26485497e-13,8.7 L-2.26485497e-13,2.4 C-2.26485497e-13,1.12974508 0.986839031,0.0899787563 2.23568127,0.00553686671 L2.4,-2.26485497e-13 L8.7,-2.26485497e-13 Z" id="Combined-Shape" fill="#90A4AE" fill-rule="nonzero"></path>
    </g>
</svg>