<?xml version="1.0" encoding="UTF-8"?>
<svg width="100%" height="100%" viewBox="0 0 16 16" version="1.1" xmlns="http://www.w3.org/2000/svg" xmlns:xlink="http://www.w3.org/1999/xlink">
    <!-- Generator: Sketch 55.2 (78181) - https://sketchapp.com -->
    <title>icon / 16 px / duplicate</title>
    <desc>Created with Sketch.</desc>
    <g id="icon-/-16-px-/-duplicate" stroke="none" stroke-width="1" fill="none" fill-rule="evenodd">
        <path d="M7.75,5.25 L13.5,5.25 C14.8807119,5.25 16,6.36928813 16,7.75 L16,13.5 C16,14.8807119 14.8807119,16 13.5,16 L7.75,16 C6.36928813,16 5.25,14.8807119 5.25,13.5 L5.25,7.75 C5.25,6.36928813 6.36928813,5.25 7.75,5.25 Z M7.75,6.25 C6.92157288,6.25 6.25,6.92157288 6.25,7.75 L6.25,13.5 C6.25,14.3284271 6.92157288,15 7.75,15 L13.5,15 C14.3284271,15 15,14.3284271 15,13.5 L15,7.75 C15,6.92157288 14.3284271,6.25 13.5,6.25 L7.75,6.25 Z M3.25,9.75 L3.25,10.75 L2,10.75 C0.8954305,10.75 0,9.8545695 0,8.75 L0,2 C0,0.8954305 0.8954305,0 2,0 L8.75,0 C9.8545695,0 10.75,0.8954305 10.75,2 L10.75,3.25 L9.75,3.25 L9.75,2 C9.75,1.44771525 9.30228475,1 8.75,1 L2,1 C1.44771525,1 1,1.44771525 1,2 L1,8.75 C1,9.30228475 1.44771525,9.75 2,9.75 L3.25,9.75 Z" id="Combined-Shape" fill="#90A4AE" fill-rule="nonzero"></path>
    </g>
</svg>