<?xml version="1.0" encoding="UTF-8"?>
<svg width="100%" height="100%" viewBox="0 0 16 16" version="1.1" xmlns="http://www.w3.org/2000/svg" xmlns:xlink="http://www.w3.org/1999/xlink">
    <title>icon / m / edit</title>
    <g id="icon-/-m-/-edit" stroke="none" stroke-width="1" fill="none" fill-rule="evenodd">
        <rect id="Rectangle" x="0" y="0" width="16" height="16"></rect>
        <path d="M7.25961671,1.48076658 C7.79934035,1.48076658 8.23687281,1.91829903 8.23687281,2.45802267 C8.23687281,2.95919462 7.85961268,3.37225275 7.37358542,3.42870405 L7.25961671,3.43527877 L2.37333623,3.43527877 C2.16772723,3.43527877 1.99672264,3.58343791 1.96126001,3.77881866 L1.95451219,3.85410281 L1.95451219,13.6266638 C1.95451219,13.8322728 2.10267133,14.0032774 2.29805208,14.03874 L2.37333623,14.0454878 L12.1458972,14.0454878 C12.3515062,14.0454878 12.5225108,13.8973287 12.5579734,13.7019479 L12.5647212,13.6266638 L12.5647212,8.74038329 C12.5647212,8.20065965 13.0022537,7.76312719 13.5419773,7.76312719 C14.0431493,7.76312719 14.4562074,8.14038732 14.5126587,8.62641458 L14.5192334,8.74038329 L14.5192334,13.6266638 C14.5192334,14.8849909 13.5399608,15.9145966 12.3019447,15.9949517 L12.1458972,16 L2.37333623,16 C1.11500912,16 0.0854033918,15.0207274 0.00504825675,13.7827113 L-5.83533222e-13,13.6266638 L-5.83533222e-13,3.85410281 C-5.83533222e-13,2.5957757 0.979272645,1.56616997 2.21728872,1.48581483 L2.37333623,1.48076658 L7.25961671,1.48076658 Z M11.8038928,0.719938142 C12.7638104,-0.239979395 14.3201443,-0.239979379 15.2800618,0.719938179 C16.2399794,1.67985574 16.2399794,3.2361896 15.2800618,4.19610719 L15.2800618,4.19610719 L8.64868119,10.8274878 C8.5234372,10.9527318 8.36650954,11.0415828 8.1946762,11.0845411 L8.1946762,11.0845411 L5.40251593,11.7825812 C4.68679265,11.961512 4.03848802,11.3132074 4.21741884,10.5974841 L4.21741884,10.5974841 L4.9154589,7.8053238 C4.95841724,7.63349046 5.04726817,7.4765628 5.17251216,7.35131881 L5.17251216,7.35131881 Z M13.898013,2.101987 C13.7013799,1.90535392 13.3825747,1.90535392 13.1859416,2.10198698 L13.1859416,2.10198698 L6.74599883,8.54121828 L6.5085256,9.4911112 L7.45744127,9.25363797 L13.898013,2.81405838 C14.072798,2.63927341 14.0922185,2.36795739 13.9562747,2.17172108 L13.9562747,2.17172108 Z" id="Combined-Shape" fill="#90A4AE"></path>
    </g>
</svg>