<svg width="24" height="24" viewBox="0 0 24 24" fill="none" xmlns="http://www.w3.org/2000/svg">
<path d="M16.6168 3.75197C16.8552 3.51355 17.1383 3.32442 17.4498 3.19539C17.7613 3.06635 18.0952 2.99994 18.4324 2.99994C18.7696 2.99994 19.1035 3.06635 19.415 3.19539C19.7265 3.32442 20.0095 3.51355 20.248 3.75197C20.4864 3.9904 20.6755 4.27345 20.8046 4.58497C20.9336 4.89648 21 5.23037 21 5.56755C21 5.90473 20.9336 6.23862 20.8046 6.55013C20.6755 6.86165 20.4864 7.1447 20.248 7.38313L7.99283 19.6383L3 20.9999L4.36168 16.0071L16.6168 3.75197Z" stroke="#677A83" stroke-width="2" stroke-linecap="round" stroke-linejoin="round"/>
</svg>
