<?xml version="1.0" encoding="UTF-8"?>
<svg width="100%" height="100%" viewBox="0 0 16 16" version="1.1" xmlns="http://www.w3.org/2000/svg" xmlns:xlink="http://www.w3.org/1999/xlink">
    <title>icon / m / exclude</title>
    <g id="icon-/-m-/-exclude" stroke="none" stroke-width="1" fill="none" fill-rule="evenodd">
        <path d="M8,0 C12.418278,0 16,3.581722 16,8 C16,12.418278 12.418278,16 8,16 C3.581722,16 0,12.418278 0,8 C0,3.581722 3.581722,0 8,0 Z M8,2 C4.6862915,2 2,4.6862915 2,8 C2,11.3137085 4.6862915,14 8,14 C11.3137085,14 14,11.3137085 14,8 C14,4.6862915 11.3137085,2 8,2 Z M6.21289944,4.80970461 L6.30710678,4.89289322 L8,6.585 L9.69289322,4.89289322 C10.0834175,4.50236893 10.7165825,4.50236893 11.1071068,4.89289322 C11.4675907,5.25337718 11.4953203,5.82060824 11.1902954,6.21289944 L11.1071068,6.30710678 L9.415,8 L11.1071068,9.69289322 C11.4976311,10.0834175 11.4976311,10.7165825 11.1071068,11.1071068 C10.7466228,11.4675907 10.1793918,11.4953203 9.78710056,11.1902954 L9.69289322,11.1071068 L8,9.415 L6.30710678,11.1071068 C5.91658249,11.4976311 5.28341751,11.4976311 4.89289322,11.1071068 C4.53240926,10.7466228 4.50467972,10.1793918 4.80970461,9.78710056 L4.89289322,9.69289322 L6.585,8 L4.89289322,6.30710678 C4.50236893,5.91658249 4.50236893,5.28341751 4.89289322,4.89289322 C5.25337718,4.53240926 5.82060824,4.50467972 6.21289944,4.80970461 Z" id="Combined-Shape" fill="#90A4AE"></path>
    </g>
</svg>