<svg width="24" height="24" viewBox="0 0 24 24" fill="none" xmlns="http://www.w3.org/2000/svg">
<path fill-rule="evenodd" clip-rule="evenodd" d="M14.3822 2.3951C14.2229 2.22866 13.9985 2.125 13.75 2.125C13.7482 2.125 13.7465 2.12501 13.7448 2.12502H6.74991C6.05374 2.12502 5.38609 2.40157 4.89382 2.89383C4.40155 3.3861 4.125 4.05376 4.125 4.74993V18.7495C4.125 19.4456 4.40155 20.1133 4.89382 20.6056C5.38609 21.0978 6.05374 21.3744 6.74991 21.3744H17.2496C17.9457 21.3744 18.6134 21.0978 19.1057 20.6056C19.5979 20.1133 19.8745 19.4456 19.8745 18.7495V8.2724C19.8747 8.26489 19.8748 8.25736 19.8748 8.2498C19.8748 8.00122 19.7711 7.77685 19.6047 7.61756L14.3822 2.3951ZM12.875 3.87496H6.74991C6.51786 3.87496 6.2953 3.96714 6.13122 4.13123C5.96713 4.29532 5.87494 4.51787 5.87494 4.74993V18.7495C5.87494 18.9815 5.96713 19.2041 6.13122 19.3682C6.29531 19.5323 6.51786 19.6244 6.74991 19.6244H17.2496C17.4816 19.6244 17.7042 19.5323 17.8683 19.3682C18.0324 19.2041 18.1245 18.9815 18.1245 18.7495V9.12477H13.75C13.2667 9.12477 12.875 8.73303 12.875 8.2498V3.87496ZM16.8871 7.37483H14.6249V5.11264L16.8871 7.37483Z" fill="#677A83"/>
</svg>
