<?xml version="1.0" encoding="UTF-8"?>
<svg width="100%" height="100%" viewBox="0 0 16 16" version="1.1" xmlns="http://www.w3.org/2000/svg" xmlns:xlink="http://www.w3.org/1999/xlink">
    <title>icon / m / filter</title>
    <g id="icon-/-m-/-filter" stroke="none" stroke-width="1" fill="none" fill-rule="evenodd">
        <rect id="Rectangle" x="0" y="0" width="16" height="16"></rect>
        <path d="M4.81818182,8.27272727 C5.37046657,8.27272727 5.81818182,8.72044252 5.81818182,9.27272727 C5.81818182,9.78556311 5.43214163,10.2082344 4.93480294,10.2659995 L4.81818182,10.2727273 L3.909,10.2727273 L3.90909091,13.7272727 C3.90909091,14.2795575 3.46137566,14.7272727 2.90909091,14.7272727 C2.39625507,14.7272727 1.97358375,14.3412325 1.91581864,13.8438939 L1.90909091,13.7272727 L1.909,10.2727273 L1,10.2727273 C0.44771525,10.2727273 9.91207116e-13,9.82501202 9.91207116e-13,9.27272727 C9.91207116e-13,8.75989143 0.38604019,8.33722011 0.883378875,8.279455 L1,8.27272727 L4.81818182,8.27272727 Z M8,7 C8.51283584,7 8.93550716,7.38604019 8.99327227,7.88337887 L9,8 L9,13.7272727 C9,14.2795575 8.55228475,14.7272727 8,14.7272727 C7.48716416,14.7272727 7.06449284,14.3412325 7.00672773,13.8438939 L7,13.7272727 L7,8 C7,7.44771525 7.44771525,7 8,7 Z M15,9.54545455 C15.5522847,9.54545455 16,9.9931698 16,10.5454545 C16,11.0582904 15.6139598,11.4809617 15.1166211,11.5387268 L15,11.5454545 L14.09,11.5447273 L14.0909091,13.7272727 C14.0909091,14.2795575 13.6431938,14.7272727 13.0909091,14.7272727 C12.5780733,14.7272727 12.1554019,14.3412325 12.0976368,13.8438939 L12.0909091,13.7272727 L12.09,11.5447273 L11.1818182,11.5454545 C10.6295334,11.5454545 10.1818182,11.0977393 10.1818182,10.5454545 C10.1818182,10.0326187 10.5678584,9.60994738 11.0651971,9.55218228 L11.1818182,9.54545455 L15,9.54545455 Z M13.0909091,1.27272727 C13.6037449,1.27272727 14.0264163,1.65876746 14.0841814,2.15610615 L14.0909091,2.27272727 L14.0909091,8 C14.0909091,8.55228475 13.6431938,9 13.0909091,9 C12.5780733,9 12.1554019,8.61395981 12.0976368,8.11662113 L12.0909091,8 L12.0909091,2.27272727 C12.0909091,1.72044252 12.5386243,1.27272727 13.0909091,1.27272727 Z M2.90909091,1.27272727 C3.42192675,1.27272727 3.84459807,1.65876746 3.90236318,2.15610615 L3.90909091,2.27272727 L3.90909091,6.72727273 C3.90909091,7.27955748 3.46137566,7.72727273 2.90909091,7.72727273 C2.39625507,7.72727273 1.97358375,7.34123254 1.91581864,6.84389385 L1.90909091,6.72727273 L1.90909091,2.27272727 C1.90909091,1.72044252 2.35680616,1.27272727 2.90909091,1.27272727 Z M8,1.27272727 C8.51283584,1.27272727 8.93550716,1.65876746 8.99327227,2.15610615 L9,2.27272727 L9,4.45372727 L9.90909091,4.45454545 C10.4613757,4.45454545 10.9090909,4.9022607 10.9090909,5.45454545 C10.9090909,5.96738129 10.5230507,6.39005262 10.025712,6.44781772 L9.90909091,6.45454545 L6.09090909,6.45454545 C5.53862434,6.45454545 5.09090909,6.0068302 5.09090909,5.45454545 C5.09090909,4.94170962 5.47694928,4.51903829 5.97428797,4.46127319 L6.09090909,4.45454545 L7,4.45372727 L7,2.27272727 C7,1.72044252 7.44771525,1.27272727 8,1.27272727 Z" id="Combined-Shape" fill="#90A4AE"></path>
    </g>
</svg>