<?xml version="1.0" encoding="UTF-8"?>
<svg width="100%" height="100%" viewBox="0 0 16 16" version="1.1" xmlns="http://www.w3.org/2000/svg" xmlns:xlink="http://www.w3.org/1999/xlink">
    <title>icon / m / info</title>
    <g id="icon-/-m-/-info" stroke="none" stroke-width="1" fill="none" fill-rule="evenodd">
        <path d="M8,0 C12.418278,0 16,3.581722 16,8 C16,12.418278 12.418278,16 8,16 C3.581722,16 0,12.418278 0,8 C0,3.581722 3.581722,0 8,0 Z M8,2 C4.6862915,2 2,4.6862915 2,8 C2,11.3137085 4.6862915,14 8,14 C11.3137085,14 14,11.3137085 14,8 C14,4.6862915 11.3137085,2 8,2 Z M8,7 C8.51283584,7 8.93550716,7.38604019 8.99327227,7.88337887 L9,8 L9,11.2 C9,11.7522847 8.55228475,12.2 8,12.2 C7.48716416,12.2 7.06449284,11.8139598 7.00672773,11.3166211 L7,11.2 L7,8 C7,7.44771525 7.44771525,7 8,7 Z M8.008,3.8 C8.56028475,3.8 9.008,4.24771525 9.008,4.8 C9.008,5.31283584 8.62195981,5.73550716 8.12462113,5.79327227 L8.008,5.8 C7.44771525,5.8 7,5.35228475 7,4.8 C7,4.28716416 7.38604019,3.86449284 7.88337887,3.80672773 L8.008,3.8 Z" id="Combined-Shape" fill="#90A4AE"></path>
    </g>
</svg>