<?xml version="1.0" encoding="UTF-8"?>
<svg width="100%" height="100%" viewBox="0 0 16 16" version="1.1" xmlns="http://www.w3.org/2000/svg" xmlns:xlink="http://www.w3.org/1999/xlink">
    <title>icon / m / loader</title>
    <g id="icon-/-m-/-loader" stroke="none" stroke-width="1" fill="none" fill-rule="evenodd">
        <path d="M8,11.2 C8.51283584,11.2 8.93550716,11.5860402 8.99327227,12.0833789 L9,12.2 L9,15 C9,15.5522847 8.55228475,16 8,16 C7.48716416,16 7.06449284,15.6139598 7.00672773,15.1166211 L7,15 L7,12.2 C7,11.6477153 7.44771525,11.2 8,11.2 Z M11.5808994,10.1777046 L11.6751068,10.2608932 L13.6561068,12.2418932 C14.0466311,12.6324175 14.0466311,13.2655825 13.6561068,13.6561068 C13.2956228,14.0165907 12.7283918,14.0443203 12.3361006,13.7392954 L12.2418932,13.6561068 L10.2608932,11.6751068 C9.87036893,11.2845825 9.87036893,10.6514175 10.2608932,10.2608932 C10.6213772,9.90040926 11.1886082,9.87267972 11.5808994,10.1777046 Z M5.73910678,10.2608932 C6.09959074,10.6213772 6.12732028,11.1886082 5.82229539,11.5808994 L5.73910678,11.6751068 L3.75810678,13.6561068 C3.36758249,14.0466311 2.73441751,14.0466311 2.34389322,13.6561068 C1.98340926,13.2956228 1.95567972,12.7283918 2.26070461,12.3361006 L2.34389322,12.2418932 L4.32489322,10.2608932 C4.71541751,9.87036893 5.34858249,9.87036893 5.73910678,10.2608932 Z M3.8,7 C4.35228475,7 4.8,7.44771525 4.8,8 C4.8,8.51283584 4.41395981,8.93550716 3.91662113,8.99327227 L3.8,9 L1,9 C0.44771525,9 1.00142117e-12,8.55228475 1.00142117e-12,8 C1.00142117e-12,7.48716416 0.38604019,7.06449284 0.883378875,7.00672773 L1,7 L3.8,7 Z M15,7 C15.5522847,7 16,7.44771525 16,8 C16,8.51283584 15.6139598,8.93550716 15.1166211,8.99327227 L15,9 L12.2,9 C11.6477153,9 11.2,8.55228475 11.2,8 C11.2,7.48716416 11.5860402,7.06449284 12.0833789,7.00672773 L12.2,7 L15,7 Z M3.66389944,2.26070461 L3.75810678,2.34389322 L5.73910678,4.32489322 C6.12963107,4.71541751 6.12963107,5.34858249 5.73910678,5.73910678 C5.37862282,6.09959074 4.81139176,6.12732028 4.41910056,5.82229539 L4.32489322,5.73910678 L2.34389322,3.75810678 C1.95336893,3.36758249 1.95336893,2.73441751 2.34389322,2.34389322 C2.70437718,1.98340926 3.27160824,1.95567972 3.66389944,2.26070461 Z M13.6561068,2.34389322 C14.0165907,2.70437718 14.0443203,3.27160824 13.7392954,3.66389944 L13.6561068,3.75810678 L11.6751068,5.73910678 C11.2845825,6.12963107 10.6514175,6.12963107 10.2608932,5.73910678 C9.90040926,5.37862282 9.87267972,4.81139176 10.1777046,4.41910056 L10.2608932,4.32489322 L12.2418932,2.34389322 C12.6324175,1.95336893 13.2655825,1.95336893 13.6561068,2.34389322 Z M8,-2.49134047e-13 C8.51283584,-2.49134047e-13 8.93550716,0.38604019 8.99327227,0.883378875 L9,1 L9,3.8 C9,4.35228475 8.55228475,4.8 8,4.8 C7.48716416,4.8 7.06449284,4.41395981 7.00672773,3.91662113 L7,3.8 L7,1 C7,0.44771525 7.44771525,-2.49134047e-13 8,-2.49134047e-13 Z" id="Combined-Shape" fill="#90A4AE"></path>
    </g>
</svg>