<?xml version="1.0" encoding="UTF-8"?>
<svg width="100%" height="100%" viewBox="0 0 16 16" version="1.1" xmlns="http://www.w3.org/2000/svg" xmlns:xlink="http://www.w3.org/1999/xlink">
    <title>icon / m / moon</title>
    <g id="icon-/-m-/-moon" stroke="none" stroke-width="1" fill="none" fill-rule="evenodd">
        <rect id="Rectangle" x="0" y="0" width="16" height="16"></rect>
        <path d="M7.27722955,0.00457647664 C3.05989592,0.394312004 -0.126231438,3.99809659 0.00384399342,8.23140229 C0.133919425,12.464708 3.53529201,15.8660806 7.76859771,15.996156 C12.0019034,16.1262314 15.605688,12.9401041 15.9954235,8.72277045 C16.075058,7.8610443 15.0982627,7.31054195 14.4023406,7.82494077 C12.6299179,9.1350476 10.16572,8.95128577 8.6072171,7.3927829 C7.04871423,5.83428003 6.8649524,3.37008214 8.17505923,1.59765937 C8.68945805,0.901737347 8.1389557,-0.0750580324 7.27722955,0.00457647664 Z M5.53550383,2.50691787 L5.47844521,2.73088646 C4.96596425,4.86039264 5.5583091,7.17749322 7.19040794,8.80959206 L7.38171734,8.99329316 C9.00046778,10.4856215 11.2215114,11.0143249 13.2691135,10.5215548 L13.4920803,10.4634943 L13.4076755,10.6430145 C12.3941213,12.6982991 10.2491666,14.0677593 7.83013482,13.9934305 C4.65515554,13.8958739 2.1041261,11.3448445 2.00656953,8.16986518 C1.93224071,5.75083336 3.30170086,3.60587875 5.35698548,2.59232452 L5.53550383,2.50691787 Z" id="Path" fill="#90A4AE"></path>
    </g>
</svg>