<?xml version="1.0" encoding="UTF-8"?>
<svg width="100%" height="100%" viewBox="0 0 16 16" version="1.1" xmlns="http://www.w3.org/2000/svg" xmlns:xlink="http://www.w3.org/1999/xlink">
    <title>icon / m / product</title>
    <g id="icon-/-m-/-product" stroke="none" stroke-width="1" fill="none" fill-rule="evenodd">
        <rect id="Rectangle" x="0" y="0" width="16" height="16"></rect>
        <path d="M7.81319072,0.00414498436 C6.39470758,0.0784380621 5.23010739,1.14286374 5.23010739,2.50492876 L5.22962428,5.06755556 L5.13999359,5.1716444 C4.45848811,6.00134065 3.90347319,7.56007037 3.69301769,9.22220037 C3.42148848,11.3666767 3.58940153,14.3927224 3.94078668,15.4030936 C4.06507522,15.7604723 4.40197746,16 4.78035184,16 L11.1632451,16 C11.5416195,16 11.8785217,15.7604723 12.0028103,15.4030936 C12.3835562,14.3082986 12.594682,11.3634327 12.3098186,9.21691916 L12.2752199,8.97807052 C12.0379718,7.46606226 11.4609398,5.97891355 10.8033384,5.17577667 L10.7131798,5.072 L10.7134896,2.50492876 C10.7134896,1.09241689 9.46102516,0 7.97179847,0 L7.81319072,0.00414498436 Z M7.97179847,1.77777778 C8.52912059,1.77777778 8.93571178,2.13241228 8.93571178,2.50492876 L8.93571178,5.46383239 C8.93571178,5.78011375 9.1037729,6.07257263 9.37703675,6.23182327 C9.67207776,6.40376504 10.3489772,7.95494065 10.547492,9.45079718 L10.5754382,9.68076815 C10.7392875,11.1588816 10.6561167,13.0276698 10.4796138,14.1295992 L10.4634021,14.2222222 L5.4918465,14.2222222 L5.48860771,14.1987436 C5.32568716,13.0708717 5.26299453,10.975467 5.4567138,9.44551596 C5.65618927,7.87010383 6.26886519,6.40531172 6.56656019,6.23182327 C6.83982404,6.07257263 7.00788516,5.78011375 7.00788516,5.46383239 L7.00788516,2.50492876 C7.00788516,2.13241228 7.41447636,1.77777778 7.97179847,1.77777778 Z" id="Path" fill="#90A4AE"></path>
    </g>
</svg>