<?xml version="1.0" encoding="UTF-8"?>
<svg width="16px" height="16px" viewBox="0 0 16 16" version="1.1" xmlns="http://www.w3.org/2000/svg" xmlns:xlink="http://www.w3.org/1999/xlink">
    <title>icon / m / request</title>
    <g id="icon-/-m-/-request" stroke="none" stroke-width="1" fill="none" fill-rule="evenodd">
        <g id="Group">
            <rect id="Rectangle" x="0" y="0" width="16" height="16"></rect>
        </g>
        <g id="request-ver-1" fill="#90A4AE">
            <path d="M13,0 C14.6568542,0 16,1.34314575 16,3 L16,13 C16,14.6568542 14.6568542,16 13,16 L3,16 C1.34314575,16 0,14.6568542 0,13 L0,3 C0,1.34314575 1.34314575,0 3,0 L13,0 Z M13,2 L3,2 C2.48716416,2 2.06449284,2.38604019 2.00672773,2.88337887 L2,3 L2,13 C2,13.5128358 2.38604019,13.9355072 2.88337887,13.9932723 L3,14 L13,14 C13.5128358,14 13.9355072,13.6139598 13.9932723,13.1166211 L14,13 L14,3 C14,2.48716416 13.6139598,2.06449284 13.1166211,2.00672773 L13,2 Z" id="Rectangle"></path>
            <path d="M8.3488972,9.25878001 C8.69735817,8.54543428 8.69735817,8.32875021 9.38403127,7.76039866 C10.2244371,7.07837681 10.511405,6.54102625 10.511405,5.65233111 C10.511405,4.31928839 9.50701749,3.60626554 8.02093393,3.60626554 C6.48360612,3.60626554 5.39740283,4.83398441 5.5209753,5.97399858 C5.75757966,6.54638041 6.50120831,6.61273336 6.91405791,6.22068266 C7.207613,5.78614359 7.28301658,4.87730627 7.86720115,4.87730627 C8.3283995,4.87730627 8.66661162,5.18731621 8.66661162,5.67299844 C8.66661162,6.27235098 8.48213228,6.63402923 7.93894312,7.17137979 C7.27276773,7.82240065 6.96838935,8.69381978 7.04729298,9.25878001 C7.27276773,9.77672648 8.08326851,9.66404874 8.3488972,9.25878001 Z M7.70518135,12.4 C8.24404145,12.4 8.7,11.9544041 8.7,11.4051813 C8.7,10.8559585 8.24404145,10.4 7.70518135,10.4 C7.15595855,10.4 6.7,10.8559585 6.7,11.4051813 C6.7,11.9544041 7.15595855,12.4 7.70518135,12.4 Z" id="?"></path>
        </g>
    </g>
</svg>