<?xml version="1.0" encoding="UTF-8"?>
<svg width="100%" height="100%" viewBox="0 0 16 16" version="1.1" xmlns="http://www.w3.org/2000/svg" xmlns:xlink="http://www.w3.org/1999/xlink">
    <title>icon / m / search</title>
    <g id="icon-/-m-/-search" stroke="none" stroke-width="1" fill="none" fill-rule="evenodd">
        <rect id="Rectangle" x="0" y="0" width="16" height="16"></rect>
        <path d="M7.22222222,3.10862447e-14 C11.2109454,3.10862447e-14 14.4444444,3.23349903 14.4444444,7.22222222 C14.4444444,8.85572966 13.902135,10.3625739 12.9877363,11.5725348 L15.7071068,14.2928932 C16.0976311,14.6834175 16.0976311,15.3165825 15.7071068,15.7071068 C15.3466228,16.0675907 14.7793918,16.0953203 14.3871006,15.7902954 L14.2928932,15.7071068 L11.5725348,12.9877363 C10.3625739,13.902135 8.85572966,14.4444444 7.22222222,14.4444444 C3.23349903,14.4444444 -2.5313085e-13,11.2109454 -2.5313085e-13,7.22222222 C-2.5313085e-13,3.23349903 3.23349903,3.10862447e-14 7.22222222,3.10862447e-14 Z M7.22222222,2 C4.33806853,2 2,4.33806853 2,7.22222222 C2,10.1063759 4.33806853,12.4444444 7.22222222,12.4444444 C8.63225292,12.4444444 9.91176252,11.8856172 10.8513569,10.9773568 C10.8679104,10.9531127 10.8881482,10.9309716 10.9095599,10.9095599 L10.9773568,10.8513569 C11.8856172,9.91176252 12.4444444,8.63225292 12.4444444,7.22222222 C12.4444444,4.33806853 10.1063759,2 7.22222222,2 Z" id="Combined-Shape" fill="#90A4AE"></path>
    </g>
</svg>