<?xml version="1.0" encoding="UTF-8"?>
<svg width="100%" height="100%" viewBox="0 0 16 16" version="1.1" xmlns="http://www.w3.org/2000/svg" xmlns:xlink="http://www.w3.org/1999/xlink">
    <title>icon / m / settings</title>
    <g id="icon-/-m-/-settings" stroke="none" stroke-width="1" fill="none" fill-rule="evenodd">
        <g id="Group">
            <rect id="Rectangle" x="0" y="0" width="16" height="16"></rect>
            <path d="M8,0 C9.25519261,0 10.2727273,1.01753466 10.2727273,2.27272727 L10.2727273,2.27272727 L10.2727193,2.32601169 C10.2727988,2.34594026 10.2847051,2.36391871 10.3128563,2.37604651 C10.331556,2.38429943 10.353396,2.38033941 10.3601659,2.37380231 L10.3601659,2.37380231 L10.3979545,2.33601393 C10.824246,1.90924792 11.4027063,1.66945335 12.0059091,1.66945335 C12.6091119,1.66945335 13.1875721,1.90924792 13.613077,2.33522727 C14.039843,2.76151877 14.2796376,3.33997898 14.2796376,3.94318182 C14.2796376,4.54638465 14.039843,5.12484487 13.6134704,5.55074314 L13.6134704,5.55074314 L13.5830444,5.58108314 C13.5687515,5.59569486 13.5647915,5.61753496 13.5730444,5.63623466 L13.5730444,5.63623466 L13.605,5.724 L13.6190909,5.72727273 L13.7272727,5.72727273 C14.9824653,5.72727273 16,6.74480739 16,8 C16,9.25519261 14.9824653,10.2727273 13.7272727,10.2727273 L13.7272727,10.2727273 L13.6739883,10.2727193 C13.6540597,10.2727988 13.6360813,10.2847051 13.6239535,10.3128563 C13.6157006,10.331556 13.6196606,10.353396 13.6261977,10.3601659 L13.6261977,10.3601659 L13.6639861,10.3979545 C14.0907521,10.824246 14.3305467,11.4027063 14.3305467,12.0059091 C14.3305467,12.6091119 14.0907521,13.1875721 13.6647727,13.613077 C13.2384812,14.039843 12.660021,14.2796376 12.0568182,14.2796376 C11.4536153,14.2796376 10.8751551,14.039843 10.4492569,13.6134704 L10.4492569,13.6134704 L10.4189169,13.5830444 C10.4043051,13.5687515 10.382465,13.5647915 10.3539314,13.5773216 C10.3356141,13.5851722 10.3237079,13.6031506 10.3236364,13.6190909 L10.3236364,13.6190909 L10.3236364,13.7272727 C10.3236364,14.9824653 9.3061017,16 8.05090909,16 C6.79571648,16 5.77818182,14.9824653 5.77818182,13.7272727 L5.77818182,13.7272727 L5.77845528,13.6933846 C5.77797517,13.6728595 5.76499684,13.6547138 5.68714375,13.6239535 C5.66844405,13.6157006 5.64660395,13.6196606 5.63983405,13.6261977 L5.63983405,13.6261977 L5.60204545,13.6639861 C5.17575396,14.0907521 4.59729375,14.3305467 3.99409091,14.3305467 C3.39088807,14.3305467 2.81242786,14.0907521 2.38692302,13.6647727 C1.96015701,13.2384812 1.72036244,12.660021 1.72036244,12.0568182 C1.72036244,11.4536153 1.96015701,10.8751551 2.38652958,10.4492569 L2.38652958,10.4492569 L2.4169556,10.4189169 C2.4312485,10.4043051 2.43520852,10.382465 2.42267836,10.3539314 C2.4148278,10.3356141 2.39684935,10.3237079 2.38090909,10.3236364 L2.38090909,10.3236364 L2.27272727,10.3236364 C1.01753466,10.3236364 0,9.3061017 0,8.05090909 C0,6.79571648 1.01753466,5.77818182 2.27272727,5.77818182 L2.27272727,5.77818182 L2.30661541,5.77845528 C2.32714054,5.77797517 2.34528616,5.76499684 2.37604651,5.68714375 C2.38429943,5.66844405 2.38033941,5.64660395 2.37380231,5.63983405 L2.37380231,5.63983405 L2.33601393,5.60204545 C1.90924792,5.17575396 1.66945335,4.59729375 1.66945335,3.99409091 C1.66945335,3.39088807 1.90924792,2.81242786 2.33522727,2.38692302 C2.76151877,1.96015701 3.33997898,1.72036244 3.94318182,1.72036244 C4.54638465,1.72036244 5.12484487,1.96015701 5.55074314,2.38652958 L5.55074314,2.38652958 L5.58108314,2.4169556 C5.59569486,2.4312485 5.61753496,2.43520852 5.63623466,2.4269556 L5.63623466,2.4269556 L5.724,2.394 L5.72727273,2.38090909 L5.72727273,2.27272727 C5.72727273,1.01753466 6.74480739,0 8,0 Z M8,2 C7.84937689,2 7.72727273,2.12210416 7.72727273,2.27272727 L7.72727273,2.27272727 L7.72726477,2.3848974 C7.72400601,3.20196891 7.23584947,3.93908529 6.48484053,4.26095801 C6.44334712,4.27874155 6.40079374,4.29365386 6.35748144,4.30563314 L6.35748144,4.30563314 L6.267,4.323 L6.13121238,4.3654874 C5.49632886,4.53034673 4.81464902,4.38065435 4.29981918,3.95190535 L4.29981918,3.95190535 L4.1747114,3.83892496 L4.13613636,3.80034971 C4.08498138,3.74913779 4.01556616,3.72036244 3.94318182,3.72036244 C3.87079748,3.72036244 3.80138225,3.74913779 3.74944062,3.80113636 C3.6982287,3.85229134 3.66945335,3.92170657 3.66945335,3.99409091 C3.66945335,4.06647525 3.6982287,4.13589048 3.74983405,4.18743867 L3.74983405,4.18743867 L3.79577168,4.23346231 C4.3817808,4.8325428 4.54414152,5.72798677 4.22944519,6.43609018 L4.22944519,6.43609018 L4.16538627,6.59058053 C3.83915181,7.29478464 3.13725379,7.75955465 2.33,7.77818182 L2.33,7.77818182 L2.27272727,7.77818182 C2.12210416,7.77818182 2,7.90028598 2,8.05090909 C2,8.2015322 2.12210416,8.32363636 2.27272727,8.32363636 L2.27272727,8.32363636 L2.3848974,8.32364432 C3.20196891,8.32690308 3.93908529,8.81505962 4.25668077,9.55623466 C4.59505061,10.3229223 4.43268989,11.2183663 3.83892496,11.8252886 L3.83892496,11.8252886 L3.80034971,11.8638636 C3.74913779,11.9150186 3.72036244,11.9844338 3.72036244,12.0568182 C3.72036244,12.1292025 3.74913779,12.1986177 3.80113636,12.2505594 C3.85229134,12.3017713 3.92170657,12.3305467 3.99409091,12.3305467 C4.06647525,12.3305467 4.13589048,12.3017713 4.18743867,12.2501659 L4.18743867,12.2501659 L4.23346231,12.2042283 C4.8325428,11.6182192 5.72798677,11.4558585 6.43609018,11.7705548 L6.43609018,11.7705548 L6.59058053,11.8346137 C7.29478464,12.1608482 7.75955465,12.8627462 7.77818182,13.67 L7.77818182,13.67 L7.77818182,13.7272727 C7.77818182,13.8778958 7.90028598,14 8.05090909,14 C8.2015322,14 8.32363636,13.8778958 8.32363636,13.7272727 L8.32363636,13.7272727 L8.32364432,13.6151026 C8.32690308,12.7980311 8.81505962,12.0609147 9.55623466,11.7433192 C10.3229223,11.4049494 11.2183663,11.5673101 11.8252886,12.161075 L11.8252886,12.161075 L11.8638636,12.1996503 C11.9150186,12.2508622 11.9844338,12.2796376 12.0568182,12.2796376 C12.1292025,12.2796376 12.1986177,12.2508622 12.2505594,12.1988636 C12.3017713,12.1477087 12.3305467,12.0782934 12.3305467,12.0059091 C12.3305467,11.9335248 12.3017713,11.8641095 12.2501659,11.8125613 L12.2501659,11.8125613 L12.2042283,11.7665377 C11.6182192,11.1674572 11.4558585,10.2720132 11.7899511,9.51515947 C12.1118238,8.76415053 12.8489402,8.27599399 13.67,8.27272727 L13.67,8.27272727 L13.7272727,8.27272727 C13.8778958,8.27272727 14,8.15062311 14,8 C14,7.84937689 13.8778958,7.72727273 13.7272727,7.72727273 L13.7272727,7.72727273 L13.6151026,7.72726477 C12.7980311,7.72400601 12.0609147,7.23584947 11.739042,6.48484053 C11.7212585,6.44334712 11.7063461,6.40079374 11.6943669,6.35748144 L11.6943669,6.35748144 L11.676,6.267 L11.6345126,6.13121238 C11.4696533,5.49632886 11.6193457,4.81464902 12.0480946,4.29981918 L12.0480946,4.29981918 L12.161075,4.1747114 L12.1996503,4.13613636 C12.2508622,4.08498138 12.2796376,4.01556616 12.2796376,3.94318182 C12.2796376,3.87079748 12.2508622,3.80138225 12.1988636,3.74944062 C12.1477087,3.6982287 12.0782934,3.66945335 12.0059091,3.66945335 C11.9335248,3.66945335 11.8641095,3.6982287 11.8125613,3.74983405 L11.8125613,3.74983405 L11.7665377,3.79577168 C11.1674572,4.3817808 10.2720132,4.54414152 9.51515947,4.21004892 C8.76415053,3.8881762 8.27599399,3.15105982 8.27272727,2.33 L8.27272727,2.33 L8.27272727,2.27272727 C8.27272727,2.12210416 8.15062311,2 8,2 Z M8,5.09090909 C9.60664654,5.09090909 10.9090909,6.39335346 10.9090909,8 C10.9090909,9.60664654 9.60664654,10.9090909 8,10.9090909 C6.39335346,10.9090909 5.09090909,9.60664654 5.09090909,8 C5.09090909,6.39335346 6.39335346,5.09090909 8,5.09090909 Z M8,7.09090909 C7.49792295,7.09090909 7.09090909,7.49792295 7.09090909,8 C7.09090909,8.50207705 7.49792295,8.90909091 8,8.90909091 C8.50207705,8.90909091 8.90909091,8.50207705 8.90909091,8 C8.90909091,7.49792295 8.50207705,7.09090909 8,7.09090909 Z" id="Combined-Shape" fill="#90A4AE"></path>
        </g>
    </g>
</svg>