<?xml version="1.0" encoding="UTF-8"?>
<svg width="100%" height="100%" viewBox="0 0 16 16" version="1.1" xmlns="http://www.w3.org/2000/svg" xmlns:xlink="http://www.w3.org/1999/xlink">
    <title>icon / m / success</title>
    <g id="icon-/-m-/-success" stroke="none" stroke-width="1" fill="none" fill-rule="evenodd">
        <rect id="Rectangle" x="0" y="0" width="16" height="16"></rect>
        <path d="M8,0 C12.418278,0 16,3.581722 16,8 C16,12.418278 12.418278,16 8,16 C3.581722,16 0,12.418278 0,8 C0,3.581722 3.581722,0 8,0 Z M11.7071068,5.23039322 C11.3165825,4.83986893 10.6834175,4.83986893 10.2928932,5.23039322 L10.2928932,5.23039322 L6.875,8.64835714 L5.70710678,7.48039322 L5.61289944,7.39720461 C5.22060824,7.09217972 4.65337718,7.11990926 4.29289322,7.48039322 C3.90236893,7.87091751 3.90236893,8.50408249 4.29289322,8.89460678 L4.29289322,8.89460678 L6.16789322,10.7696068 L6.26210056,10.8527954 C6.65439176,11.1578203 7.22162282,11.1300907 7.58210678,10.7696068 L7.58210678,10.7696068 L11.7071068,6.64460678 L11.7902954,6.55039944 C12.0953203,6.15810824 12.0675907,5.59087718 11.7071068,5.23039322 Z" id="Combined-Shape" fill="#00C853"></path>
    </g>
</svg>