<?xml version="1.0" encoding="UTF-8"?>
<svg width="100%" height="100%" viewBox="0 0 16 16" version="1.1" xmlns="http://www.w3.org/2000/svg" xmlns:xlink="http://www.w3.org/1999/xlink">
    <title>icon / m / sun</title>
    <g id="icon-/-m-/-sun" stroke="none" stroke-width="1" fill="none" fill-rule="evenodd">
        <rect id="Rectangle" x="0" y="0" width="16" height="16"></rect>
        <path d="M8,12.7272727 C8.51283584,12.7272727 8.93550716,13.1133129 8.99327227,13.6106516 L9,13.7272727 L9,15 C9,15.5522847 8.55228475,16 8,16 C7.48716416,16 7.06449284,15.6139598 7.00672773,15.1166211 L7,15 L7,13.7272727 C7,13.174988 7.44771525,12.7272727 8,12.7272727 Z M12.6601722,11.2569773 L12.7543795,11.3401659 L13.6580159,12.2438023 C14.0485402,12.6343266 14.0485402,13.2674916 13.6580159,13.6580159 C13.2975319,14.0184998 12.7303009,14.0462294 12.3380096,13.7412045 L12.2438023,13.6580159 L11.3401659,12.7543795 C10.9496417,12.3638552 10.9496417,11.7306902 11.3401659,11.3401659 C11.7006499,10.979682 12.267881,10.9519524 12.6601722,11.2569773 Z M4.65983405,11.3401659 C5.02031802,11.7006499 5.04804755,12.267881 4.74302266,12.6601722 L4.65983405,12.7543795 L3.75619769,13.6580159 C3.3656734,14.0485402 2.73250842,14.0485402 2.34198413,13.6580159 C1.98150017,13.2975319 1.95377063,12.7303009 2.25879552,12.3380096 L2.34198413,12.2438023 L3.24562049,11.3401659 C3.63614478,10.9496417 4.26930976,10.9496417 4.65983405,11.3401659 Z M8,3.81818182 C10.3095544,3.81818182 12.1818182,5.69044559 12.1818182,8 C12.1818182,10.3095544 10.3095544,12.1818182 8,12.1818182 C5.69044559,12.1818182 3.81818182,10.3095544 3.81818182,8 C3.81818182,5.69044559 5.69044559,3.81818182 8,3.81818182 Z M8,5.81818182 C6.79501509,5.81818182 5.81818182,6.79501509 5.81818182,8 C5.81818182,9.20498491 6.79501509,10.1818182 8,10.1818182 C9.20498491,10.1818182 10.1818182,9.20498491 10.1818182,8 C10.1818182,6.79501509 9.20498491,5.81818182 8,5.81818182 Z M2.27272727,7 C2.82501202,7 3.27272727,7.44771525 3.27272727,8 C3.27272727,8.51283584 2.88668708,8.93550716 2.3893484,8.99327227 L2.27272727,9 L1,9 C0.44771525,9 -2.27373675e-13,8.55228475 -2.27373675e-13,8 C-2.27373675e-13,7.48716416 0.38604019,7.06449284 0.883378875,7.00672773 L1,7 L2.27272727,7 Z M15,7 C15.5522847,7 16,7.44771525 16,8 C16,8.51283584 15.6139598,8.93550716 15.1166211,8.99327227 L15,9 L13.7272727,9 C13.174988,9 12.7272727,8.55228475 12.7272727,8 C12.7272727,7.48716416 13.1133129,7.06449284 13.6106516,7.00672773 L13.7272727,7 L15,7 Z M3.66199035,2.25879552 L3.75619769,2.34198413 L4.65983405,3.24562049 C5.05035835,3.63614478 5.05035835,4.26930976 4.65983405,4.65983405 C4.29935009,5.02031802 3.73211904,5.04804755 3.33982783,4.74302266 L3.24562049,4.65983405 L2.34198413,3.75619769 C1.95145984,3.3656734 1.95145984,2.73250842 2.34198413,2.34198413 C2.70246809,1.98150017 3.26969915,1.95377063 3.66199035,2.25879552 Z M13.6580159,2.34198413 C14.0184998,2.70246809 14.0462294,3.26969915 13.7412045,3.66199035 L13.6580159,3.75619769 L12.7543795,4.65983405 C12.3638552,5.05035835 11.7306902,5.05035835 11.3401659,4.65983405 C10.979682,4.29935009 10.9519524,3.73211904 11.2569773,3.33982783 L11.3401659,3.24562049 L12.2438023,2.34198413 C12.6343266,1.95145984 13.2674916,1.95145984 13.6580159,2.34198413 Z M8,6.82121026e-13 C8.51283584,6.82121026e-13 8.93550716,0.38604019 8.99327227,0.883378875 L9,1 L9,2.27272727 C9,2.82501202 8.55228475,3.27272727 8,3.27272727 C7.48716416,3.27272727 7.06449284,2.88668708 7.00672773,2.3893484 L7,2.27272727 L7,1 C7,0.44771525 7.44771525,6.82121026e-13 8,6.82121026e-13 Z" id="Combined-Shape" fill="#90A4AE"></path>
    </g>
</svg>