

<?xml version="1.0" encoding="utf-8"?>
<!-- Svg Vector Icons : http://www.onlinewebfonts.com/icon -->
<svg version="1.1"  x="0" y="0" viewBox="0 0 1000 1000" enable-background="new 0 0 1000 1000" xml:space="preserve" xmlns="http://www.w3.org/2000/svg" xmlns:xlink="http://www.w3.org/1999/xlink"> 
    <title>icon / m / unlink</title>
    <g id="icon-/-m-/-unlink" stroke="none" stroke-width="1" fill="#90A4AE" fill-rule="evenodd">
        <path d="M421.3,449.3c0-20.7,0-41.4,0-62.1l-128,125.1c-13.9,13.6-13.9,35.5,0,49c13.8,13.5,36.3,13.5,50.2,0l136.2-133.1c0-13.6,0-26.9,0-36L421.3,449.3z" /><path d="M659,401.9c4.4-18.7-7.4-37.3-26.5-41.6l-109.9-24.9c-18,10.9-53.9,32.8-53.9,32.8l80.4,18.3c-7.8,4.8-19.5,11.8-31.3,19l98.7,22.4C635.5,432.1,654.5,420.5,659,401.9z"/><path d="M309.6,618L204.6,720.5c-17.3,16.9-45.4,16.9-62.8,0l-12.3-12c-17.3-17-17.3-44.4,0-61.3l100.3-98c12.5-14.6,45.8-57.5,66.1-119.2c-47.6-9.2-98.9,4.1-135.8,40.2L54.2,573.5c-58.9,57.6-58.9,150.9,0,208.6l12.4,12c59,57.6,154.5,57.6,213.4,0l105.8-103.4c38.4-37.5,51.3-90.1,39.7-138.2C381.5,574.7,336.5,595.9,309.6,618z"/><path d="M873.2,282.3l-145.8-33.1c-50.2-11.4-100.3,3.2-135.7,34.7c28.6,22.1,64.4,47.2,116.4,67.8l141,32c23.9,5.5,38.7,28.8,33.2,52.1l-3.9,16.6c-5.6,23.3-29.4,37.8-53.3,32.4l-143.5-32.6c-66.7-8.3-104.1,1.3-132.9,10.2c17.4,44,55.9,79.1,106.5,90.6L801,586.2c81.2,18.4,162.3-30.9,181.1-110.2l4-16.7C1004.9,379.9,954.4,300.8,873.2,282.3z"/><path d="M406,345l-80.7-29.4l26.5-62.2L406,345z"/><path d="M521.6,291.1l-35.4-51.2l43.1-26.1L521.6,291.1z"/><path d="M444.3,294.7l-61.7-132l44.1,2.9L444.3,294.7z"/>
    </g>
</svg>