<svg width="16" height="16" viewBox="0 0 16 16" fill="none" xmlns="http://www.w3.org/2000/svg">
<g opacity="0.5">
<path fill-rule="evenodd" clip-rule="evenodd" d="M8.38297 11.2574C8.26643 11.3057 8.13878 11.3327 8.0049 11.3333C8.00327 11.3333 8.00163 11.3333 8 11.3333C7.99831 11.3333 7.99661 11.3333 7.99492 11.3333C7.74069 11.332 7.48686 11.2344 7.29289 11.0404L7.29226 11.0398L3.404 7.15155L3.32082 7.05734C3.01579 6.66505 3.04352 6.09782 3.404 5.73734L3.49821 5.65415C3.8905 5.34912 4.45773 5.37685 4.81822 5.73734L7 7.91927V1L7.00673 0.883379C7.06449 0.38604 7.48716 0 8 0C8.55229 0 9 0.447715 9 1V7.91927L11.1818 5.73734L11.276 5.65415C11.6683 5.34912 12.2355 5.37685 12.596 5.73734C12.9865 6.12786 12.9865 6.76103 12.596 7.15155L8.70711 11.0404C8.67771 11.0698 8.64648 11.0974 8.61362 11.123L8.6129 11.1236C8.54131 11.1793 8.46389 11.2239 8.38297 11.2574ZM15 9.33333C15.5128 9.33333 15.9355 9.71937 15.9933 10.2167L16 10.3333V13.4444C16 14.7994 14.9455 15.908 13.6125 15.9946L13.4444 16H2.55556C1.20062 16 0.0919605 14.9455 0.00543585 13.6125L0 13.4444V10.3333C0 9.78105 0.447715 9.33333 1 9.33333C1.51284 9.33333 1.93551 9.71937 1.99327 10.2167L2 10.3333V13.4444C2 13.7206 2.20147 13.9497 2.46544 13.9927L2.55556 14H13.4444C13.7206 14 13.9497 13.7985 13.9927 13.5346L14 13.4444V10.3333C14 9.78105 14.4477 9.33333 15 9.33333Z" fill="#677A83"/>
</g>
</svg>
