<svg width="28" height="28" viewBox="0 0 28 28" fill="none" xmlns="http://www.w3.org/2000/svg">
<path d="M16.0183 24.5002C15.8132 24.8538 15.5188 25.1473 15.1646 25.3513C14.8104 25.5553 14.4088 25.6627 14 25.6627C13.5912 25.6627 13.1896 25.5553 12.8354 25.3513C12.4812 25.1473 12.1868 24.8538 11.9817 24.5002M21 9.3335C21 7.47698 20.2625 5.6965 18.9497 4.38375C17.637 3.07099 15.8565 2.3335 14 2.3335C12.1435 2.3335 10.363 3.07099 9.05025 4.38375C7.7375 5.6965 7 7.47698 7 9.3335C7 17.5002 3.5 19.8335 3.5 19.8335H24.5C24.5 19.8335 21 17.5002 21 9.3335Z" stroke="#757575" stroke-width="2.33333" stroke-linecap="round" stroke-linejoin="round"/>
</svg>
