<svg width="28" height="28" viewBox="0 0 28 28" fill="none" xmlns="http://www.w3.org/2000/svg">
<path d="M7 13.9998H16.3333C17.571 13.9998 18.758 13.5082 19.6332 12.633C20.5083 11.7578 21 10.5708 21 9.33317C21 8.09549 20.5083 6.90851 19.6332 6.03334C18.758 5.15817 17.571 4.6665 16.3333 4.6665H7V13.9998ZM7 13.9998H17.5C18.7377 13.9998 19.9247 14.4915 20.7998 15.3667C21.675 16.2418 22.1667 17.4288 22.1667 18.6665C22.1667 19.9042 21.675 21.0912 20.7998 21.9663C19.9247 22.8415 18.7377 23.3332 17.5 23.3332H7V13.9998Z" stroke="#757575" stroke-width="2.33333" stroke-linecap="round" stroke-linejoin="round"/>
</svg>
