<svg width="28" height="28" viewBox="0 0 28 28" fill="none" xmlns="http://www.w3.org/2000/svg">
<g clip-path="url(#clip0_1178_18000)">
<path d="M9.33338 19.8333L14 24.4999M14 24.4999L18.6667 19.8333M14 24.4999L14 13.9999M24.36 21.1049C25.3743 20.3917 26.135 19.3738 26.5315 18.1989C26.9281 17.0241 26.94 15.7534 26.5655 14.5714C26.191 13.3893 25.4496 12.3574 24.4488 11.6252C23.448 10.8931 22.24 10.499 21 10.4999H19.53C19.1792 9.13244 18.5226 7.86238 17.6098 6.78535C16.6971 5.70832 15.5519 4.85239 14.2605 4.282C12.969 3.71161 11.565 3.44162 10.1542 3.49236C8.74329 3.5431 7.36231 3.91324 6.11519 4.57492C4.86807 5.2366 3.78731 6.17258 2.95426 7.31239C2.12122 8.4522 1.5576 9.76614 1.30585 11.1553C1.05409 12.5445 1.12076 13.9726 1.50082 15.3323C1.88088 16.6919 2.56445 17.9477 3.50004 19.0049" stroke="#757575" stroke-width="2.33333" stroke-linecap="round" stroke-linejoin="round"/>
</g>
<defs>
<clipPath id="clip0_1178_18000">
<rect width="28" height="28" fill="white"/>
</clipPath>
</defs>
</svg>
