<svg width="28" height="28" viewBox="0 0 28 28" fill="none" xmlns="http://www.w3.org/2000/svg">
<path d="M16.3334 2.3335H7.00008C6.38124 2.3335 5.78775 2.57933 5.35017 3.01691C4.91258 3.4545 4.66675 4.04799 4.66675 4.66683V23.3335C4.66675 23.9523 4.91258 24.5458 5.35017 24.9834C5.78775 25.421 6.38124 25.6668 7.00008 25.6668H21.0001C21.6189 25.6668 22.2124 25.421 22.65 24.9834C23.0876 24.5458 23.3334 23.9523 23.3334 23.3335V9.3335M16.3334 2.3335L23.3334 9.3335M16.3334 2.3335L16.3334 9.3335H23.3334M18.6667 15.1668H9.33342M18.6667 19.8335H9.33342M11.6667 10.5002H9.33342" stroke="#757575" stroke-width="2.33333" stroke-linecap="round" stroke-linejoin="round"/>
</svg>
