<svg width="28" height="28" viewBox="0 0 28 28" fill="none" xmlns="http://www.w3.org/2000/svg">
<path d="M21 17.5C19.067 17.5 17.5 19.067 17.5 21C17.5 22.933 19.067 24.5 21 24.5C22.933 24.5 24.5 22.933 24.5 21C24.5 19.067 22.933 17.5 21 17.5ZM21 17.5V9.33333C21 8.71449 20.7542 8.121 20.3166 7.68342C19.879 7.24583 19.2855 7 18.6667 7H15.1667M7 10.5C8.933 10.5 10.5 8.933 10.5 7C10.5 5.067 8.933 3.5 7 3.5C5.067 3.5 3.5 5.067 3.5 7C3.5 8.933 5.067 10.5 7 10.5ZM7 10.5L7 24.5" stroke="#757575" stroke-width="2.33333" stroke-linecap="round" stroke-linejoin="round"/>
</svg>
