<svg width="28" height="28" viewBox="0 0 28 28" fill="none" xmlns="http://www.w3.org/2000/svg">
<path d="M18.9468 9.05313C19.5976 9.70324 20.1139 10.4753 20.4662 11.325C20.8185 12.1748 20.9998 13.0857 20.9998 14.0056C20.9998 14.9255 20.8185 15.8364 20.4662 16.6862C20.1139 17.536 19.5976 18.308 18.9468 18.9581M9.05345 18.9465C8.40261 18.2964 7.8863 17.5243 7.53403 16.6745C7.18176 15.8248 7.00044 14.9139 7.00044 13.994C7.00044 13.0741 7.18176 12.1632 7.53403 11.3134C7.8863 10.4636 8.40261 9.69158 9.05345 9.04147M22.2484 5.75146C24.4356 7.93929 25.6643 10.9062 25.6643 13.9998C25.6643 17.0934 24.4356 20.0603 22.2484 22.2481M5.75178 22.2481C3.56462 20.0603 2.33594 17.0934 2.33594 13.9998C2.33594 10.9062 3.56462 7.93929 5.75178 5.75146M16.3334 13.9998C16.3334 15.2885 15.2888 16.3331 14.0001 16.3331C12.7114 16.3331 11.6668 15.2885 11.6668 13.9998C11.6668 12.7111 12.7114 11.6665 14.0001 11.6665C15.2888 11.6665 16.3334 12.7111 16.3334 13.9998Z" stroke="#757575" stroke-width="2.33333" stroke-linecap="round" stroke-linejoin="round"/>
</svg>
