<svg width="28" height="28" viewBox="0 0 28 28" fill="none" xmlns="http://www.w3.org/2000/svg">
<path d="M23.3333 4.66667L9.47333 18.5267M16.8817 16.8933L23.3333 23.3333M9.47333 9.47333L14 14M10.5 7C10.5 8.933 8.933 10.5 7 10.5C5.067 10.5 3.5 8.933 3.5 7C3.5 5.067 5.067 3.5 7 3.5C8.933 3.5 10.5 5.067 10.5 7ZM10.5 21C10.5 22.933 8.933 24.5 7 24.5C5.067 24.5 3.5 22.933 3.5 21C3.5 19.067 5.067 17.5 7 17.5C8.933 17.5 10.5 19.067 10.5 21Z" stroke="#757575" stroke-width="2.33333" stroke-linecap="round" stroke-linejoin="round"/>
</svg>
