<svg width="28" height="28" viewBox="0 0 28 28" fill="none" xmlns="http://www.w3.org/2000/svg">
<path d="M1.16675 1.1665H5.83341L8.96008 16.7882C9.06677 17.3253 9.35897 17.8078 9.78555 18.1512C10.2121 18.4946 10.7459 18.677 11.2934 18.6665H22.6334C23.1809 18.677 23.7147 18.4946 24.1413 18.1512C24.5679 17.8078 24.8601 17.3253 24.9667 16.7882L26.8334 6.99984H7.00008M11.6667 24.4998C11.6667 25.1442 11.1444 25.6665 10.5001 25.6665C9.85575 25.6665 9.33342 25.1442 9.33342 24.4998C9.33342 23.8555 9.85575 23.3332 10.5001 23.3332C11.1444 23.3332 11.6667 23.8555 11.6667 24.4998ZM24.5001 24.4998C24.5001 25.1442 23.9777 25.6665 23.3334 25.6665C22.6891 25.6665 22.1667 25.1442 22.1667 24.4998C22.1667 23.8555 22.6891 23.3332 23.3334 23.3332C23.9777 23.3332 24.5001 23.8555 24.5001 24.4998Z" stroke="#757575" stroke-width="2.33333" stroke-linecap="round" stroke-linejoin="round"/>
</svg>
