<svg width="28" height="28" viewBox="0 0 28 28" fill="none" xmlns="http://www.w3.org/2000/svg">
<path d="M26.8334 3.50001C25.7162 4.28807 24.4792 4.89081 23.1701 5.28501C22.4674 4.47711 21.5336 3.90449 20.495 3.64459C19.4563 3.3847 18.3628 3.45007 17.3625 3.83188C16.3622 4.21368 15.5033 4.89348 14.9019 5.77935C14.3005 6.66522 13.9857 7.7144 14.0001 8.78501V9.95168C11.9498 10.0048 9.91823 9.55013 8.08626 8.62803C6.25428 7.70594 4.67878 6.34509 3.50008 4.66668C3.50008 4.66668 -1.16659 15.1667 9.33341 19.8333C6.9307 21.4643 4.06843 22.2821 1.16675 22.1667C11.6667 28 24.5001 22.1667 24.5001 8.75001C24.499 8.42504 24.4678 8.10087 24.4067 7.78168C25.5975 6.60742 26.4377 5.12484 26.8334 3.50001Z" stroke="#757575" stroke-width="2.33333" stroke-linecap="round" stroke-linejoin="round"/>
</svg>
