<svg width="28" height="28" viewBox="0 0 28 28" fill="none" xmlns="http://www.w3.org/2000/svg">
<path d="M11.1883 5.35482C11.4593 5.08218 11.7935 4.88073 12.1611 4.76838C12.5287 4.65603 12.9184 4.63625 13.2956 4.71081C13.6727 4.78536 14.0256 4.95194 14.3228 5.19574C14.62 5.43953 14.8524 5.75299 14.9993 6.10824C15.1462 6.4635 15.2031 6.84954 15.1648 7.23206C15.1265 7.61457 14.9944 7.98171 14.78 8.30084C14.5657 8.61996 14.2758 8.88118 13.9362 9.06128C13.5965 9.24137 13.2177 9.33476 12.8333 9.33315H2.33325M16.3333 18.6665C16.7177 18.6649 17.0965 18.7583 17.4362 18.9384C17.7758 19.1185 18.0657 19.3797 18.28 19.6988C18.4944 20.0179 18.6265 20.3851 18.6648 20.7676C18.7031 21.1501 18.6462 21.5361 18.4993 21.8914C18.3524 22.2466 18.12 22.5601 17.8228 22.8039C17.5256 23.0477 17.1727 23.2143 16.7956 23.2888C16.4184 23.3634 16.0287 23.3436 15.6611 23.2313C15.2935 23.1189 14.9593 22.9175 14.6883 22.6448L2.33325 18.6665M20.6849 9.01815C21.0242 8.67968 21.4417 8.43005 21.9005 8.29133C22.3593 8.15261 22.8451 8.12908 23.3152 8.22282C23.7852 8.31655 24.2248 8.52467 24.5953 8.82876C24.9657 9.13286 25.2555 9.52355 25.4391 9.96629C25.6226 10.409 25.6942 10.8902 25.6475 11.3672C25.6008 11.8442 25.4373 12.3023 25.1715 12.7011C24.9056 13.0999 24.5456 13.427 24.1232 13.6535C23.7009 13.88 23.2292 13.999 22.7499 13.9998H2.33325" stroke="#757575" stroke-width="2.33333" stroke-linecap="round" stroke-linejoin="round"/>
</svg>
