<svg width="16" height="16" viewBox="0 0 16 16" fill="none" xmlns="http://www.w3.org/2000/svg">
<path d="M7.99992 5.3335C9.10449 5.3335 9.99992 4.43807 9.99992 3.3335C9.99992 2.22893 9.10449 1.3335 7.99992 1.3335C6.89535 1.3335 5.99992 2.22893 5.99992 3.3335C5.99992 4.43807 6.89535 5.3335 7.99992 5.3335ZM7.99992 5.3335V14.6668M7.99992 14.6668C6.23181 14.6668 4.53612 13.9645 3.28587 12.7142C2.03563 11.464 1.33325 9.76827 1.33325 8.00016H3.33325M7.99992 14.6668C9.76803 14.6668 11.4637 13.9645 12.714 12.7142C13.9642 11.464 14.6666 9.76827 14.6666 8.00016H12.6666" stroke="#757575" stroke-linecap="round" stroke-linejoin="round"/>
</svg>
