<svg width="16" height="16" viewBox="0 0 16 16" fill="none" xmlns="http://www.w3.org/2000/svg">
<path d="M10.6666 5.33357V8.6669C10.6666 9.19734 10.8773 9.70604 11.2524 10.0811C11.6275 10.4562 12.1362 10.6669 12.6666 10.6669C13.197 10.6669 13.7057 10.4562 14.0808 10.0811C14.4559 9.70604 14.6666 9.19734 14.6666 8.6669V8.00024C14.6665 6.49559 14.1574 5.03522 13.2221 3.85659C12.2868 2.67796 10.9803 1.85039 9.51502 1.50844C8.04974 1.16648 6.51188 1.33027 5.15149 1.97315C3.7911 2.61603 2.68819 3.70021 2.0221 5.04939C1.356 6.39856 1.1659 7.9334 1.4827 9.40431C1.7995 10.8752 2.60458 12.1957 3.76701 13.1511C4.92945 14.1064 6.38088 14.6405 7.8853 14.6663C9.38973 14.6922 10.8587 14.2084 12.0533 13.2936M10.6666 8.00024C10.6666 9.473 9.47269 10.6669 7.99993 10.6669C6.52717 10.6669 5.33326 9.473 5.33326 8.00024C5.33326 6.52748 6.52717 5.33357 7.99993 5.33357C9.47269 5.33357 10.6666 6.52748 10.6666 8.00024Z" stroke="currentColor" stroke-linecap="round" stroke-linejoin="round"/>
</svg>
