<svg width="16" height="16" viewBox="0 0 16 16" fill="none" xmlns="http://www.w3.org/2000/svg">
<path d="M9.15341 13.9998C9.03621 14.2019 8.86798 14.3696 8.66557 14.4862C8.46315 14.6028 8.23367 14.6641 8.00008 14.6641C7.7665 14.6641 7.53701 14.6028 7.3346 14.4862C7.13219 14.3696 6.96396 14.2019 6.84675 13.9998M12.4201 8.6665C12.1235 7.58078 11.9821 6.45853 12.0001 5.33317C12.0012 4.60855 11.8054 3.89724 11.4336 3.27523C11.0619 2.65322 10.5282 2.14388 9.8895 1.8016C9.25081 1.45932 8.53113 1.29697 7.80735 1.33188C7.08357 1.3668 6.38286 1.59767 5.78008 1.99984M4.17341 4.17317C4.05759 4.54891 3.99916 4.93998 4.00008 5.33317C4.00008 9.99984 2.00008 11.3332 2.00008 11.3332H11.3334M0.666748 0.666504L15.3334 15.3332" stroke="currentColor" stroke-linecap="round" stroke-linejoin="round"/>
</svg>
