<svg width="16" height="16" viewBox="0 0 16 16" fill="none" xmlns="http://www.w3.org/2000/svg">
<path d="M4 7.99984H9.33333C10.0406 7.99984 10.7189 7.71889 11.219 7.21879C11.719 6.71869 12 6.04041 12 5.33317C12 4.62593 11.719 3.94765 11.219 3.44755C10.7189 2.94746 10.0406 2.6665 9.33333 2.6665H4V7.99984ZM4 7.99984H10C10.7072 7.99984 11.3855 8.28079 11.8856 8.78089C12.3857 9.28098 12.6667 9.95926 12.6667 10.6665C12.6667 11.3737 12.3857 12.052 11.8856 12.5521C11.3855 13.0522 10.7072 13.3332 10 13.3332H4V7.99984Z" stroke="currentColor" stroke-linecap="round" stroke-linejoin="round"/>
</svg>
