<svg width="16" height="16" viewBox="0 0 16 16" fill="none" xmlns="http://www.w3.org/2000/svg">
<path d="M2.18 4.63977L8 8.00644L13.82 4.63977M8 14.7198V7.99977M14 10.6664V5.33311C13.9998 5.09929 13.938 4.86965 13.821 4.66721C13.704 4.46478 13.5358 4.29668 13.3333 4.17977L8.66667 1.51311C8.46397 1.39608 8.23405 1.33447 8 1.33447C7.76595 1.33447 7.53603 1.39608 7.33333 1.51311L2.66667 4.17977C2.46418 4.29668 2.29599 4.46478 2.17897 4.66721C2.06196 4.86965 2.00024 5.09929 2 5.33311V10.6664C2.00024 10.9003 2.06196 11.1299 2.17897 11.3323C2.29599 11.5348 2.46418 11.7029 2.66667 11.8198L7.33333 14.4864C7.53603 14.6035 7.76595 14.6651 8 14.6651C8.23405 14.6651 8.46397 14.6035 8.66667 14.4864L13.3333 11.8198C13.5358 11.7029 13.704 11.5348 13.821 11.3323C13.938 11.1299 13.9998 10.9003 14 10.6664Z" stroke="#757575" stroke-width="1.33333" stroke-linecap="round" stroke-linejoin="round"/>
</svg>
