<svg width="16" height="16" viewBox="0 0 16 16" fill="none" xmlns="http://www.w3.org/2000/svg">
<path d="M0.666748 0.666504L15.3334 15.3332M6.00008 1.99984H10.0001L11.3334 3.99984H14.0001C14.3537 3.99984 14.6928 4.14031 14.9429 4.39036C15.1929 4.64041 15.3334 4.97955 15.3334 5.33317V11.5598M10.1867 10.1865C9.96548 10.5099 9.67568 10.7805 9.33794 10.9791C9.00021 11.1778 8.62285 11.2996 8.23271 11.3358C7.84257 11.3721 7.44924 11.3219 7.08068 11.1889C6.71213 11.0559 6.37742 10.8433 6.10036 10.5662C5.8233 10.2892 5.6107 9.95445 5.47768 9.5859C5.34467 9.21735 5.2945 8.82401 5.33075 8.43387C5.36701 8.04373 5.48879 7.66637 5.68744 7.32864C5.88608 6.99091 6.15672 6.7011 6.48008 6.47984M14.0001 13.9998H2.00008C1.64646 13.9998 1.30732 13.8594 1.05727 13.6093C0.807224 13.3593 0.666748 13.0201 0.666748 12.6665V5.33317C0.666748 4.97955 0.807224 4.64041 1.05727 4.39036C1.30732 4.14031 1.64646 3.99984 2.00008 3.99984H4.00008L14.0001 13.9998Z" stroke="#757575" stroke-linecap="round" stroke-linejoin="round"/>
</svg>
