<svg width="16" height="16" viewBox="0 0 16 16" fill="none" xmlns="http://www.w3.org/2000/svg">
<path d="M1.33325 10.7332C1.97385 10.8638 2.56188 11.18 3.02417 11.6423C3.48647 12.1045 3.80261 12.6926 3.93325 13.3332M1.33325 8.03317C2.68711 8.18375 3.94944 8.79053 4.91266 9.75376C5.87589 10.717 6.48268 11.9793 6.63325 13.3332M1.33325 5.33317V3.99984C1.33325 3.64622 1.47373 3.30708 1.72378 3.05703C1.97382 2.80698 2.31296 2.6665 2.66659 2.6665H13.3333C13.6869 2.6665 14.026 2.80698 14.2761 3.05703C14.5261 3.30708 14.6666 3.64622 14.6666 3.99984V11.9998C14.6666 12.3535 14.5261 12.6926 14.2761 12.9426C14.026 13.1927 13.6869 13.3332 13.3333 13.3332H9.33325M1.33325 13.3332H1.33992" stroke="#757575" stroke-width="1.33333" stroke-linecap="round" stroke-linejoin="round"/>
</svg>
