<svg width="16" height="16" viewBox="0 0 16 16" fill="none" xmlns="http://www.w3.org/2000/svg">
<path d="M7.99992 5.3335C6.52716 5.3335 5.33325 6.5274 5.33325 8.00016C5.33325 9.47292 6.52716 10.6668 7.99992 10.6668C9.47268 10.6668 10.6666 9.47292 10.6666 8.00016C10.6666 6.5274 9.47268 5.3335 7.99992 5.3335ZM7.99992 5.3335H14.1133M2.63325 4.04016L5.69325 9.3335M7.25325 14.6268L10.3066 9.3335M14.6666 8.00016C14.6666 11.6821 11.6818 14.6668 7.99992 14.6668C4.31802 14.6668 1.33325 11.6821 1.33325 8.00016C1.33325 4.31826 4.31802 1.3335 7.99992 1.3335C11.6818 1.3335 14.6666 4.31826 14.6666 8.00016Z" stroke="#757575" stroke-width="1.33333" stroke-linecap="round" stroke-linejoin="round"/>
</svg>
