<svg width="16" height="16" viewBox="0 0 16 16" fill="none" xmlns="http://www.w3.org/2000/svg">
<path d="M10.6667 2.66683H12.0001C12.3537 2.66683 12.6928 2.80731 12.9429 3.05735C13.1929 3.3074 13.3334 3.64654 13.3334 4.00016V13.3335C13.3334 13.6871 13.1929 14.0263 12.9429 14.2763C12.6928 14.5264 12.3537 14.6668 12.0001 14.6668H4.00008C3.64646 14.6668 3.30732 14.5264 3.05727 14.2763C2.80722 14.0263 2.66675 13.6871 2.66675 13.3335V4.00016C2.66675 3.64654 2.80722 3.3074 3.05727 3.05735C3.30732 2.80731 3.64646 2.66683 4.00008 2.66683H5.33341M6.00008 1.3335H10.0001C10.3683 1.3335 10.6667 1.63197 10.6667 2.00016V3.3335C10.6667 3.70169 10.3683 4.00016 10.0001 4.00016H6.00008C5.63189 4.00016 5.33341 3.70169 5.33341 3.3335V2.00016C5.33341 1.63197 5.63189 1.3335 6.00008 1.3335Z" stroke="#757575" stroke-linecap="round" stroke-linejoin="round"/>
</svg>
