<svg width="16" height="16" viewBox="0 0 16 16" fill="none" xmlns="http://www.w3.org/2000/svg">
<g clip-path="url(#clip0_1178_18662)">
<path d="M12.6667 11.2665C13.4768 11.102 14.1969 10.6424 14.6872 9.97686C15.1774 9.31131 15.4029 8.48733 15.3198 7.66488C15.2368 6.84243 14.8511 6.08019 14.2376 5.52612C13.6241 4.97206 12.8267 4.66571 12 4.66654H11.16C10.9392 3.81142 10.5094 3.02453 9.9093 2.37653C9.30921 1.72853 8.55759 1.23969 7.72192 0.953916C6.88625 0.668138 5.99269 0.594362 5.12146 0.739213C4.25023 0.884063 3.42862 1.24301 2.73037 1.78381C2.03213 2.32462 1.47912 3.03036 1.12099 3.83768C0.762865 4.645 0.610831 5.52862 0.678539 6.4092C0.746248 7.28979 1.03158 8.13978 1.50892 8.88285C1.98626 9.62593 2.64066 10.2388 3.41337 10.6665M8.6667 7.33321L6.00004 11.3332H10L7.33337 15.3332" stroke="currentColor" stroke-linecap="round" stroke-linejoin="round"/>
</g>
<defs>
<clipPath id="clip0_1178_18662">
<rect width="16" height="16" fill="white"/>
</clipPath>
</defs>
</svg>
