<svg width="16" height="16" viewBox="0 0 16 16" fill="none" xmlns="http://www.w3.org/2000/svg">
<g clip-path="url(#clip0_1178_18665)">
<path d="M15.0734 11.2998C15.2882 10.7927 15.374 10.2403 15.3231 9.69187C15.2722 9.14349 15.0863 8.61625 14.7818 8.1573C14.4774 7.69834 14.064 7.32197 13.5786 7.06182C13.0931 6.80167 12.5508 6.66585 12.0001 6.6665H11.1601C10.8879 5.59483 10.2895 4.63422 9.44743 3.91761C8.60541 3.20099 7.56147 2.76379 6.46008 2.6665M3.33341 3.33317C2.29213 3.90893 1.47328 4.81636 1.00713 5.91111C0.540987 7.00586 0.454311 8.22505 0.760893 9.37473C1.06748 10.5244 1.74971 11.5386 2.69906 12.2558C3.64842 12.9731 4.81037 13.3523 6.00008 13.3332H12.0001C12.3866 13.3327 12.7701 13.265 13.1334 13.1332M0.666742 0.666504L15.3334 15.3332" stroke="#757575" stroke-width="1.33333" stroke-linecap="round" stroke-linejoin="round"/>
</g>
<defs>
<clipPath id="clip0_1178_18665">
<rect width="16" height="16" fill="white"/>
</clipPath>
</defs>
</svg>
