<svg width="16" height="16" viewBox="0 0 16 16" fill="none" xmlns="http://www.w3.org/2000/svg">
<g clip-path="url(#clip0_1178_18552)">
<path d="M5.33344 12.6668V14.0001M5.33344 8.6668V10.0001M10.6668 12.6668V14.0001M10.6668 8.6668V10.0001M8.0001 14.0001V15.3335M8.0001 10.0001V11.3335M13.3334 11.0535C14.0343 10.7465 14.6082 10.2078 14.9588 9.52783C15.3095 8.84782 15.4155 8.06787 15.2592 7.31892C15.1028 6.56997 14.6936 5.89761 14.1001 5.41469C13.5067 4.93177 12.7652 4.6677 12.0001 4.6668H11.1601C10.9488 3.84848 10.546 3.0921 9.98498 2.46C9.42395 1.8279 8.72073 1.33819 7.93328 1.03122C7.14583 0.724245 6.29671 0.608812 5.45589 0.69443C4.61507 0.780048 3.80664 1.06427 3.09723 1.52366C2.38782 1.98305 1.79775 2.60446 1.37564 3.33667C0.953534 4.06887 0.711485 4.89092 0.669445 5.73503C0.627404 6.57915 0.786576 7.42118 1.13384 8.1917C1.4811 8.96223 2.00652 9.6392 2.66677 10.1668" stroke="#757575" stroke-linecap="round" stroke-linejoin="round"/>
</g>
<defs>
<clipPath id="clip0_1178_18552">
<rect width="16" height="16" fill="white"/>
</clipPath>
</defs>
</svg>
