<svg width="16" height="16" viewBox="0 0 16 16" fill="none" xmlns="http://www.w3.org/2000/svg">
<g clip-path="url(#clip0_1178_18632)">
<path d="M11.9999 6.6665H11.1599C10.9105 5.7005 10.3951 4.82383 9.67234 4.1361C8.94957 3.44837 8.04839 2.97716 7.07119 2.77602C6.094 2.57488 5.07997 2.65186 4.14435 2.99823C3.20872 3.3446 2.389 3.94646 1.77835 4.73543C1.16769 5.52439 0.790571 6.46882 0.689849 7.46141C0.589127 8.45399 0.768838 9.45493 1.20856 10.3505C1.64828 11.246 2.33039 12.0003 3.17737 12.5275C4.02434 13.0548 5.00223 13.3339 5.99991 13.3332H11.9999C12.884 13.3332 13.7318 12.982 14.3569 12.3569C14.9821 11.7317 15.3332 10.8839 15.3332 9.99984C15.3332 9.11578 14.9821 8.26794 14.3569 7.64281C13.7318 7.01769 12.884 6.6665 11.9999 6.6665Z" stroke="currentColor" stroke-linecap="round" stroke-linejoin="round"/>
</g>
<defs>
<clipPath id="clip0_1178_18632">
<rect width="16" height="16" fill="white"/>
</clipPath>
</defs>
</svg>
