<svg width="16" height="16" viewBox="0 0 16 16" fill="none" xmlns="http://www.w3.org/2000/svg">
<g clip-path="url(#clip0_1178_18586)">
<path d="M13.3334 11.72C14.0343 11.413 14.6082 10.8743 14.9588 10.1943C15.3095 9.51432 15.4155 8.73438 15.2592 7.98543C15.1028 7.23648 14.6936 6.56411 14.1001 6.08119C13.5067 5.59828 12.7652 5.3342 12.0001 5.3333H11.1601C10.9488 4.51499 10.546 3.7586 9.98498 3.1265C9.42395 2.49441 8.72073 2.00469 7.93328 1.69772C7.14583 1.39075 6.29671 1.27532 5.45589 1.36093C4.61507 1.44655 3.80664 1.73077 3.09723 2.19016C2.38782 2.64955 1.79775 3.27096 1.37564 4.00317C0.953534 4.73538 0.711485 5.55742 0.669445 6.40154C0.627404 7.24566 0.786576 8.08768 1.13384 8.85821C1.4811 9.62873 2.00652 10.3057 2.66677 10.8333M5.33344 10.6666H5.3401M5.33344 13.3333H5.3401M8.0001 12H8.00677M8.0001 14.6666H8.00677M10.6668 10.6666H10.6734M10.6668 13.3333H10.6734" stroke="#757575" stroke-linecap="round" stroke-linejoin="round"/>
</g>
<defs>
<clipPath id="clip0_1178_18586">
<rect width="16" height="16" fill="white"/>
</clipPath>
</defs>
</svg>
