<svg width="16" height="16" viewBox="0 0 16 16" fill="none" xmlns="http://www.w3.org/2000/svg">
<path d="M11.9999 5.33317H12.6666C13.3738 5.33317 14.0521 5.61412 14.5522 6.11422C15.0523 6.61432 15.3333 7.29259 15.3333 7.99984C15.3333 8.70708 15.0523 9.38536 14.5522 9.88546C14.0521 10.3856 13.3738 10.6665 12.6666 10.6665H11.9999M11.9999 5.33317H1.33325V11.3332C1.33325 12.0404 1.6142 12.7187 2.1143 13.2188C2.6144 13.7189 3.29267 13.9998 3.99992 13.9998H9.33325C10.0405 13.9998 10.7188 13.7189 11.2189 13.2188C11.719 12.7187 11.9999 12.0404 11.9999 11.3332V5.33317ZM3.99992 0.666504V2.6665M6.66659 0.666504V2.6665M9.33325 0.666504V2.6665" stroke="#757575" stroke-linecap="round" stroke-linejoin="round"/>
</svg>
