<svg width="16" height="16" viewBox="0 0 16 16" fill="none" xmlns="http://www.w3.org/2000/svg">
<path d="M3.33325 10.0002H2.66659C2.31296 10.0002 1.97382 9.85969 1.72378 9.60964C1.47373 9.35959 1.33325 9.02045 1.33325 8.66683V2.66683C1.33325 2.31321 1.47373 1.97407 1.72378 1.72402C1.97382 1.47397 2.31296 1.3335 2.66659 1.3335H8.66659C9.02021 1.3335 9.35935 1.47397 9.60939 1.72402C9.85944 1.97407 9.99992 2.31321 9.99992 2.66683V3.3335M7.33325 6.00016H13.3333C14.0696 6.00016 14.6666 6.59712 14.6666 7.3335V13.3335C14.6666 14.0699 14.0696 14.6668 13.3333 14.6668H7.33325C6.59687 14.6668 5.99992 14.0699 5.99992 13.3335V7.3335C5.99992 6.59712 6.59687 6.00016 7.33325 6.00016Z" stroke="#757575" stroke-linecap="round" stroke-linejoin="round"/>
</svg>
