<svg width="16" height="16" viewBox="0 0 16 16" fill="none" xmlns="http://www.w3.org/2000/svg">
<path d="M6.00008 0.666504V2.6665M10.0001 0.666504V2.6665M6.00008 13.3332V15.3332M10.0001 13.3332V15.3332M13.3334 5.99984H15.3334M13.3334 9.33317H15.3334M0.666748 5.99984H2.66675M0.666748 9.33317H2.66675M4.00008 2.6665H12.0001C12.7365 2.6665 13.3334 3.26346 13.3334 3.99984V11.9998C13.3334 12.7362 12.7365 13.3332 12.0001 13.3332H4.00008C3.2637 13.3332 2.66675 12.7362 2.66675 11.9998V3.99984C2.66675 3.26346 3.2637 2.6665 4.00008 2.6665ZM6.00008 5.99984H10.0001V9.99984H6.00008V5.99984Z" stroke="#757575" stroke-linecap="round" stroke-linejoin="round"/>
</svg>
