<svg width="16" height="16" viewBox="0 0 16 16" fill="none" xmlns="http://www.w3.org/2000/svg">
<path fill-rule="evenodd" clip-rule="evenodd" d="M3.33325 2.66683C2.96506 2.66683 2.66659 2.96531 2.66659 3.3335V12.6668C2.66659 13.035 2.96506 13.3335 3.33325 13.3335H12.6666C13.0348 13.3335 13.3333 13.035 13.3333 12.6668V3.3335C13.3333 2.96531 13.0348 2.66683 12.6666 2.66683H3.33325ZM1.33325 3.3335C1.33325 2.22893 2.22868 1.3335 3.33325 1.3335H12.6666C13.7712 1.3335 14.6666 2.22893 14.6666 3.3335V12.6668C14.6666 13.7714 13.7712 14.6668 12.6666 14.6668H3.33325C2.22868 14.6668 1.33325 13.7714 1.33325 12.6668V3.3335Z" fill="#757575"/>
<path fill-rule="evenodd" clip-rule="evenodd" d="M4.66659 8.00016C4.66659 7.63197 4.96506 7.3335 5.33325 7.3335H10.6666C11.0348 7.3335 11.3333 7.63197 11.3333 8.00016C11.3333 8.36835 11.0348 8.66683 10.6666 8.66683H5.33325C4.96506 8.66683 4.66659 8.36835 4.66659 8.00016Z" fill="#757575"/>
<path d="M8.99992 5.00016C8.99992 5.55245 8.5522 6.00016 7.99992 6.00016C7.44763 6.00016 6.99992 5.55245 6.99992 5.00016C6.99992 4.44788 7.44763 4.00016 7.99992 4.00016C8.5522 4.00016 8.99992 4.44788 8.99992 5.00016Z" fill="#757575"/>
<path d="M8.99992 11.0002C8.99992 11.5524 8.5522 12.0002 7.99992 12.0002C7.44763 12.0002 6.99992 11.5524 6.99992 11.0002C6.99992 10.4479 7.44763 10.0002 7.99992 10.0002C8.5522 10.0002 8.99992 10.4479 8.99992 11.0002Z" fill="#757575"/>
</svg>
