<svg width="16" height="16" viewBox="0 0 16 16" fill="none" xmlns="http://www.w3.org/2000/svg">
<path fill-rule="evenodd" clip-rule="evenodd" d="M4.6665 8.00016C4.6665 7.63197 4.96498 7.3335 5.33317 7.3335H10.6665C11.0347 7.3335 11.3332 7.63197 11.3332 8.00016C11.3332 8.36835 11.0347 8.66683 10.6665 8.66683H5.33317C4.96498 8.66683 4.6665 8.36835 4.6665 8.00016Z" fill="#757575"/>
<path fill-rule="evenodd" clip-rule="evenodd" d="M8.00008 1.99984C4.68637 1.99984 2.00008 4.68613 2.00008 7.99984C2.00008 11.3135 4.68637 13.9998 8.00008 13.9998C11.3138 13.9998 14.0001 11.3135 14.0001 7.99984C14.0001 4.68613 11.3138 1.99984 8.00008 1.99984ZM0.666748 7.99984C0.666748 3.94975 3.94999 0.666504 8.00008 0.666504C12.0502 0.666504 15.3334 3.94975 15.3334 7.99984C15.3334 12.0499 12.0502 15.3332 8.00008 15.3332C3.94999 15.3332 0.666748 12.0499 0.666748 7.99984Z" fill="#757575"/>
<path d="M9 5C9 5.55228 8.55228 6 8 6C7.44772 6 7 5.55228 7 5C7 4.44772 7.44772 4 8 4C8.55228 4 9 4.44772 9 5Z" fill="#757575"/>
<path d="M9 11C9 11.5523 8.55228 12 8 12C7.44772 12 7 11.5523 7 11C7 10.4477 7.44772 10 8 10C8.55228 10 9 10.4477 9 11Z" fill="#757575"/>
</svg>
