<svg width="16" height="16" viewBox="0 0 16 16" fill="none" xmlns="http://www.w3.org/2000/svg">
<path d="M14.4999 8.56016C12.1666 7.94016 10.0799 8.0135 8.53992 8.56016C6.81992 9.1735 5.19992 10.4668 3.57992 12.7735M14.6666 8.00016C14.6666 11.6821 11.6818 14.6668 7.99992 14.6668C4.31802 14.6668 1.33325 11.6821 1.33325 8.00016C1.33325 4.31826 4.31802 1.3335 7.99992 1.3335C11.6818 1.3335 14.6666 4.31826 14.6666 8.00016ZM5.70659 1.8335C8.61992 5.8535 9.71992 8.1135 11.0599 13.6468L5.70659 1.8335ZM12.7533 3.3935C8.53992 5 6.99992 5.5 1.49992 7.2935L12.7533 3.3935Z" stroke="currentColor" stroke-linecap="round" stroke-linejoin="round"/>
</svg>
