<svg width="16" height="16" viewBox="0 0 16 16" fill="none" xmlns="http://www.w3.org/2000/svg">
<path d="M11.3333 2.00004C11.5083 1.82494 11.7162 1.68605 11.945 1.59129C12.1738 1.49653 12.419 1.44775 12.6666 1.44775C12.9142 1.44775 13.1594 1.49653 13.3882 1.59129C13.617 1.68605 13.8248 1.82494 13.9999 2.00004C14.175 2.17513 14.3139 2.383 14.4087 2.61178C14.5034 2.84055 14.5522 3.08575 14.5522 3.33337C14.5522 3.58099 14.5034 3.82619 14.4087 4.05497C14.3139 4.28374 14.175 4.49161 13.9999 4.66671L4.99992 13.6667L1.33325 14.6667L2.33325 11L11.3333 2.00004Z" stroke="#757575" stroke-linecap="round" stroke-linejoin="round"/>
</svg>
