<svg width="16" height="16" viewBox="0 0 16 16" fill="none" xmlns="http://www.w3.org/2000/svg">
<path d="M6.60008 2.8265C7.05897 2.71909 7.52879 2.6654 8.00008 2.6665C12.6667 2.6665 15.3334 7.99984 15.3334 7.99984C14.9287 8.75691 14.4461 9.46966 13.8934 10.1265M9.41341 9.41317C9.23032 9.60967 9.00951 9.76727 8.76418 9.87659C8.51885 9.9859 8.25402 10.0447 7.98548 10.0494C7.71693 10.0542 7.45019 10.0048 7.20115 9.90416C6.95212 9.80357 6.7259 9.65386 6.53598 9.46394C6.34606 9.27402 6.19634 9.0478 6.09575 8.79876C5.99516 8.54973 5.94577 8.28298 5.9505 8.01444C5.95524 7.7459 6.01402 7.48107 6.12333 7.23574C6.23264 6.9904 6.39025 6.7696 6.58675 6.5865M0.666748 0.666504L15.3334 15.3332M11.9601 11.9598C10.8205 12.8285 9.43282 13.3097 8.00008 13.3332C3.33341 13.3332 0.666748 7.99984 0.666748 7.99984C1.49601 6.45443 2.64617 5.10424 4.04008 4.03984L11.9601 11.9598Z" stroke="currentColor" stroke-linecap="round" stroke-linejoin="round"/>
</svg>
