<svg width="16" height="16" viewBox="0 0 16 16" fill="none" xmlns="http://www.w3.org/2000/svg">
<path d="M7.99992 1.3335H5.66659C5.04775 1.3335 4.45425 1.57933 4.01667 2.01691C3.57908 2.4545 3.33325 3.04799 3.33325 3.66683C3.33325 4.28567 3.57908 4.87916 4.01667 5.31675C4.45425 5.75433 5.04775 6.00016 5.66659 6.00016M7.99992 1.3335V6.00016M7.99992 1.3335H10.3333C10.6397 1.3335 10.9431 1.39385 11.2262 1.51111C11.5093 1.62837 11.7665 1.80024 11.9832 2.01691C12.1998 2.23358 12.3717 2.49081 12.489 2.7739C12.6062 3.05699 12.6666 3.36041 12.6666 3.66683C12.6666 3.97325 12.6062 4.27666 12.489 4.55976C12.3717 4.84285 12.1998 5.10008 11.9832 5.31675C11.7665 5.53342 11.5093 5.70529 11.2262 5.82255C10.9431 5.93981 10.6397 6.00016 10.3333 6.00016M7.99992 6.00016H5.66659M7.99992 6.00016H10.3333M7.99992 6.00016V10.6668M5.66659 6.00016C5.04775 6.00016 4.45425 6.246 4.01667 6.68358C3.57908 7.12117 3.33325 7.71466 3.33325 8.3335C3.33325 8.95234 3.57908 9.54583 4.01667 9.98341C4.45425 10.421 5.04775 10.6668 5.66659 10.6668M10.3333 6.00016C10.0268 6.00016 9.72342 6.06052 9.44032 6.17778C9.15723 6.29504 8.90001 6.46691 8.68334 6.68358C8.46667 6.90025 8.29479 7.15748 8.17753 7.44057C8.06027 7.72366 7.99992 8.02708 7.99992 8.3335C7.99992 8.63991 8.06027 8.94333 8.17753 9.22642C8.29479 9.50952 8.46667 9.76674 8.68334 9.98341C8.90001 10.2001 9.15723 10.372 9.44032 10.4892C9.72342 10.6065 10.0268 10.6668 10.3333 10.6668C10.6397 10.6668 10.9431 10.6065 11.2262 10.4892C11.5093 10.372 11.7665 10.2001 11.9832 9.98341C12.1998 9.76674 12.3717 9.50952 12.489 9.22642C12.6062 8.94333 12.6666 8.63991 12.6666 8.3335C12.6666 8.02708 12.6062 7.72366 12.489 7.44057C12.3717 7.15748 12.1998 6.90025 11.9832 6.68358C11.7665 6.46691 11.5093 6.29504 11.2262 6.17778C10.9431 6.06052 10.6397 6.00016 10.3333 6.00016ZM5.66659 10.6668C5.04775 10.6668 4.45425 10.9127 4.01667 11.3502C3.57908 11.7878 3.33325 12.3813 3.33325 13.0002C3.33325 13.619 3.57908 14.2125 4.01667 14.6501C4.45425 15.0877 5.04775 15.3335 5.66659 15.3335C6.28542 15.3335 6.87892 15.0877 7.3165 14.6501C7.75409 14.2125 7.99992 13.619 7.99992 13.0002V10.6668M5.66659 10.6668H7.99992" stroke="#757575" stroke-width="1.33333" stroke-linecap="round" stroke-linejoin="round"/>
</svg>
