<svg width="16" height="16" viewBox="0 0 16 16" fill="none" xmlns="http://www.w3.org/2000/svg">
<path d="M1.32495 4.5592C1.80933 3.54983 2.4937 2.6967 3.3562 1.98733C4.52495 1.0217 5.86558 0.440453 7.3687 0.262328C9.13433 0.0529527 10.7937 0.387328 12.3281 1.30608C12.7093 1.5342 13.0656 1.79358 13.4062 2.07483C13.4906 2.14358 13.4812 2.1842 13.4093 2.25295C12.7125 2.9467 12.0156 3.64045 11.325 4.34045C11.2437 4.4217 11.2 4.41545 11.1125 4.34983C9.08745 2.79045 6.13433 3.21233 4.62495 5.27483C4.35933 5.63733 4.1437 6.02795 3.9937 6.45295C3.9812 6.49045 3.9562 6.52483 3.93745 6.56233C3.53433 6.25608 3.12808 5.94983 2.72808 5.64045C2.25933 5.28108 1.79058 4.9217 1.32495 4.5592Z" fill="#E94335"/>
<path d="M3.9374 9.49365C4.07178 9.79053 4.18428 10.0999 4.35303 10.378C5.0624 11.5405 6.0749 12.2874 7.40928 12.553C8.6124 12.7937 9.76865 12.6312 10.8468 12.028C10.8843 12.0093 10.9218 11.9905 10.9562 11.9718C10.9749 11.9905 10.9905 12.0124 11.0093 12.028C11.8155 12.653 12.6249 13.278 13.4312 13.903C13.0437 14.2874 12.603 14.5968 12.1343 14.8655C10.7749 15.6405 9.30303 15.953 7.75303 15.8343C5.82178 15.6843 4.15615 14.9218 2.78115 13.5468C2.17803 12.9437 1.68115 12.2624 1.32178 11.4843C1.65615 11.228 1.99053 10.9749 2.3249 10.7187C2.8624 10.3093 3.3999 9.90303 3.9374 9.49365Z" fill="#34A853"/>
<path d="M13.4343 13.9031C12.628 13.2781 11.8187 12.6531 11.0124 12.0281C10.9937 12.0125 10.9749 11.9906 10.9593 11.9719C11.2374 11.7563 11.5218 11.5469 11.7499 11.2719C12.1312 10.8156 12.3843 10.3 12.5155 9.72188C12.5312 9.65 12.5187 9.625 12.4468 9.62813C12.4093 9.63125 12.3749 9.62813 12.3374 9.62813C11.0624 9.62813 9.78429 9.625 8.50929 9.63125C8.36866 9.63125 8.33741 9.59375 8.34054 9.45938C8.34679 8.55313 8.34679 7.64688 8.34054 6.74062C8.34054 6.625 8.37179 6.59375 8.48741 6.59375C10.8249 6.59688 13.1624 6.59688 15.5031 6.59375C15.6031 6.59375 15.6437 6.61875 15.6687 6.725C15.8593 7.58438 15.8468 8.44688 15.7312 9.31563C15.6374 10.0094 15.4687 10.6813 15.2093 11.3313C14.8249 12.2906 14.2593 13.1281 13.5155 13.8469C13.4874 13.8688 13.4593 13.8844 13.4343 13.9031Z" fill="#4285F3"/>
<path d="M3.93748 9.49375C3.39998 9.90312 2.86248 10.3094 2.32498 10.7187C1.9906 10.9719 1.65623 11.2281 1.32185 11.4844C1.06248 11.0031 0.893726 10.4937 0.756226 9.96875C0.493726 8.95312 0.453101 7.92187 0.596851 6.8875C0.709351 6.075 0.943726 5.29375 1.32185 4.5625C1.7906 4.92187 2.25623 5.28438 2.72498 5.64375C3.1281 5.95313 3.53123 6.25938 3.93435 6.56562C3.8656 6.9 3.76873 7.22812 3.73748 7.57187C3.68123 8.19687 3.7406 8.80625 3.91873 9.40625C3.93123 9.43125 3.93435 9.4625 3.93748 9.49375Z" fill="#FABB06"/>
</svg>
