<svg width="16" height="16" viewBox="0 0 16 16" fill="none" xmlns="http://www.w3.org/2000/svg">
<path d="M8 3.25C8 2.91848 8.1317 2.60054 8.36612 2.36612C8.60054 2.1317 8.91848 2 9.25 2C9.58152 2 9.89946 2.1317 10.1339 2.36612C10.3683 2.60054 10.5 2.91848 10.5 3.25V7" stroke="currentColor" stroke-linecap="round" stroke-linejoin="round"/>
<path d="M5.5 4.25V2.25C5.5 1.91848 5.6317 1.60054 5.86612 1.36612C6.10054 1.1317 6.41848 1 6.75 1C7.08152 1 7.39946 1.1317 7.63388 1.36612C7.8683 1.60054 8 1.91848 8 2.25V6.5" stroke="currentColor" stroke-linecap="round" stroke-linejoin="round"/>
<path d="M8 10.75C8 10.087 8.26339 9.45107 8.73223 8.98223C9.20107 8.51339 9.83696 8.25 10.5 8.25V7C10.5 6.66848 10.6317 6.35054 10.8661 6.11612C11.1005 5.8817 11.4185 5.75 11.75 5.75C12.0815 5.75 12.3995 5.8817 12.6339 6.11612C12.8683 6.35054 13 6.66848 13 7V9.5C13 10.8261 12.4732 12.0979 11.5355 13.0355C10.5979 13.9732 9.32608 14.5 8 14.5C6.67392 14.5 5.40215 13.9732 4.46447 13.0355C3.52678 12.0979 3 10.8261 3 9.5V4.25C3 3.91848 3.1317 3.60054 3.36612 3.36612C3.60054 3.1317 3.91848 3 4.25 3C4.58152 3 4.89946 3.1317 5.13388 3.36612C5.3683 3.60054 5.5 3.91848 5.5 4.25V7" stroke="currentColor" stroke-linecap="round" stroke-linejoin="round"/>
</svg>
