<svg width="16" height="16" viewBox="0 0 16 16" fill="none" xmlns="http://www.w3.org/2000/svg">
<path d="M8.24882 1.48819C8.35706 1.37995 8.50385 1.31915 8.65691 1.31915C8.80998 1.31915 8.95677 1.37995 9.06501 1.48819C9.17324 1.59642 9.23404 1.74321 9.23404 1.89628V6.10106C9.23404 6.46534 9.52934 6.76064 9.89362 6.76064C10.2579 6.76064 10.5532 6.46534 10.5532 6.10106V2.88564C10.5532 2.73257 10.614 2.58578 10.7222 2.47755C10.8305 2.36932 10.9773 2.30851 11.1303 2.30851C11.2834 2.30851 11.4302 2.36932 11.5384 2.47755C11.6466 2.58578 11.7074 2.73257 11.7074 2.88564V7.24308C11.1226 7.36903 10.5812 7.66096 10.1517 8.0905C9.56412 8.67805 9.23404 9.47493 9.23404 10.3059C9.23404 10.6701 9.52934 10.9654 9.89362 10.9654C10.2579 10.9654 10.5532 10.6701 10.5532 10.3059C10.5532 9.82479 10.7443 9.36344 11.0844 9.02328C11.4246 8.68312 11.886 8.49202 12.367 8.49202C12.7313 8.49202 13.0266 8.19672 13.0266 7.83245V6.59574C13.0266 6.44268 13.0874 6.29589 13.1956 6.18765C13.3039 6.07942 13.4507 6.01862 13.6037 6.01862C13.7568 6.01862 13.9036 6.07942 14.0118 6.18765C14.12 6.29589 14.1809 6.44268 14.1809 6.59574V9.06915C14.1809 10.2062 13.7292 11.2967 12.9251 12.1007C12.1211 12.9047 11.0307 13.3564 9.89362 13.3564C9.574 13.3564 9.25807 13.3207 8.95115 13.2515C8.80378 13.6822 8.60226 14.0878 8.3547 14.4602C8.85086 14.6018 9.36844 14.6755 9.89362 14.6755C11.3805 14.6755 12.8065 14.0849 13.8579 13.0335C14.9093 11.9821 15.5 10.5561 15.5 9.06915V6.59574C15.5 6.09282 15.3002 5.6105 14.9446 5.25487C14.589 4.89925 14.1066 4.69947 13.6037 4.69947C13.406 4.69947 13.2115 4.73034 13.0266 4.78942V2.88564C13.0266 2.38271 12.8268 1.90039 12.4712 1.54477C12.1156 1.18915 11.6332 0.989362 11.1303 0.989362C10.8753 0.989362 10.6255 1.04075 10.3949 1.13778C10.301 0.922585 10.167 0.724647 9.99778 0.555407C9.64216 0.199786 9.15984 0 8.65691 0C8.15399 0 7.67167 0.199786 7.31604 0.555407C6.96042 0.911027 6.76064 1.39335 6.76064 1.89628V2.06868C6.57574 2.0096 6.38122 1.97872 6.18351 1.97872C5.68059 1.97872 5.19826 2.17851 4.84264 2.53413C4.48702 2.88975 4.28723 3.37208 4.28723 3.875V6.2761C4.74521 6.30434 5.18738 6.391 5.60638 6.52872V3.875C5.60638 3.72194 5.66719 3.57514 5.77542 3.46691C5.88365 3.35868 6.03045 3.29787 6.18351 3.29787C6.33657 3.29787 6.48337 3.35868 6.5916 3.46691C6.69983 3.57514 6.76064 3.72194 6.76064 3.875V6.59574C6.76064 6.96002 7.05594 7.25532 7.42021 7.25532C7.78449 7.25532 8.07979 6.96002 8.07979 6.59574V1.89628C8.07979 1.74321 8.14059 1.59642 8.24882 1.48819Z" fill="#757575"/>
<path fill-rule="evenodd" clip-rule="evenodd" d="M4.94681 8.07979C4.94681 7.80658 4.72533 7.58511 4.45213 7.58511H3.46277C3.18956 7.58511 2.96809 7.80658 2.96809 8.07979V8.74336C2.86881 8.77845 2.77196 8.81867 2.67785 8.8637L2.20847 8.39431C2.01528 8.20113 1.70207 8.20113 1.50888 8.39431L0.8093 9.0939C0.616115 9.28708 0.616115 9.6003 0.8093 9.79348L1.27865 10.2628C1.2336 10.357 1.19336 10.4539 1.15825 10.5532H0.494681C0.221476 10.5532 0 10.7747 0 11.0479V12.0372C0 12.3104 0.221476 12.5319 0.494681 12.5319H1.15825C1.19338 12.6313 1.23364 12.7282 1.27873 12.8224L0.809427 13.2917C0.616242 13.4849 0.616242 13.7981 0.809427 13.9913L1.50901 14.6909C1.7022 14.8841 2.01541 14.8841 2.2086 14.6909L2.67802 14.2215C2.77207 14.2665 2.86887 14.3067 2.96808 14.3417V15.0053C2.96808 15.2785 3.18956 15.5 3.46277 15.5H4.45213C4.72533 15.5 4.94681 15.2785 4.94681 15.0053V14.3417C5.04613 14.3066 5.14302 14.2664 5.23716 14.2213L5.70639 14.6906C5.89957 14.8838 6.21279 14.8838 6.40597 14.6906L7.10556 13.991C7.29874 13.7978 7.29874 13.4846 7.10556 13.2914L6.6363 12.8221C6.68133 12.728 6.72155 12.6312 6.75664 12.5319H7.42021C7.69342 12.5319 7.91489 12.3104 7.91489 12.0372V11.0479C7.91489 10.7747 7.69342 10.5532 7.42021 10.5532H6.75664C6.72157 10.454 6.68138 10.3572 6.63638 10.2631L7.10569 9.79382C7.29887 9.60063 7.29887 9.28742 7.10569 9.09423L6.4061 8.39465C6.21292 8.20146 5.8997 8.20146 5.70652 8.39465L5.23733 8.86384C5.14313 8.81875 5.04618 8.77848 4.94681 8.74336V8.07979ZM3.95745 13.0266C4.77706 13.0266 5.44149 12.3622 5.44149 11.5426C5.44149 10.7229 4.77706 10.0585 3.95745 10.0585C3.13783 10.0585 2.4734 10.7229 2.4734 11.5426C2.4734 12.3622 3.13783 13.0266 3.95745 13.0266Z" fill="#757575"/>
</svg>
