<svg width="16" height="16" viewBox="0 0 16 16" fill="none" xmlns="http://www.w3.org/2000/svg">
<path d="M14.6666 7.99984H1.33325M14.6666 7.99984V11.9998C14.6666 12.3535 14.5261 12.6926 14.2761 12.9426C14.026 13.1927 13.6869 13.3332 13.3333 13.3332H2.66659C2.31296 13.3332 1.97382 13.1927 1.72378 12.9426C1.47373 12.6926 1.33325 12.3535 1.33325 11.9998V7.99984M14.6666 7.99984L12.3666 3.4065C12.2562 3.18436 12.086 2.99742 11.8752 2.86669C11.6644 2.73596 11.4213 2.66664 11.1733 2.6665H4.82659C4.57853 2.66664 4.33543 2.73596 4.12462 2.86669C3.9138 2.99742 3.74364 3.18436 3.63325 3.4065L1.33325 7.99984M3.99992 10.6665H4.00659M6.66659 10.6665H6.67325" stroke="currentColor" stroke-linecap="round" stroke-linejoin="round"/>
</svg>
