<svg width="16" height="16" viewBox="0 0 16 16" fill="none" xmlns="http://www.w3.org/2000/svg">
<path fill-rule="evenodd" clip-rule="evenodd" d="M2 6.00022C2 5.63203 2.29848 5.33356 2.66667 5.33356H13.3333C13.7015 5.33356 14 5.63203 14 6.00022C14 6.36841 13.7015 6.66689 13.3333 6.66689H2.66667C2.29848 6.66689 2 6.36841 2 6.00022Z" fill="currentColor"/>
<path fill-rule="evenodd" clip-rule="evenodd" d="M2 10.0002C2 9.63203 2.29848 9.33356 2.66667 9.33356H13.3333C13.7015 9.33356 14 9.63203 14 10.0002C14 10.3684 13.7015 10.6669 13.3333 10.6669H2.66667C2.29848 10.6669 2 10.3684 2 10.0002Z" fill="currentColor"/>
<path fill-rule="evenodd" clip-rule="evenodd" d="M6.74029 1.33763C7.10623 1.37829 7.36992 1.7079 7.32926 2.07384L5.99592 14.0738C5.95526 14.4398 5.62565 14.7035 5.25971 14.6628C4.89377 14.6222 4.63008 14.2925 4.67074 13.9266L6.00408 1.9266C6.04474 1.56066 6.37435 1.29697 6.74029 1.33763Z" fill="currentColor"/>
<path fill-rule="evenodd" clip-rule="evenodd" d="M10.7403 1.33763C11.1062 1.37829 11.3699 1.7079 11.3293 2.07384L9.99592 14.0738C9.95526 14.4398 9.62565 14.7035 9.25971 14.6628C8.89377 14.6222 8.63008 14.2925 8.67074 13.9266L10.0041 1.9266C10.0447 1.56066 10.3743 1.29697 10.7403 1.33763Z" fill="currentColor"/>
</svg>
