<svg width="16" height="16" viewBox="0 0 16 16" fill="none" xmlns="http://www.w3.org/2000/svg">
<path d="M11.6666 4.3335H11.6733M4.66659 1.3335H11.3333C13.1742 1.3335 14.6666 2.82588 14.6666 4.66683V11.3335C14.6666 13.1744 13.1742 14.6668 11.3333 14.6668H4.66659C2.82564 14.6668 1.33325 13.1744 1.33325 11.3335V4.66683C1.33325 2.82588 2.82564 1.3335 4.66659 1.3335ZM10.6666 7.58016C10.7489 8.13499 10.6541 8.70164 10.3958 9.19951C10.1374 9.69737 9.72868 10.1011 9.22767 10.3533C8.72666 10.6055 8.15888 10.6932 7.60511 10.6041C7.05134 10.515 6.53976 10.2536 6.14314 9.85694C5.74653 9.46032 5.48507 8.94875 5.39596 8.39497C5.30685 7.8412 5.39463 7.27343 5.6468 6.77241C5.89898 6.2714 6.30271 5.86266 6.80058 5.60432C7.29844 5.34599 7.86509 5.25122 8.41992 5.3335C8.98587 5.41742 9.50982 5.68114 9.91438 6.0857C10.3189 6.49026 10.5827 7.01421 10.6666 7.58016Z" stroke="#757575" stroke-linecap="round" stroke-linejoin="round"/>
</svg>
