<svg width="16" height="16" viewBox="0 0 16 16" fill="none" xmlns="http://www.w3.org/2000/svg">
<path d="M3.28659 3.28683L6.11325 6.1135M9.88659 9.88683L12.7133 12.7135M12.7133 3.28683L9.88659 6.1135L12.2399 3.76016M3.28659 12.7135L6.11325 9.88683M14.6666 8.00016C14.6666 11.6821 11.6818 14.6668 7.99992 14.6668C4.31802 14.6668 1.33325 11.6821 1.33325 8.00016C1.33325 4.31826 4.31802 1.3335 7.99992 1.3335C11.6818 1.3335 14.6666 4.31826 14.6666 8.00016ZM10.6666 8.00016C10.6666 9.47292 9.47268 10.6668 7.99992 10.6668C6.52716 10.6668 5.33325 9.47292 5.33325 8.00016C5.33325 6.5274 6.52716 5.3335 7.99992 5.3335C9.47268 5.3335 10.6666 6.5274 10.6666 8.00016Z" stroke="#757575" stroke-width="1.33333" stroke-linecap="round" stroke-linejoin="round"/>
</svg>
