<svg width="16" height="16" viewBox="0 0 16 16" fill="none" xmlns="http://www.w3.org/2000/svg">
<path d="M10.0001 4.6665H12.0001C12.4378 4.6665 12.8713 4.75272 13.2757 4.92024C13.6801 5.08775 14.0476 5.33329 14.3571 5.64281C14.6666 5.95234 14.9122 6.31981 15.0797 6.72423C15.2472 7.12864 15.3334 7.5621 15.3334 7.99984C15.3334 8.43758 15.2472 8.87103 15.0797 9.27545C14.9122 9.67987 14.6666 10.0473 14.3571 10.3569C14.0476 10.6664 13.6801 10.9119 13.2757 11.0794C12.8713 11.247 12.4378 11.3332 12.0001 11.3332H10.0001M6.00008 11.3332H4.00008C3.56234 11.3332 3.12889 11.247 2.72447 11.0794C2.32005 10.9119 1.95259 10.6664 1.64306 10.3569C1.01794 9.73174 0.666748 8.88389 0.666748 7.99984C0.666748 7.11578 1.01794 6.26794 1.64306 5.64281C2.26818 5.01769 3.11603 4.6665 4.00008 4.6665H6.00008M5.33341 7.99984H10.6667" stroke="#757575" stroke-linecap="round" stroke-linejoin="round"/>
</svg>
