<svg width="16" height="16" viewBox="0 0 16 16" fill="none" xmlns="http://www.w3.org/2000/svg">
<path d="M10.6666 5.3335C11.7275 5.3335 12.7449 5.75492 13.495 6.50507C14.2452 7.25521 14.6666 8.27263 14.6666 9.3335V14.0002H11.9999V9.3335C11.9999 8.97987 11.8594 8.64074 11.6094 8.39069C11.3593 8.14064 11.0202 8.00016 10.6666 8.00016C10.313 8.00016 9.97383 8.14064 9.72378 8.39069C9.47373 8.64074 9.33325 8.97987 9.33325 9.3335V14.0002H6.66659V9.3335C6.66659 8.27263 7.08801 7.25521 7.83816 6.50507C8.5883 5.75492 9.60572 5.3335 10.6666 5.3335Z" stroke="#757575" stroke-linecap="round" stroke-linejoin="round"/>
<path d="M3.99992 6.00016H1.33325V14.0002H3.99992V6.00016Z" stroke="#757575" stroke-linecap="round" stroke-linejoin="round"/>
<path d="M2.66659 4.00016C3.40297 4.00016 3.99992 3.40321 3.99992 2.66683C3.99992 1.93045 3.40297 1.3335 2.66659 1.3335C1.93021 1.3335 1.33325 1.93045 1.33325 2.66683C1.33325 3.40321 1.93021 4.00016 2.66659 4.00016Z" stroke="#757575" stroke-linecap="round" stroke-linejoin="round"/>
</svg>
