<svg width="16" height="16" viewBox="0 0 16 16" fill="none" xmlns="http://www.w3.org/2000/svg">
<g clip-path="url(#clip0_1178_18477)">
<path d="M0.666748 0.666565L15.3334 15.3332M10.0001 6.22657V2.66657C10.0006 2.17058 9.81677 1.69211 9.48433 1.32403C9.1519 0.955952 8.69455 0.724526 8.20108 0.674681C7.70761 0.624835 7.21322 0.760127 6.81389 1.05429C6.41456 1.34845 6.13878 1.7805 6.04008 2.26657M11.3334 11.2999C10.6826 11.9642 9.84817 12.4189 8.93715 12.6056C8.02614 12.7924 7.0801 12.7027 6.22041 12.3481C5.36072 11.9935 4.62659 11.3901 4.11219 10.6153C3.5978 9.84059 3.32661 8.92983 3.33341 7.9999V6.66657M12.6667 6.66657V7.9999C12.6665 8.27486 12.642 8.54926 12.5934 8.8199M8.00008 12.6666V15.3332M5.33341 15.3332H10.6667M6.00008 5.9999V7.9999C6.00043 8.39521 6.11792 8.78154 6.3377 9.11012C6.55749 9.43869 6.86972 9.69477 7.23495 9.846C7.60019 9.99723 8.00205 10.0368 8.38978 9.95981C8.77751 9.88278 9.13372 9.69258 9.41341 9.41323L6.00008 5.9999Z" stroke="currentColor" stroke-linecap="round" stroke-linejoin="round"/>
</g>
<defs>
<clipPath id="clip0_1178_18477">
<rect width="16" height="16" fill="white"/>
</clipPath>
</defs>
</svg>
