<svg width="16" height="16" viewBox="0 0 16 16" fill="none" xmlns="http://www.w3.org/2000/svg">
<path d="M12.6666 6.6665V7.99984C12.6666 9.23751 12.1749 10.4245 11.2998 11.2997C10.4246 12.1748 9.2376 12.6665 7.99992 12.6665M7.99992 12.6665C6.76224 12.6665 5.57526 12.1748 4.70009 11.2997C3.82492 10.4245 3.33325 9.23751 3.33325 7.99984V6.6665M7.99992 12.6665V15.3332M5.33325 15.3332H10.6666M7.99992 0.666504C7.46949 0.666504 6.96078 0.877218 6.5857 1.25229C6.21063 1.62736 5.99992 2.13607 5.99992 2.6665V7.99984C5.99992 8.53027 6.21063 9.03898 6.5857 9.41405C6.96078 9.78912 7.46949 9.99984 7.99992 9.99984C8.53035 9.99984 9.03906 9.78912 9.41413 9.41405C9.78921 9.03898 9.99992 8.53027 9.99992 7.99984V2.6665C9.99992 2.13607 9.78921 1.62736 9.41413 1.25229C9.03906 0.877218 8.53035 0.666504 7.99992 0.666504Z" stroke="#757575" stroke-linecap="round" stroke-linejoin="round"/>
</svg>
