<svg width="16" height="16" viewBox="0 0 16 16" fill="none" xmlns="http://www.w3.org/2000/svg">
<path d="M8.00008 8.66683C8.36827 8.66683 8.66675 8.36835 8.66675 8.00016C8.66675 7.63197 8.36827 7.3335 8.00008 7.3335C7.63189 7.3335 7.33342 7.63197 7.33342 8.00016C7.33342 8.36835 7.63189 8.66683 8.00008 8.66683Z" stroke="currentColor" stroke-linecap="round" stroke-linejoin="round"/>
<path d="M12.6667 8.66683C13.0349 8.66683 13.3334 8.36835 13.3334 8.00016C13.3334 7.63197 13.0349 7.3335 12.6667 7.3335C12.2986 7.3335 12.0001 7.63197 12.0001 8.00016C12.0001 8.36835 12.2986 8.66683 12.6667 8.66683Z" stroke="currentColor" stroke-linecap="round" stroke-linejoin="round"/>
<path d="M3.33341 8.66683C3.7016 8.66683 4.00008 8.36835 4.00008 8.00016C4.00008 7.63197 3.7016 7.3335 3.33341 7.3335C2.96522 7.3335 2.66675 7.63197 2.66675 8.00016C2.66675 8.36835 2.96522 8.66683 3.33341 8.66683Z" stroke="currentColor" stroke-linecap="round" stroke-linejoin="round"/>
</svg>
