<svg width="16" height="16" viewBox="0 0 16 16" fill="none" xmlns="http://www.w3.org/2000/svg">
<path d="M7.99992 8.6665C8.36811 8.6665 8.66659 8.36803 8.66659 7.99984C8.66659 7.63165 8.36811 7.33317 7.99992 7.33317C7.63173 7.33317 7.33325 7.63165 7.33325 7.99984C7.33325 8.36803 7.63173 8.6665 7.99992 8.6665Z" stroke="currentColor" stroke-linecap="round" stroke-linejoin="round"/>
<path d="M7.99992 3.99984C8.36811 3.99984 8.66659 3.70136 8.66659 3.33317C8.66659 2.96498 8.36811 2.6665 7.99992 2.6665C7.63173 2.6665 7.33325 2.96498 7.33325 3.33317C7.33325 3.70136 7.63173 3.99984 7.99992 3.99984Z" stroke="currentColor" stroke-linecap="round" stroke-linejoin="round"/>
<path d="M7.99992 13.3332C8.36811 13.3332 8.66659 13.0347 8.66659 12.6665C8.66659 12.2983 8.36811 11.9998 7.99992 11.9998C7.63173 11.9998 7.33325 12.2983 7.33325 12.6665C7.33325 13.0347 7.63173 13.3332 7.99992 13.3332Z" stroke="currentColor" stroke-linecap="round" stroke-linejoin="round"/>
</svg>
