<svg width="16" height="16" viewBox="0 0 16 16" fill="none" xmlns="http://www.w3.org/2000/svg">
<path d="M3.46008 8.53984C2.33732 6.80851 1.63632 4.83795 1.41341 2.7865C1.39675 2.60215 1.41866 2.41634 1.47775 2.24092C1.53683 2.0655 1.6318 1.9043 1.75659 1.76758C1.88139 1.63087 2.03328 1.52164 2.20261 1.44685C2.37193 1.37206 2.55498 1.33334 2.74008 1.33317H4.74008C5.06362 1.32999 5.37728 1.44456 5.62259 1.65553C5.8679 1.8665 6.02813 2.15947 6.07341 2.47984C6.15783 3.11988 6.31438 3.74832 6.54008 4.35317C6.62978 4.59179 6.64919 4.85111 6.59602 5.10042C6.54285 5.34973 6.41932 5.57858 6.24008 5.75984L5.39341 6.6065M15.3334 0.666504L0.666748 15.3332M7.12008 8.87317C7.79665 9.55034 8.5613 10.1333 9.39342 10.6065L10.2401 9.75984C10.4213 9.5806 10.6502 9.45707 10.8995 9.4039C11.1488 9.35073 11.4081 9.37014 11.6467 9.45984C12.2516 9.68554 12.88 9.84209 13.5201 9.92651C13.8405 9.97179 14.1334 10.132 14.3444 10.3773C14.5554 10.6226 14.6699 10.9363 14.6667 11.2598V13.2598C14.6675 13.4455 14.6295 13.6293 14.5551 13.7994C14.4807 13.9695 14.3716 14.1222 14.2348 14.2477C14.098 14.3733 13.9365 14.4688 13.7606 14.5283C13.5847 14.5878 13.3983 14.6099 13.2134 14.5932C11.162 14.3703 9.19141 13.6693 7.46008 12.5465C6.65693 12.0365 5.91243 11.4396 5.24008 10.7665L7.12008 8.87317Z" stroke="currentColor" stroke-linecap="round" stroke-linejoin="round"/>
</svg>
