<svg width="16" height="16" viewBox="0 0 16 16" fill="none" xmlns="http://www.w3.org/2000/svg">
<path d="M3.99992 6.00016V1.3335H11.9999V6.00016M3.99992 12.0002H2.66659C2.31296 12.0002 1.97382 11.8597 1.72378 11.6096C1.47373 11.3596 1.33325 11.0205 1.33325 10.6668V7.3335C1.33325 6.97987 1.47373 6.64074 1.72378 6.39069C1.97382 6.14064 2.31296 6.00016 2.66659 6.00016H13.3333C13.6869 6.00016 14.026 6.14064 14.2761 6.39069C14.5261 6.64074 14.6666 6.97987 14.6666 7.3335V10.6668C14.6666 11.0205 14.5261 11.3596 14.2761 11.6096C14.026 11.8597 13.6869 12.0002 13.3333 12.0002H11.9999M3.99992 9.3335H11.9999V14.6668H3.99992V9.3335Z" stroke="#757575" stroke-width="1.33333" stroke-linecap="round" stroke-linejoin="round"/>
</svg>
