<svg width="16" height="16" viewBox="0 0 16 16" fill="none" xmlns="http://www.w3.org/2000/svg">
<path d="M10.8266 5.17329C11.1985 5.54478 11.4936 5.98593 11.6949 6.47153C11.8962 6.95712 11.9998 7.47763 11.9998 8.00329C11.9998 8.52895 11.8962 9.04946 11.6949 9.53505C11.4936 10.0206 11.1985 10.4618 10.8266 10.8333M5.17329 10.8266C4.80139 10.4551 4.50635 10.014 4.30505 9.52838C4.10376 9.04279 4.00015 8.52228 4.00015 7.99662C4.00015 7.47096 4.10376 6.95045 4.30505 6.46486C4.50635 5.97927 4.80139 5.53811 5.17329 5.16662M12.7133 3.28662C13.9631 4.53681 14.6652 6.23219 14.6652 7.99995C14.6652 9.76772 13.9631 11.4631 12.7133 12.7133M3.28663 12.7133C2.03682 11.4631 1.33472 9.76772 1.33472 7.99995C1.33472 6.23219 2.03682 4.53681 3.28663 3.28662M9.33329 7.99995C9.33329 8.73633 8.73634 9.33329 7.99996 9.33329C7.26358 9.33329 6.66663 8.73633 6.66663 7.99995C6.66663 7.26357 7.26358 6.66662 7.99996 6.66662C8.73634 6.66662 9.33329 7.26357 9.33329 7.99995Z" stroke="currentColor" stroke-linecap="round" stroke-linejoin="round"/>
</svg>
