<svg width="16" height="16" viewBox="0 0 16 16" fill="none" xmlns="http://www.w3.org/2000/svg">
<path d="M0.666748 2.66655V6.66655M0.666748 6.66655H4.66675M0.666748 6.66655L3.76008 3.75989C4.47658 3.04303 5.363 2.51936 6.33662 2.23774C7.31025 1.95612 8.33934 1.92572 9.32789 2.14939C10.3164 2.37306 11.2322 2.84351 11.9898 3.51683C12.7473 4.19016 13.322 5.04441 13.6601 5.99989M15.3334 13.3332V9.33322M15.3334 9.33322H11.3334M15.3334 9.33322L12.2401 12.2399C11.5236 12.9567 10.6372 13.4804 9.66354 13.762C8.68992 14.0437 7.66082 14.0741 6.67227 13.8504C5.68373 13.6267 4.76795 13.1563 4.01039 12.4829C3.25284 11.8096 2.67819 10.9554 2.34008 9.99989" stroke="currentColor" stroke-linecap="round" stroke-linejoin="round"/>
</svg>
