<svg width="16" height="16" viewBox="0 0 16 16" fill="none" xmlns="http://www.w3.org/2000/svg">
<path d="M15.3334 2.66655V6.66655M15.3334 6.66655H11.3334M15.3334 6.66655L12.2401 3.75989C11.5236 3.04303 10.6372 2.51936 9.66354 2.23774C8.68992 1.95612 7.66082 1.92572 6.67227 2.14939C5.68373 2.37306 4.76795 2.84351 4.01039 3.51683C3.25284 4.19016 2.67819 5.04441 2.34008 5.99989M0.666748 13.3332V9.33322M0.666748 9.33322H4.66675M0.666748 9.33322L3.76008 12.2399C4.47658 12.9567 5.363 13.4804 6.33662 13.762C7.31025 14.0437 8.33934 14.0741 9.32789 13.8504C10.3164 13.6267 11.2322 13.1563 11.9898 12.4829C12.7473 11.8096 13.322 10.9554 13.6601 9.99989" stroke="currentColor" stroke-linecap="round" stroke-linejoin="round"/>
</svg>
