<svg width="16" height="16" viewBox="0 0 16 16" fill="none" xmlns="http://www.w3.org/2000/svg">
<path d="M0.666748 2.6668V6.6668M0.666748 6.6668H4.66675M0.666748 6.6668L3.76008 3.76013C4.68069 2.84108 5.87505 2.24611 7.1632 2.06487C8.45135 1.88364 9.76351 2.12595 10.902 2.7553C12.0404 3.38466 12.9435 4.36696 13.4752 5.5542C14.0068 6.74143 14.1382 8.06929 13.8496 9.3377C13.5609 10.6061 12.8679 11.7464 11.8748 12.5866C10.8818 13.4269 9.64258 13.9217 8.34389 13.9964C7.0452 14.0712 5.7574 13.7218 4.67452 13.001C3.59164 12.2802 2.77234 11.227 2.34008 10.0001" stroke="#757575" stroke-linecap="round" stroke-linejoin="round"/>
</svg>
