<svg width="16" height="16" viewBox="0 0 16 16" fill="none" xmlns="http://www.w3.org/2000/svg">
<path d="M15.3333 2.66684V6.66684M15.3333 6.66684H11.3333M15.3333 6.66684L12.2467 3.76017C11.3271 2.84 10.1333 2.24363 8.84531 2.06093C7.55729 1.87824 6.24478 2.11912 5.10557 2.74726C3.96636 3.37541 3.06217 4.35681 2.52924 5.54355C1.99632 6.7303 1.86354 8.0581 2.15091 9.32688C2.43828 10.5957 3.13024 11.7367 4.1225 12.578C5.11477 13.4193 6.35359 13.9153 7.65228 13.9912C8.95097 14.0672 10.2392 13.719 11.3228 12.9992C12.4064 12.2793 13.2266 11.2268 13.66 10.0002" stroke="currentColor" stroke-linecap="round" stroke-linejoin="round"/>
</svg>
