<svg width="16" height="16" viewBox="0 0 16 16" fill="none" xmlns="http://www.w3.org/2000/svg">
<path d="M3.99992 4.00016H4.00659M3.99992 12.0002H4.00659M2.66659 1.3335H13.3333C14.0696 1.3335 14.6666 1.93045 14.6666 2.66683V5.3335C14.6666 6.06988 14.0696 6.66683 13.3333 6.66683H2.66659C1.93021 6.66683 1.33325 6.06988 1.33325 5.3335V2.66683C1.33325 1.93045 1.93021 1.3335 2.66659 1.3335ZM2.66659 9.3335H13.3333C14.0696 9.3335 14.6666 9.93045 14.6666 10.6668V13.3335C14.6666 14.0699 14.0696 14.6668 13.3333 14.6668H2.66659C1.93021 14.6668 1.33325 14.0699 1.33325 13.3335V10.6668C1.33325 9.93045 1.93021 9.3335 2.66659 9.3335Z" stroke="currentColor" stroke-linecap="round" stroke-linejoin="round"/>
</svg>
