<svg width="16" height="16" viewBox="0 0 16 16" fill="none" xmlns="http://www.w3.org/2000/svg">
<path d="M8.00008 9.99984C9.10465 9.99984 10.0001 9.10441 10.0001 7.99984C10.0001 6.89527 9.10465 5.99984 8.00008 5.99984C6.89551 5.99984 6.00008 6.89527 6.00008 7.99984C6.00008 9.10441 6.89551 9.99984 8.00008 9.99984Z" stroke="#757575" stroke-width="1.33333" stroke-linecap="round" stroke-linejoin="round"/>
<path d="M12.9334 9.99984C12.8447 10.2009 12.8182 10.424 12.8574 10.6402C12.8966 10.8565 12.9997 11.0561 13.1534 11.2132L13.1934 11.2532C13.3174 11.377 13.4157 11.5241 13.4828 11.6859C13.5499 11.8478 13.5845 12.0213 13.5845 12.1965C13.5845 12.3717 13.5499 12.5452 13.4828 12.7071C13.4157 12.869 13.3174 13.016 13.1934 13.1398C13.0696 13.2638 12.9225 13.3622 12.7607 13.4293C12.5988 13.4963 12.4253 13.5309 12.2501 13.5309C12.0749 13.5309 11.9014 13.4963 11.7395 13.4293C11.5776 13.3622 11.4306 13.2638 11.3067 13.1398L11.2667 13.0998C11.1096 12.9461 10.9101 12.843 10.6938 12.8038C10.4775 12.7646 10.2545 12.7911 10.0534 12.8798C9.85624 12.9643 9.68807 13.1047 9.56962 13.2835C9.45117 13.4624 9.3876 13.672 9.38675 13.8865V13.9998C9.38675 14.3535 9.24627 14.6926 8.99622 14.9426C8.74617 15.1927 8.40704 15.3332 8.05341 15.3332C7.69979 15.3332 7.36065 15.1927 7.11061 14.9426C6.86056 14.6926 6.72008 14.3535 6.72008 13.9998V13.9398C6.71492 13.7192 6.64349 13.5052 6.51509 13.3256C6.38668 13.1461 6.20724 13.0094 6.00008 12.9332C5.799 12.8444 5.57595 12.818 5.35969 12.8572C5.14343 12.8964 4.94387 12.9995 4.78675 13.1532L4.74675 13.1932C4.62292 13.3171 4.47587 13.4155 4.314 13.4826C4.15214 13.5497 3.97864 13.5842 3.80341 13.5842C3.62819 13.5842 3.45469 13.5497 3.29283 13.4826C3.13096 13.4155 2.98391 13.3171 2.86008 13.1932C2.73611 13.0693 2.63777 12.9223 2.57067 12.7604C2.50357 12.5986 2.46903 12.4251 2.46903 12.2498C2.46903 12.0746 2.50357 11.9011 2.57067 11.7393C2.63777 11.5774 2.73611 11.4303 2.86008 11.3065L2.90008 11.2665C3.05377 11.1094 3.15687 10.9098 3.19608 10.6936C3.2353 10.4773 3.20882 10.2542 3.12008 10.0532C3.03557 9.85599 2.89525 9.68783 2.71639 9.56938C2.53753 9.45093 2.32794 9.38736 2.11341 9.3865H2.00008C1.64646 9.3865 1.30732 9.24603 1.05727 8.99598C0.807224 8.74593 0.666748 8.40679 0.666748 8.05317C0.666748 7.69955 0.807224 7.36041 1.05727 7.11036C1.30732 6.86031 1.64646 6.71984 2.00008 6.71984H2.06008C2.28074 6.71468 2.49475 6.64325 2.67428 6.51484C2.85381 6.38644 2.99056 6.20699 3.06675 5.99984C3.15549 5.79876 3.18196 5.57571 3.14275 5.35945C3.10354 5.14318 3.00044 4.94362 2.84675 4.7865L2.80675 4.7465C2.68278 4.62267 2.58443 4.47562 2.51734 4.31376C2.45024 4.15189 2.4157 3.97839 2.4157 3.80317C2.4157 3.62795 2.45024 3.45445 2.51734 3.29258C2.58443 3.13072 2.68278 2.98367 2.80675 2.85984C2.93058 2.73587 3.07763 2.63752 3.23949 2.57042C3.40136 2.50333 3.57486 2.46879 3.75008 2.46879C3.9253 2.46879 4.0988 2.50333 4.26067 2.57042C4.42253 2.63752 4.56958 2.73587 4.69341 2.85984L4.73341 2.89984C4.89053 3.05353 5.09009 3.15663 5.30636 3.19584C5.52262 3.23505 5.74567 3.20858 5.94675 3.11984H6.00008C6.19726 3.03533 6.36543 2.89501 6.48388 2.71615C6.60233 2.53729 6.66589 2.32769 6.66675 2.11317V1.99984C6.66675 1.64622 6.80722 1.30708 7.05727 1.05703C7.30732 0.80698 7.64646 0.666504 8.00008 0.666504C8.3537 0.666504 8.69284 0.80698 8.94289 1.05703C9.19294 1.30708 9.33342 1.64622 9.33342 1.99984V2.05984C9.33427 2.27436 9.39784 2.48395 9.51629 2.66281C9.63474 2.84167 9.8029 2.982 10.0001 3.0665C10.2012 3.15525 10.4242 3.18172 10.6405 3.14251C10.8567 3.10329 11.0563 3.0002 11.2134 2.8465L11.2534 2.8065C11.3772 2.68254 11.5243 2.58419 11.6862 2.51709C11.848 2.44999 12.0215 2.41546 12.1967 2.41546C12.372 2.41546 12.5455 2.44999 12.7073 2.51709C12.8692 2.58419 13.0163 2.68254 13.1401 2.8065C13.2641 2.93033 13.3624 3.07739 13.4295 3.23925C13.4966 3.40111 13.5311 3.57462 13.5311 3.74984C13.5311 3.92506 13.4966 4.09856 13.4295 4.26042C13.3624 4.42229 13.2641 4.56934 13.1401 4.69317L13.1001 4.73317C12.9464 4.89029 12.8433 5.08985 12.8041 5.30611C12.7649 5.52237 12.7913 5.74543 12.8801 5.9465V5.99984C12.9646 6.19702 13.1049 6.36518 13.2838 6.48363C13.4626 6.60208 13.6722 6.66565 13.8867 6.6665H14.0001C14.3537 6.6665 14.6928 6.80698 14.9429 7.05703C15.1929 7.30708 15.3334 7.64622 15.3334 7.99984C15.3334 8.35346 15.1929 8.6926 14.9429 8.94265C14.6928 9.19269 14.3537 9.33317 14.0001 9.33317H13.9401C13.7256 9.33403 13.516 9.39759 13.3371 9.51604C13.1582 9.63449 13.0179 9.80266 12.9334 9.99984Z" stroke="#757575" stroke-width="1.33333" stroke-linecap="round" stroke-linejoin="round"/>
</svg>
