<svg width="16" height="16" viewBox="0 0 16 16" fill="none" xmlns="http://www.w3.org/2000/svg">
<path d="M0.666748 0.666504H3.33341L5.12008 9.59317C5.18104 9.9001 5.34802 10.1758 5.59178 10.372C5.83554 10.5683 6.14055 10.6725 6.45341 10.6665H12.9334C13.2463 10.6725 13.5513 10.5683 13.7951 10.372C14.0388 10.1758 14.2058 9.9001 14.2667 9.59317L15.3334 3.99984H4.00008M6.66675 13.9998C6.66675 14.368 6.36827 14.6665 6.00008 14.6665C5.63189 14.6665 5.33341 14.368 5.33341 13.9998C5.33341 13.6316 5.63189 13.3332 6.00008 13.3332C6.36827 13.3332 6.66675 13.6316 6.66675 13.9998ZM14.0001 13.9998C14.0001 14.368 13.7016 14.6665 13.3334 14.6665C12.9652 14.6665 12.6667 14.368 12.6667 13.9998C12.6667 13.6316 12.9652 13.3332 13.3334 13.3332C13.7016 13.3332 14.0001 13.6316 14.0001 13.9998Z" stroke="#757575" stroke-width="1.33333" stroke-linecap="round" stroke-linejoin="round"/>
</svg>
