<svg width="16" height="16" viewBox="0 0 16 16" fill="none" xmlns="http://www.w3.org/2000/svg">
<path d="M2 4.00016L4 1.3335H12L14 4.00016M2 4.00016V13.3335C2 13.6871 2.14048 14.0263 2.39052 14.2763C2.64057 14.5264 2.97971 14.6668 3.33333 14.6668H12.6667C13.0203 14.6668 13.3594 14.5264 13.6095 14.2763C13.8595 14.0263 14 13.6871 14 13.3335V4.00016M2 4.00016H14M10.6667 6.66683C10.6667 7.37407 10.3857 8.05235 9.88562 8.55245C9.38552 9.05254 8.70724 9.3335 8 9.3335C7.29276 9.3335 6.61448 9.05254 6.11438 8.55245C5.61428 8.05235 5.33333 7.37407 5.33333 6.66683" stroke="#757575" stroke-linecap="round" stroke-linejoin="round"/>
</svg>
