<svg width="16" height="16" viewBox="0 0 16 16" fill="none" xmlns="http://www.w3.org/2000/svg">
<path d="M9.66659 6.66683C9.11325 6.66683 8.66659 6.22016 8.66659 5.66683V2.3335C8.66659 1.78016 9.11325 1.3335 9.66659 1.3335C10.2199 1.3335 10.6666 1.78016 10.6666 2.3335V5.66683C10.6666 6.22016 10.2199 6.66683 9.66659 6.66683Z" stroke="#757575" stroke-linecap="round" stroke-linejoin="round"/>
<path d="M13.6666 6.66683H12.6666V5.66683C12.6666 5.1135 13.1133 4.66683 13.6666 4.66683C14.2199 4.66683 14.6666 5.1135 14.6666 5.66683C14.6666 6.22016 14.2199 6.66683 13.6666 6.66683Z" stroke="#757575" stroke-linecap="round" stroke-linejoin="round"/>
<path d="M6.33325 9.3335C6.88659 9.3335 7.33325 9.78016 7.33325 10.3335V13.6668C7.33325 14.2202 6.88659 14.6668 6.33325 14.6668C5.77992 14.6668 5.33325 14.2202 5.33325 13.6668V10.3335C5.33325 9.78016 5.77992 9.3335 6.33325 9.3335Z" stroke="#757575" stroke-linecap="round" stroke-linejoin="round"/>
<path d="M2.33325 9.3335H3.33325V10.3335C3.33325 10.8868 2.88659 11.3335 2.33325 11.3335C1.77992 11.3335 1.33325 10.8868 1.33325 10.3335C1.33325 9.78016 1.77992 9.3335 2.33325 9.3335Z" stroke="#757575" stroke-linecap="round" stroke-linejoin="round"/>
<path d="M9.33325 9.66683C9.33325 9.1135 9.77992 8.66683 10.3333 8.66683H13.6666C14.2199 8.66683 14.6666 9.1135 14.6666 9.66683C14.6666 10.2202 14.2199 10.6668 13.6666 10.6668H10.3333C9.77992 10.6668 9.33325 10.2202 9.33325 9.66683Z" stroke="#757575" stroke-linecap="round" stroke-linejoin="round"/>
<path d="M10.3333 12.6668H9.33325V13.6668C9.33325 14.2202 9.77992 14.6668 10.3333 14.6668C10.8866 14.6668 11.3333 14.2202 11.3333 13.6668C11.3333 13.1135 10.8866 12.6668 10.3333 12.6668Z" stroke="#757575" stroke-linecap="round" stroke-linejoin="round"/>
<path d="M6.66659 6.3335C6.66659 5.78016 6.21992 5.3335 5.66659 5.3335H2.33325C1.77992 5.3335 1.33325 5.78016 1.33325 6.3335C1.33325 6.88683 1.77992 7.3335 2.33325 7.3335H5.66659C6.21992 7.3335 6.66659 6.88683 6.66659 6.3335Z" stroke="#757575" stroke-linecap="round" stroke-linejoin="round"/>
<path d="M5.66659 3.3335H6.66659V2.3335C6.66659 1.78016 6.21992 1.3335 5.66659 1.3335C5.11325 1.3335 4.66659 1.78016 4.66659 2.3335C4.66659 2.88683 5.11325 3.3335 5.66659 3.3335Z" stroke="#757575" stroke-linecap="round" stroke-linejoin="round"/>
</svg>
