<svg width="16" height="16" viewBox="0 0 16 16" fill="none" xmlns="http://www.w3.org/2000/svg">
<path d="M8.00008 4.00016H8.00675M4.00008 1.3335H12.0001C12.7365 1.3335 13.3334 1.93045 13.3334 2.66683V13.3335C13.3334 14.0699 12.7365 14.6668 12.0001 14.6668H4.00008C3.2637 14.6668 2.66675 14.0699 2.66675 13.3335V2.66683C2.66675 1.93045 3.2637 1.3335 4.00008 1.3335ZM10.6667 9.3335C10.6667 10.8063 9.47284 12.0002 8.00008 12.0002C6.52732 12.0002 5.33341 10.8063 5.33341 9.3335C5.33341 7.86074 6.52732 6.66683 8.00008 6.66683C9.47284 6.66683 10.6667 7.86074 10.6667 9.3335Z" stroke="currentColor" stroke-linecap="round" stroke-linejoin="round"/>
</svg>
