<svg width="16" height="16" viewBox="0 0 16 16" fill="none" xmlns="http://www.w3.org/2000/svg">
<path d="M7.99992 14.6668C11.6818 14.6668 14.6666 11.6821 14.6666 8.00016C14.6666 4.31826 11.6818 1.3335 7.99992 1.3335C4.31802 1.3335 1.33325 4.31826 1.33325 8.00016C1.33325 11.6821 4.31802 14.6668 7.99992 14.6668Z" stroke="#757575" stroke-width="1.33333" stroke-linecap="round" stroke-linejoin="round"/>
<path d="M7.99992 12.0002C10.2091 12.0002 11.9999 10.2093 11.9999 8.00016C11.9999 5.79102 10.2091 4.00016 7.99992 4.00016C5.79078 4.00016 3.99992 5.79102 3.99992 8.00016C3.99992 10.2093 5.79078 12.0002 7.99992 12.0002Z" stroke="#757575" stroke-width="1.33333" stroke-linecap="round" stroke-linejoin="round"/>
<path d="M7.99992 9.3335C8.7363 9.3335 9.33325 8.73654 9.33325 8.00016C9.33325 7.26378 8.7363 6.66683 7.99992 6.66683C7.26354 6.66683 6.66659 7.26378 6.66659 8.00016C6.66659 8.73654 7.26354 9.3335 7.99992 9.3335Z" stroke="#757575" stroke-width="1.33333" stroke-linecap="round" stroke-linejoin="round"/>
</svg>
