<svg width="16" height="16" viewBox="0 0 16 16" fill="none" xmlns="http://www.w3.org/2000/svg">
<path d="M9.33341 9.83984V2.33317C9.33341 1.89114 9.15782 1.46722 8.84526 1.15466C8.5327 0.842099 8.10878 0.666504 7.66675 0.666504C7.22472 0.666504 6.8008 0.842099 6.48824 1.15466C6.17568 1.46722 6.00008 1.89114 6.00008 2.33317V9.83984C5.46493 10.1974 5.05896 10.7176 4.84213 11.3236C4.6253 11.9296 4.60909 12.5892 4.79592 13.2051C4.98274 13.821 5.36269 14.3605 5.87964 14.7439C6.39659 15.1273 7.02314 15.3343 7.66675 15.3343C8.31036 15.3343 8.93691 15.1273 9.45386 14.7439C9.97081 14.3605 10.3508 13.821 10.5376 13.2051C10.7244 12.5892 10.7082 11.9296 10.4914 11.3236C10.2745 10.7176 9.86856 10.1974 9.33341 9.83984Z" stroke="#757575" stroke-linecap="round" stroke-linejoin="round"/>
</svg>
