<svg width="16" height="16" viewBox="0 0 16 16" fill="none" xmlns="http://www.w3.org/2000/svg">
<path d="M4.66659 14.6668H2.66659C2.31296 14.6668 1.97382 14.5264 1.72378 14.2763C1.47373 14.0263 1.33325 13.6871 1.33325 13.3335V8.66683C1.33325 8.31321 1.47373 7.97407 1.72378 7.72402C1.97382 7.47397 2.31296 7.3335 2.66659 7.3335H4.66659M9.33325 6.00016V3.3335C9.33325 2.80306 9.12254 2.29436 8.74747 1.91928C8.37239 1.54421 7.86369 1.3335 7.33325 1.3335L4.66659 7.3335V14.6668H12.1866C12.5081 14.6705 12.8202 14.5578 13.0652 14.3495C13.3102 14.1412 13.4717 13.8514 13.5199 13.5335L14.4399 7.5335C14.4689 7.3424 14.456 7.14728 14.4021 6.96166C14.3483 6.77604 14.2547 6.60436 14.1278 6.45851C14.001 6.31265 13.844 6.19612 13.6676 6.11697C13.4913 6.03783 13.2999 5.99797 13.1066 6.00016H9.33325Z" stroke="currentColor" stroke-linecap="round" stroke-linejoin="round"/>
</svg>
