<svg width="16" height="16" viewBox="0 0 16 16" fill="none" xmlns="http://www.w3.org/2000/svg">
<path d="M10.6667 10.6667V2H0.666748V10.6667H10.6667ZM10.6667 10.6667H15.3334V7.33333L13.3334 5.33333H10.6667L10.6667 10.6667ZM5.33342 12.3333C5.33342 13.2538 4.58722 14 3.66675 14C2.74627 14 2.00008 13.2538 2.00008 12.3333C2.00008 11.4129 2.74627 10.6667 3.66675 10.6667C4.58722 10.6667 5.33342 11.4129 5.33342 12.3333ZM14.0001 12.3333C14.0001 13.2538 13.2539 14 12.3334 14C11.4129 14 10.6667 13.2538 10.6667 12.3333C10.6667 11.4129 11.4129 10.6667 12.3334 10.6667C13.2539 10.6667 14.0001 11.4129 14.0001 12.3333Z" stroke="currentColor" stroke-linecap="round" stroke-linejoin="round"/>
</svg>
