<svg width="16" height="16" viewBox="0 0 16 16" fill="none" xmlns="http://www.w3.org/2000/svg">
<path d="M15.3334 1.99987C14.695 2.45019 13.9882 2.79461 13.2401 3.01987C12.8386 2.55821 12.305 2.231 11.7114 2.08249C11.1179 1.93397 10.4931 1.97133 9.92147 2.1895C9.34986 2.40768 8.85904 2.79614 8.5154 3.30235C8.17176 3.80856 7.99188 4.40809 8.00008 5.01987V5.68653C6.8285 5.71691 5.6676 5.45708 4.62075 4.93017C3.57391 4.40325 2.67363 3.62562 2.00008 2.66653C2.00008 2.66653 -0.666585 8.66653 5.33342 11.3332C3.96043 12.2652 2.32485 12.7325 0.666748 12.6665C6.66675 15.9999 14.0001 12.6665 14.0001 4.99987C13.9995 4.81417 13.9816 4.62893 13.9467 4.44653C14.6272 3.77553 15.1073 2.92834 15.3334 1.99987Z" stroke="currentColor" stroke-linecap="round" stroke-linejoin="round"/>
</svg>
