<svg width="16" height="16" viewBox="0 0 16 16" fill="none" xmlns="http://www.w3.org/2000/svg">
<path d="M10.6667 14V12.6667C10.6667 11.9594 10.3858 11.2811 9.8857 10.781C9.3856 10.281 8.70733 10 8.00008 10H3.33341C2.62617 10 1.94789 10.281 1.4478 10.781C0.9477 11.2811 0.666748 11.9594 0.666748 12.6667V14M11.3334 7.33333L12.6667 8.66667L15.3334 6M8.33342 4.66667C8.33342 6.13943 7.13951 7.33333 5.66675 7.33333C4.19399 7.33333 3.00008 6.13943 3.00008 4.66667C3.00008 3.19391 4.19399 2 5.66675 2C7.13951 2 8.33342 3.19391 8.33342 4.66667Z" stroke="#757575" stroke-width="1.33333" stroke-linecap="round" stroke-linejoin="round"/>
</svg>
