<svg width="16" height="16" viewBox="0 0 16 16" fill="none" xmlns="http://www.w3.org/2000/svg">
<path d="M7.10675 3.33317H9.33342C9.68704 3.33317 10.0262 3.47365 10.2762 3.7237C10.5263 3.97374 10.6667 4.31288 10.6667 4.6665V6.89317L11.3334 7.55984L15.3334 4.6665V11.3332M0.666748 0.666504L15.3334 15.3332M10.6667 10.6665V11.3332C10.6667 11.6868 10.5263 12.0259 10.2762 12.276C10.0262 12.526 9.68704 12.6665 9.33342 12.6665H2.00008C1.64646 12.6665 1.30732 12.526 1.05727 12.276C0.807224 12.0259 0.666748 11.6868 0.666748 11.3332V4.6665C0.666748 4.31288 0.807224 3.97374 1.05727 3.7237C1.30732 3.47365 1.64646 3.33317 2.00008 3.33317H3.33341L10.6667 10.6665Z" stroke="#757575" stroke-linecap="round" stroke-linejoin="round"/>
</svg>
