<svg width="16" height="16" viewBox="0 0 16 16" fill="none" xmlns="http://www.w3.org/2000/svg">
<path d="M0.666748 0.666504L15.3334 15.3332M11.1467 7.37317C11.6928 7.63967 12.2034 7.97337 12.6667 8.3665M3.33341 8.3665C4.32147 7.54039 5.51066 6.99065 6.78008 6.77317M7.14008 3.3665C8.56836 3.25142 10.0052 3.42528 11.3648 3.87772C12.7244 4.33015 13.9789 5.05189 15.0534 5.99984M0.946748 5.99984C1.87152 5.1824 2.93188 4.53265 4.08008 4.07984M5.68675 10.7398C6.36355 10.259 7.1732 10.0007 8.00342 10.0007C8.83363 10.0007 9.64328 10.259 10.3201 10.7398M8.00008 13.3332H8.00675" stroke="#757575" stroke-linecap="round" stroke-linejoin="round"/>
</svg>
