<svg width="16" height="16" viewBox="0 0 16 16" fill="none" xmlns="http://www.w3.org/2000/svg">
<path d="M6.39325 3.05983C6.54812 2.90403 6.73909 2.78892 6.94917 2.72472C7.15925 2.66052 7.38194 2.64922 7.59744 2.69182C7.81294 2.73442 8.01458 2.82961 8.18442 2.96892C8.35427 3.10823 8.48707 3.28735 8.571 3.49035C8.65494 3.69336 8.68743 3.91395 8.66556 4.13253C8.6437 4.35112 8.56817 4.56091 8.44569 4.74327C8.32321 4.92562 8.15757 5.07489 7.96349 5.1778C7.76942 5.28071 7.55292 5.33408 7.33325 5.33316H1.33325M9.33325 10.6665C9.55292 10.6656 9.76942 10.7189 9.96349 10.8218C10.1576 10.9248 10.3232 11.074 10.4457 11.2564C10.5682 11.4387 10.6437 11.6485 10.6656 11.8671C10.6874 12.0857 10.6549 12.3063 10.571 12.5093C10.4871 12.7123 10.3543 12.8914 10.1844 13.0307C10.0146 13.17 9.81294 13.2652 9.59744 13.3078C9.38194 13.3504 9.15925 13.3391 8.94917 13.2749C8.73909 13.2107 8.54812 13.0956 8.39325 12.9398L1.33325 10.6665M11.8199 5.15316C12.0138 4.95975 12.2524 4.8171 12.5145 4.73783C12.7767 4.65857 13.0543 4.64512 13.3229 4.69868C13.5915 4.75225 13.8427 4.87117 14.0544 5.04494C14.2661 5.2187 14.4317 5.44196 14.5366 5.69495C14.6414 5.94795 14.6824 6.22289 14.6557 6.49546C14.629 6.76802 14.5356 7.02982 14.3837 7.25769C14.2317 7.48556 14.026 7.67248 13.7847 7.80192C13.5433 7.93136 13.2738 7.99934 12.9999 7.99983H1.33325" stroke="#757575" stroke-width="1.33333" stroke-linecap="round" stroke-linejoin="round"/>
</svg>
