<svg width="24" height="24" viewBox="0 0 24 24" fill="none" xmlns="http://www.w3.org/2000/svg">
<g clip-path="url(#clip0_1178_18343)">
<path d="M8.00003 19.0002V21.0002M8.00003 13.0002V15.0002M16 19.0002V21.0002M16 13.0002V15.0002M12 21.0002V23.0002M12 15.0002V17.0002M20 16.5802C21.0513 16.1198 21.9121 15.3118 22.4381 14.2917C22.9641 13.2717 23.1232 12.1018 22.8886 10.9784C22.6541 9.85496 22.0402 8.84641 21.1501 8.12204C20.2599 7.39766 19.1477 7.00155 18 7.0002H16.74C16.4231 5.77272 15.8189 4.63815 14.9773 3.69C14.1358 2.74185 13.081 2.00728 11.8998 1.54682C10.7186 1.08637 9.44494 0.913218 8.18372 1.04165C6.92249 1.17007 5.70984 1.5964 4.64573 2.28548C3.58161 2.97457 2.6965 3.90669 2.06334 5.005C1.43018 6.10331 1.06711 7.33637 1.00404 8.60255C0.940984 9.86873 1.17974 11.1318 1.70064 12.2876C2.22153 13.4433 3.00965 14.4588 4.00003 15.2502" stroke="currentColor" stroke-linecap="round" stroke-linejoin="round"/>
</g>
<defs>
<clipPath id="clip0_1178_18343">
<rect width="24" height="24" fill="white"/>
</clipPath>
</defs>
</svg>
