<svg width="24" height="24" viewBox="0 0 24 24" fill="none" xmlns="http://www.w3.org/2000/svg">
<g clip-path="url(#clip0_1178_18268)">
<path d="M20 17.5802C21.0513 17.1198 21.9121 16.3118 22.4381 15.2917C22.9641 14.2717 23.1232 13.1018 22.8886 11.9784C22.6541 10.855 22.0402 9.84641 21.1501 9.12204C20.2599 8.39766 19.1477 8.00155 18 8.0002H16.74C16.4231 6.77272 15.8189 5.63815 14.9773 4.69C14.1358 3.74185 13.081 3.00728 11.8998 2.54682C10.7186 2.08637 9.44494 1.91322 8.18372 2.04165C6.92249 2.17007 5.70984 2.5964 4.64573 3.28548C3.58161 3.97457 2.6965 4.90669 2.06334 6.005C1.43018 7.10331 1.06711 8.33637 1.00404 9.60255C0.940984 10.8687 1.17974 12.1318 1.70064 13.2876C2.22153 14.4433 3.00965 15.4588 4.00003 16.2502M8.00003 16.0002H8.01003M8.00003 20.0002H8.01003M12 18.0002H12.01M12 22.0002H12.01M16 16.0002H16.01M16 20.0002H16.01" stroke="#757575" stroke-width="2" stroke-linecap="round" stroke-linejoin="round"/>
</g>
<defs>
<clipPath id="clip0_1178_18268">
<rect width="24" height="24" fill="white"/>
</clipPath>
</defs>
</svg>
