<svg width="24" height="24" viewBox="0 0 24 24" fill="none" xmlns="http://www.w3.org/2000/svg">
<g clip-path="url(#clip0_1178_18281)">
<path d="M18.9999 16.8998C20.2151 16.6531 21.2952 15.9636 22.0306 14.9653C22.766 13.967 23.1043 12.731 22.9796 11.4973C22.855 10.2636 22.2765 9.12028 21.3563 8.28919C20.4361 7.45809 19.2399 6.99857 17.9999 6.99981H16.7399C16.4086 5.71713 15.764 4.5368 14.8638 3.5648C13.9637 2.59279 12.8363 1.85954 11.5828 1.43087C10.3292 1.00221 8.98891 0.891543 7.68207 1.10882C6.37523 1.32609 5.1428 1.86451 4.09544 2.67572C3.04808 3.48693 2.21856 4.54555 1.68137 5.75652C1.14418 6.9675 0.916124 8.29292 1.01769 9.6138C1.11925 10.9347 1.54725 12.2097 2.26326 13.3243C2.97926 14.4389 3.96087 15.3583 5.11993 15.9998M12.9999 10.9998L8.99993 16.9998H14.9999L10.9999 22.9998" stroke="currentColor" stroke-linecap="round" stroke-linejoin="round"/>
</g>
<defs>
<clipPath id="clip0_1178_18281">
<rect width="24" height="24" fill="white"/>
</clipPath>
</defs>
</svg>
