<svg width="24" height="24" viewBox="0 0 24 24" fill="none" xmlns="http://www.w3.org/2000/svg">
<path fill-rule="evenodd" clip-rule="evenodd" d="M5 4C4.44772 4 4 4.44772 4 5V19C4 19.5523 4.44772 20 5 20H19C19.5523 20 20 19.5523 20 19V5C20 4.44772 19.5523 4 19 4H5ZM2 5C2 3.34315 3.34315 2 5 2H19C20.6569 2 22 3.34315 22 5V19C22 20.6569 20.6569 22 19 22H5C3.34315 22 2 20.6569 2 19V5Z" fill="#757575"/>
<path fill-rule="evenodd" clip-rule="evenodd" d="M7 12C7 11.4477 7.44772 11 8 11H16C16.5523 11 17 11.4477 17 12C17 12.5523 16.5523 13 16 13H8C7.44772 13 7 12.5523 7 12Z" fill="#757575"/>
<path d="M13.5 7.4999C13.5 8.32833 12.8284 8.9999 12 8.9999C11.1716 8.9999 10.5 8.32833 10.5 7.4999C10.5 6.67148 11.1716 5.9999 12 5.9999C12.8284 5.9999 13.5 6.67148 13.5 7.4999Z" fill="#757575"/>
<path d="M13.5 16.4999C13.5 17.3283 12.8284 17.9999 12 17.9999C11.1716 17.9999 10.5 17.3283 10.5 16.4999C10.5 15.6715 11.1716 14.9999 12 14.9999C12.8284 14.9999 13.5 15.6715 13.5 16.4999Z" fill="#757575"/>
</svg>
