<svg width="24" height="24" viewBox="0 0 24 24" fill="none" xmlns="http://www.w3.org/2000/svg">
<path fill-rule="evenodd" clip-rule="evenodd" d="M7 12C7 11.4477 7.44772 11 8 11H16C16.5523 11 17 11.4477 17 12C17 12.5523 16.5523 13 16 13H8C7.44772 13 7 12.5523 7 12Z" fill="currentColor"/>
<path fill-rule="evenodd" clip-rule="evenodd" d="M12 3C7.02944 3 3 7.02944 3 12C3 16.9706 7.02944 21 12 21C16.9706 21 21 16.9706 21 12C21 7.02944 16.9706 3 12 3ZM1 12C1 5.92487 5.92487 1 12 1C18.0751 1 23 5.92487 23 12C23 18.0751 18.0751 23 12 23C5.92487 23 1 18.0751 1 12Z" fill="currentColor"/>
<path d="M13.5 7.4999C13.5 8.32833 12.8284 8.9999 12 8.9999C11.1716 8.9999 10.5 8.32833 10.5 7.4999C10.5 6.67148 11.1716 5.9999 12 5.9999C12.8284 5.9999 13.5 6.67148 13.5 7.4999Z" fill="currentColor"/>
<path d="M13.5 16.4999C13.5 17.3283 12.8284 17.9999 12 17.9999C11.1716 17.9999 10.5 17.3283 10.5 16.4999C10.5 15.6715 11.1716 14.9999 12 14.9999C12.8284 14.9999 13.5 15.6715 13.5 16.4999Z" fill="currentColor"/>
</svg>
