<svg width="24" height="24" viewBox="0 0 24 24" fill="none" xmlns="http://www.w3.org/2000/svg">
<path d="M1.98755 6.8388C2.71411 5.32474 3.74067 4.04505 5.03442 2.98099C6.78755 1.53255 8.79849 0.660679 11.0532 0.393491C13.7016 0.079429 16.1907 0.580991 18.4922 1.95912C19.0641 2.3013 19.5985 2.69037 20.1094 3.11224C20.236 3.21537 20.2219 3.2763 20.1141 3.37943C19.0688 4.42005 18.0235 5.46068 16.9875 6.51068C16.8657 6.63255 16.8 6.62318 16.6688 6.52474C13.6313 4.18568 9.20161 4.81849 6.93755 7.91224C6.53911 8.45599 6.21567 9.04193 5.99067 9.67943C5.97192 9.73568 5.93442 9.78724 5.9063 9.84349C5.30161 9.38412 4.69224 8.92474 4.09224 8.46068C3.38911 7.92162 2.68599 7.38255 1.98755 6.8388Z" fill="#E94335"/>
<path d="M5.90635 14.2402C6.10791 14.6855 6.27666 15.1496 6.52979 15.5668C7.59385 17.3105 9.1126 18.4309 11.1142 18.8293C12.9188 19.1902 14.6532 18.9465 16.2704 18.0418C16.3267 18.0137 16.3829 17.9855 16.4345 17.9574C16.4626 17.9855 16.486 18.0184 16.5142 18.0418C17.7235 18.9793 18.9376 19.9168 20.147 20.8543C19.5657 21.4309 18.9048 21.8949 18.2017 22.298C16.1626 23.4605 13.9548 23.9293 11.6298 23.7512C8.73291 23.5262 6.23447 22.3824 4.17197 20.3199C3.26729 19.4152 2.52197 18.3934 1.98291 17.2262C2.48447 16.8418 2.98604 16.4621 3.4876 16.0777C4.29385 15.4637 5.1001 14.8543 5.90635 14.2402Z" fill="#34A853"/>
<path d="M20.1517 20.8547C18.9423 19.9172 17.7282 18.9797 16.5189 18.0422C16.4907 18.0188 16.4626 17.9859 16.4392 17.9578C16.8564 17.6344 17.2829 17.3203 17.6251 16.9078C18.197 16.2234 18.5767 15.45 18.7736 14.5828C18.797 14.475 18.7783 14.4375 18.6704 14.4422C18.6142 14.4469 18.5626 14.4422 18.5064 14.4422C16.5939 14.4422 14.6767 14.4375 12.7642 14.4469C12.5532 14.4469 12.5064 14.3906 12.5111 14.1891C12.5204 12.8297 12.5204 11.4703 12.5111 10.1109C12.5111 9.9375 12.5579 9.89062 12.7314 9.89062C16.2376 9.89531 19.7439 9.89531 23.2548 9.89062C23.4048 9.89062 23.4658 9.92812 23.5033 10.0875C23.7892 11.3766 23.7704 12.6703 23.597 13.9734C23.4564 15.0141 23.2033 16.0219 22.8142 16.9969C22.2376 18.4359 21.3892 19.6922 20.2736 20.7703C20.2314 20.8031 20.1892 20.8266 20.1517 20.8547Z" fill="#4285F3"/>
<path d="M5.90634 14.2406C5.10009 14.8547 4.29384 15.4641 3.48759 16.0781C2.98602 16.4578 2.48446 16.8422 1.9829 17.2266C1.59384 16.5047 1.34071 15.7406 1.13446 14.9531C0.740711 13.4297 0.679773 11.8828 0.895398 10.3312C1.06415 9.1125 1.41571 7.94062 1.9829 6.84375C2.68602 7.38281 3.38446 7.92656 4.08759 8.46563C4.69227 8.92969 5.29696 9.38906 5.90165 9.84844C5.79852 10.35 5.65321 10.8422 5.60634 11.3578C5.52196 12.2953 5.61102 13.2094 5.87821 14.1094C5.89696 14.1469 5.90165 14.1937 5.90634 14.2406Z" fill="#FABB06"/>
</svg>
