<svg width="24" height="24" viewBox="0 0 24 24" fill="none" xmlns="http://www.w3.org/2000/svg">
<path d="M12 4.875C12 4.37772 12.1975 3.90081 12.5492 3.54917C12.9008 3.19754 13.3777 3 13.875 3C14.3723 3 14.8492 3.19754 15.2008 3.54917C15.5525 3.90081 15.75 4.37772 15.75 4.875V10.5" stroke="#757575" stroke-linecap="round" stroke-linejoin="round"/>
<path d="M8.25 6.375V3.375C8.25 2.87772 8.44754 2.40081 8.79917 2.04917C9.15081 1.69754 9.62772 1.5 10.125 1.5C10.6223 1.5 11.0992 1.69754 11.4508 2.04917C11.8025 2.40081 12 2.87772 12 3.375V9.75" stroke="#757575" stroke-linecap="round" stroke-linejoin="round"/>
<path d="M12 16.125C12 15.1304 12.3951 14.1766 13.0983 13.4733C13.8016 12.7701 14.7554 12.375 15.75 12.375V10.5C15.75 10.0027 15.9475 9.52581 16.2992 9.17417C16.6508 8.82254 17.1277 8.625 17.625 8.625C18.1223 8.625 18.5992 8.82254 18.9508 9.17417C19.3025 9.52581 19.5 10.0027 19.5 10.5V14.25C19.5 16.2391 18.7098 18.1468 17.3033 19.5533C15.8968 20.9598 13.9891 21.75 12 21.75C10.0109 21.75 8.10322 20.9598 6.6967 19.5533C5.29018 18.1468 4.5 16.2391 4.5 14.25V6.375C4.5 5.87772 4.69754 5.40081 5.04917 5.04917C5.40081 4.69754 5.87772 4.5 6.375 4.5C6.87228 4.5 7.34919 4.69754 7.70083 5.04917C8.05246 5.40081 8.25 5.87772 8.25 6.375V10.5" stroke="#757575" stroke-linecap="round" stroke-linejoin="round"/>
</svg>
