<svg width="24" height="24" viewBox="0 0 24 24" fill="none" xmlns="http://www.w3.org/2000/svg">
<path d="M12.3732 2.23228C12.5356 2.06993 12.7558 1.97872 12.9854 1.97872C13.215 1.97872 13.4352 2.06993 13.5975 2.23228C13.7599 2.39463 13.8511 2.61482 13.8511 2.84441V9.1516C13.8511 9.69801 14.294 10.141 14.8404 10.141C15.3868 10.141 15.8298 9.69801 15.8298 9.1516V4.32846C15.8298 4.09886 15.921 3.87867 16.0833 3.71632C16.2457 3.55397 16.4659 3.46277 16.6955 3.46277C16.9251 3.46277 17.1453 3.55397 17.3076 3.71632C17.47 3.87867 17.5612 4.09886 17.5612 4.32846V10.8646C16.684 11.0535 15.8718 11.4914 15.2275 12.1358C14.3462 13.0171 13.8511 14.2124 13.8511 15.4588C13.8511 16.0052 14.294 16.4481 14.8404 16.4481C15.3868 16.4481 15.8298 16.0052 15.8298 15.4588C15.8298 14.7372 16.1164 14.0452 16.6267 13.5349C17.1369 13.0247 17.8289 12.738 18.5505 12.738C19.0969 12.738 19.5399 12.2951 19.5399 11.7487V9.89362C19.5399 9.66402 19.6311 9.44383 19.7934 9.28148C19.9558 9.11913 20.176 9.02793 20.4056 9.02793C20.6352 9.02793 20.8554 9.11913 21.0177 9.28148C21.1801 9.44383 21.2713 9.66402 21.2713 9.89362V13.6037C21.2713 15.3093 20.5937 16.945 19.3877 18.151C18.1817 19.357 16.546 20.0346 14.8404 20.0346C14.361 20.0346 13.8871 19.981 13.4267 19.8773C13.2057 20.5234 12.9034 21.1318 12.532 21.6903C13.2763 21.9028 14.0527 22.0133 14.8404 22.0133C17.0708 22.0133 19.2098 21.1273 20.7869 19.5502C22.364 17.9731 23.25 15.8341 23.25 13.6037V9.89362C23.25 9.13923 22.9503 8.41574 22.4169 7.88231C21.8835 7.34888 21.16 7.0492 20.4056 7.0492C20.109 7.0492 19.8172 7.09551 19.5399 7.18413V4.32846C19.5399 3.57407 19.2402 2.85058 18.7068 2.31715C18.1734 1.78372 17.4499 1.48404 16.6955 1.48404C16.3129 1.48404 15.9383 1.56112 15.5923 1.70667C15.4515 1.38388 15.2505 1.08697 14.9967 0.83311C14.4632 0.299679 13.7398 0 12.9854 0C12.231 0 11.5075 0.299679 10.9741 0.83311C10.4406 1.36654 10.141 2.09003 10.141 2.84441V3.10302C9.86362 3.0144 9.57183 2.96809 9.27527 2.96809C8.52088 2.96809 7.79739 3.26776 7.26396 3.80119C6.73053 4.33463 6.43085 5.05811 6.43085 5.8125V9.41414C7.11782 9.45651 7.78107 9.5865 8.40957 9.79308V5.8125C8.40957 5.5829 8.50078 5.36271 8.66313 5.20036C8.82548 5.03802 9.04567 4.94681 9.27527 4.94681C9.50486 4.94681 9.72505 5.03802 9.8874 5.20036C10.0498 5.36271 10.141 5.5829 10.141 5.8125V9.89362C10.141 10.44 10.5839 10.883 11.1303 10.883C11.6767 10.883 12.1197 10.44 12.1197 9.89362V2.84441C12.1197 2.61482 12.2109 2.39463 12.3732 2.23228Z" fill="currentColor"/>
<path fill-rule="evenodd" clip-rule="evenodd" d="M7.42021 12.1197C7.42021 11.7099 7.088 11.3777 6.67819 11.3777H5.19415C4.78434 11.3777 4.45213 11.7099 4.45213 12.1197V13.115C4.30322 13.1677 4.15794 13.228 4.01678 13.2955L3.3127 12.5915C3.02293 12.3017 2.5531 12.3017 2.26333 12.5915L1.21395 13.6408C0.924172 13.9306 0.924172 14.4004 1.21395 14.6902L1.91798 15.3943C1.85039 15.5355 1.79003 15.6808 1.73738 15.8298H0.742021C0.332214 15.8298 0 16.162 0 16.5718V18.0559C0 18.4657 0.332214 18.7979 0.742021 18.7979H1.73738C1.79006 18.9469 1.85046 19.0924 1.9181 19.2337L1.21414 19.9376C0.924363 20.2274 0.924363 20.6972 1.21414 20.987L2.26352 22.0364C2.55329 22.3261 3.02312 22.3261 3.31289 22.0364L4.01702 21.3322C4.15811 21.3997 4.3033 21.46 4.45213 21.5126V22.508C4.45213 22.9178 4.78434 23.25 5.19415 23.25H6.67819C7.088 23.25 7.42021 22.9178 7.42021 22.508V21.5126C7.56919 21.46 7.71453 21.3996 7.85575 21.332L8.55959 22.0359C8.84936 22.3256 9.31919 22.3256 9.60896 22.0359L10.6583 20.9865C10.9481 20.6967 10.9481 20.2269 10.6583 19.9371L9.95445 19.2332C10.022 19.0921 10.0823 18.9468 10.135 18.7979H11.1303C11.5401 18.7979 11.8723 18.4657 11.8723 18.0559V16.5718C11.8723 16.162 11.5401 15.8298 11.1303 15.8298H10.135C10.0824 15.681 10.0221 15.5358 9.95457 15.3947L10.6585 14.6907C10.9483 14.4009 10.9483 13.9311 10.6585 13.6413L9.60915 12.592C9.31938 12.3022 8.84955 12.3022 8.55978 12.592L7.85599 13.2958C7.7147 13.2281 7.56928 13.1677 7.42021 13.115V12.1197ZM5.93617 19.5399C7.16559 19.5399 8.16223 18.5433 8.16223 17.3138C8.16223 16.0844 7.16559 15.0878 5.93617 15.0878C4.70675 15.0878 3.71011 16.0844 3.71011 17.3138C3.71011 18.5433 4.70675 19.5399 5.93617 19.5399Z" fill="currentColor"/>
</svg>
