<svg width="24" height="24" viewBox="0 0 24 24" fill="none" xmlns="http://www.w3.org/2000/svg">
<g clip-path="url(#clip0_1178_18262)">
<path d="M1 1.00009L23 23.0001M15 9.34009V4.00009C15.0007 3.25612 14.725 2.53841 14.2264 1.98629C13.7277 1.43417 13.0417 1.08703 12.3015 1.01227C11.5613 0.937497 10.8197 1.14043 10.2207 1.58168C9.62172 2.02293 9.20805 2.671 9.06 3.40009M17 16.9501C16.0238 17.9465 14.7721 18.6285 13.4056 18.9087C12.0391 19.1888 10.62 19.0543 9.3305 18.5224C8.04096 17.9904 6.93976 17.0854 6.16817 15.9232C5.39658 14.7611 4.98979 13.395 5 12.0001V10.0001M19 10.0001V12.0001C18.9996 12.4125 18.9628 12.8241 18.89 13.2301M12 19.0001V23.0001M8 23.0001H16M9 9.00009V12.0001C9.00052 12.5931 9.17675 13.1726 9.50643 13.6654C9.83611 14.1583 10.3045 14.5424 10.8523 14.7692C11.4002 14.9961 12.0029 15.0555 12.5845 14.94C13.1661 14.8244 13.7005 14.5391 14.12 14.1201L9 9.00009Z" stroke="#757575" stroke-width="2" stroke-linecap="round" stroke-linejoin="round"/>
</g>
<defs>
<clipPath id="clip0_1178_18262">
<rect width="24" height="24" fill="white"/>
</clipPath>
</defs>
</svg>
