<svg width="24" height="24" viewBox="0 0 24 24" fill="none" xmlns="http://www.w3.org/2000/svg">
<path d="M21.2099 15.89C20.5737 17.3945 19.5787 18.7202 18.3118 19.7513C17.0449 20.7824 15.5447 21.4874 13.9424 21.8048C12.34 22.1221 10.6843 22.0421 9.12006 21.5718C7.55578 21.1014 6.13054 20.2551 4.96893 19.1067C3.80733 17.9582 2.94473 16.5428 2.45655 14.9839C1.96837 13.4251 1.86948 11.7705 2.16851 10.1646C2.46755 8.55878 3.15541 7.05063 4.17196 5.77203C5.18851 4.49343 6.5028 3.48332 7.99992 2.83M21.9999 12C21.9999 10.6868 21.7413 9.38642 21.2387 8.17317C20.7362 6.95991 19.9996 5.85752 19.071 4.92893C18.1424 4.00035 17.04 3.26375 15.8267 2.7612C14.6135 2.25866 13.3131 2 11.9999 2V12H21.9999Z" stroke="currentColor" stroke-linecap="round" stroke-linejoin="round"/>
</svg>
