<svg width="24" height="24" viewBox="0 0 24 24" fill="none" xmlns="http://www.w3.org/2000/svg">
<path d="M20.2243 3.54944C19.2652 2.59026 17.9371 2 16.609 2C15.2809 2 13.9528 2.51648 12.9198 3.54944L3.54944 12.9198C2.59026 13.879 2 15.2071 2 16.5352C2 17.9371 2.51648 19.1914 3.54944 20.1506C4.50861 21.1097 5.8367 21.7 7.16479 21.7C8.49288 21.7 9.82097 21.1835 10.8539 20.1506L20.2243 10.7801C21.1835 9.82097 21.7738 8.49288 21.7738 7.16479C21.7738 5.8367 21.1835 4.50861 20.2243 3.54944ZM9.82097 19.1914C9.15693 19.8554 8.19775 20.2981 7.23858 20.2981C6.2794 20.2981 5.32022 19.9292 4.65618 19.1914C3.99213 18.4536 3.54944 17.5682 3.54944 16.609C3.54944 15.6498 3.91835 14.6906 4.65618 14.0266L8.8618 9.82097L14.1004 15.0595L9.82097 19.1914Z" fill="#757575"/>
</svg>
