<svg width="24" height="24" viewBox="0 0 24 24" fill="none" xmlns="http://www.w3.org/2000/svg">
<mask id="path-1-outside-1_5614_8970" maskUnits="userSpaceOnUse" x="1" y="1" width="22" height="21" fill="black">
<rect fill="white" x="1" y="1" width="22" height="21"/>
<path d="M9.84752 4.71334C9.84752 4.48128 9.93972 4.25859 10.1038 4.09451C10.2679 3.93043 10.4906 3.83823 10.7226 3.83823H21.1249C21.4374 3.83823 21.7263 4.00504 21.8828 4.27578C22.0391 4.54652 22.0391 4.88016 21.8828 5.15089C21.7263 5.42163 21.4374 5.58844 21.1249 5.58844H10.7226C10.4906 5.58844 10.2679 5.49624 10.1038 5.33216C9.93972 5.16808 9.84752 4.94539 9.84752 4.71334ZM3.54675 7.07613C3.70985 7.29354 3.96457 7.42285 4.23628 7.42617H4.24507C4.51307 7.42597 4.76624 7.30311 4.93206 7.09273L7.82696 3.41728C8.02054 3.17194 8.06859 2.84181 7.95295 2.55137C7.83731 2.26094 7.57537 2.05424 7.26597 2.0091C6.95655 1.96418 6.64674 2.08763 6.45297 2.33297L4.2564 5.11847L3.57742 4.22146C3.38872 3.97143 3.08087 3.84094 2.76992 3.87922C2.45914 3.91771 2.19209 4.1189 2.06983 4.40739C1.94755 4.6959 1.98857 5.02756 2.17726 5.2778L3.54675 7.07613ZM21.1249 10.8391H10.7226C10.4101 10.8391 10.1212 11.0059 9.96474 11.2766C9.80847 11.5474 9.80847 11.881 9.96474 12.1517C10.1212 12.4225 10.4101 12.5893 10.7226 12.5893H21.1249C21.4374 12.5893 21.7263 12.4225 21.8828 12.1517C22.0391 11.881 22.0391 11.5474 21.8828 11.2766C21.7263 11.0059 21.4374 10.8391 21.1249 10.8391ZM6.4491 9.3356L4.25608 12.1193L3.5771 11.2223C3.38841 10.9723 3.08056 10.8418 2.7696 10.8801C2.45882 10.9186 2.19178 11.1198 2.06952 11.4083C1.94724 11.6968 1.98826 12.0284 2.17695 12.2787L3.54392 14.0769C3.70683 14.2944 3.96174 14.4237 4.23345 14.427H4.24224C4.51005 14.4268 4.76321 14.3039 4.92903 14.0935L7.82468 10.4181C8.01826 10.1724 8.06631 9.84203 7.95048 9.55139C7.83445 9.26073 7.57231 9.05406 7.26249 9.00932C6.95289 8.9644 6.64287 9.08804 6.44909 9.33378L6.4491 9.3356ZM21.1249 17.8401H10.7226C10.4101 17.8401 10.1212 18.007 9.96474 18.2777C9.80847 18.5484 9.80847 18.8821 9.96474 19.1528C10.1212 19.4235 10.4101 19.5904 10.7226 19.5904H21.1249C21.4374 19.5904 21.7263 19.4235 21.8828 19.1528C22.0391 18.8821 22.0391 18.5484 21.8828 18.2777C21.7263 18.007 21.4374 17.8401 21.1249 17.8401ZM7.55274 16.1714C7.38846 16.0069 7.16578 15.9147 6.93351 15.9147C6.70126 15.9147 6.47857 16.0069 6.31429 16.1714L5.00788 17.4778L3.70127 16.1714C3.47897 15.9567 3.16 15.8751 2.86191 15.9567C2.56383 16.0386 2.331 16.2714 2.24934 16.5693C2.16769 16.8674 2.24914 17.1864 2.46382 17.4086L3.77043 18.7153L2.46382 20.0219C2.29505 20.1848 2.19875 20.409 2.1968 20.6436C2.19465 20.8784 2.28704 21.104 2.45308 21.2701C2.61892 21.4361 2.84473 21.5283 3.0795 21.5264C3.3141 21.5242 3.53816 21.4281 3.70128 21.2591L5.00789 19.9525L6.3145 21.2591C6.53562 21.4804 6.85772 21.5668 7.15971 21.4861C7.4619 21.4052 7.69788 21.1693 7.77894 20.8673C7.86 20.5653 7.77366 20.243 7.55274 20.0219L6.24518 18.7153L7.55259 17.4087C7.71647 17.2446 7.80887 17.0221 7.80887 16.79C7.80887 16.558 7.71662 16.3355 7.55274 16.1714Z"/>
</mask>
<path d="M9.84752 4.71334C9.84752 4.48128 9.93972 4.25859 10.1038 4.09451C10.2679 3.93043 10.4906 3.83823 10.7226 3.83823H21.1249C21.4374 3.83823 21.7263 4.00504 21.8828 4.27578C22.0391 4.54652 22.0391 4.88016 21.8828 5.15089C21.7263 5.42163 21.4374 5.58844 21.1249 5.58844H10.7226C10.4906 5.58844 10.2679 5.49624 10.1038 5.33216C9.93972 5.16808 9.84752 4.94539 9.84752 4.71334ZM3.54675 7.07613C3.70985 7.29354 3.96457 7.42285 4.23628 7.42617H4.24507C4.51307 7.42597 4.76624 7.30311 4.93206 7.09273L7.82696 3.41728C8.02054 3.17194 8.06859 2.84181 7.95295 2.55137C7.83731 2.26094 7.57537 2.05424 7.26597 2.0091C6.95655 1.96418 6.64674 2.08763 6.45297 2.33297L4.2564 5.11847L3.57742 4.22146C3.38872 3.97143 3.08087 3.84094 2.76992 3.87922C2.45914 3.91771 2.19209 4.1189 2.06983 4.40739C1.94755 4.6959 1.98857 5.02756 2.17726 5.2778L3.54675 7.07613ZM21.1249 10.8391H10.7226C10.4101 10.8391 10.1212 11.0059 9.96474 11.2766C9.80847 11.5474 9.80847 11.881 9.96474 12.1517C10.1212 12.4225 10.4101 12.5893 10.7226 12.5893H21.1249C21.4374 12.5893 21.7263 12.4225 21.8828 12.1517C22.0391 11.881 22.0391 11.5474 21.8828 11.2766C21.7263 11.0059 21.4374 10.8391 21.1249 10.8391ZM6.4491 9.3356L4.25608 12.1193L3.5771 11.2223C3.38841 10.9723 3.08056 10.8418 2.7696 10.8801C2.45882 10.9186 2.19178 11.1198 2.06952 11.4083C1.94724 11.6968 1.98826 12.0284 2.17695 12.2787L3.54392 14.0769C3.70683 14.2944 3.96174 14.4237 4.23345 14.427H4.24224C4.51005 14.4268 4.76321 14.3039 4.92903 14.0935L7.82468 10.4181C8.01826 10.1724 8.06631 9.84203 7.95048 9.55139C7.83445 9.26073 7.57231 9.05406 7.26249 9.00932C6.95289 8.9644 6.64287 9.08804 6.44909 9.33378L6.4491 9.3356ZM21.1249 17.8401H10.7226C10.4101 17.8401 10.1212 18.007 9.96474 18.2777C9.80847 18.5484 9.80847 18.8821 9.96474 19.1528C10.1212 19.4235 10.4101 19.5904 10.7226 19.5904H21.1249C21.4374 19.5904 21.7263 19.4235 21.8828 19.1528C22.0391 18.8821 22.0391 18.5484 21.8828 18.2777C21.7263 18.007 21.4374 17.8401 21.1249 17.8401ZM7.55274 16.1714C7.38846 16.0069 7.16578 15.9147 6.93351 15.9147C6.70126 15.9147 6.47857 16.0069 6.31429 16.1714L5.00788 17.4778L3.70127 16.1714C3.47897 15.9567 3.16 15.8751 2.86191 15.9567C2.56383 16.0386 2.331 16.2714 2.24934 16.5693C2.16769 16.8674 2.24914 17.1864 2.46382 17.4086L3.77043 18.7153L2.46382 20.0219C2.29505 20.1848 2.19875 20.409 2.1968 20.6436C2.19465 20.8784 2.28704 21.104 2.45308 21.2701C2.61892 21.4361 2.84473 21.5283 3.0795 21.5264C3.3141 21.5242 3.53816 21.4281 3.70128 21.2591L5.00789 19.9525L6.3145 21.2591C6.53562 21.4804 6.85772 21.5668 7.15971 21.4861C7.4619 21.4052 7.69788 21.1693 7.77894 20.8673C7.86 20.5653 7.77366 20.243 7.55274 20.0219L6.24518 18.7153L7.55259 17.4087C7.71647 17.2446 7.80887 17.0221 7.80887 16.79C7.80887 16.558 7.71662 16.3355 7.55274 16.1714Z" fill="#1673FF"/>
<path d="M21.8828 4.27578L22.056 4.1758L22.056 4.17571L21.8828 4.27578ZM21.8828 5.15089L22.056 5.25096L22.056 5.25087L21.8828 5.15089ZM3.54675 7.07613L3.70674 6.9561L3.70586 6.95496L3.54675 7.07613ZM4.23628 7.42617L4.23384 7.62617H4.23628V7.42617ZM4.24507 7.42617V7.62617L4.24522 7.62617L4.24507 7.42617ZM4.93206 7.09273L5.08913 7.21653L5.08917 7.21648L4.93206 7.09273ZM7.82696 3.41728L7.66995 3.29339L7.66984 3.29353L7.82696 3.41728ZM7.26597 2.0091L7.29484 1.8112L7.29471 1.81118L7.26597 2.0091ZM6.45297 2.33297L6.29602 2.20901L6.29592 2.20913L6.45297 2.33297ZM4.2564 5.11847L4.09693 5.23917L4.25316 5.44557L4.41344 5.24231L4.2564 5.11847ZM3.57742 4.22146L3.41777 4.34193L3.41795 4.34216L3.57742 4.22146ZM2.76992 3.87922L2.74548 3.68072L2.74534 3.68074L2.76992 3.87922ZM2.06983 4.40739L2.25397 4.48543L2.25397 4.48543L2.06983 4.40739ZM2.17726 5.2778L2.01757 5.39821L2.01815 5.39897L2.17726 5.2778ZM9.96474 11.2766L9.79157 11.1766L9.79152 11.1767L9.96474 11.2766ZM9.96474 12.1517L9.79152 12.2517L9.79157 12.2518L9.96474 12.1517ZM21.8828 12.1517L22.056 12.2518L22.056 12.2517L21.8828 12.1517ZM21.8828 11.2766L22.056 11.1767L22.056 11.1766L21.8828 11.2766ZM6.4491 9.3356L6.60621 9.45937L6.6495 9.40441L6.6491 9.33446L6.4491 9.3356ZM4.25608 12.1193L4.09662 12.2401L4.25292 12.4465L4.41319 12.2431L4.25608 12.1193ZM3.5771 11.2223L3.41746 11.3428L3.41763 11.343L3.5771 11.2223ZM2.7696 10.8801L2.74516 10.6816L2.74503 10.6816L2.7696 10.8801ZM2.06952 11.4083L2.25366 11.4863L2.25366 11.4863L2.06952 11.4083ZM2.17695 12.2787L2.01726 12.3991L2.01773 12.3997L2.17695 12.2787ZM3.54392 14.0769L3.70397 13.957L3.70314 13.9559L3.54392 14.0769ZM4.23345 14.427L4.23101 14.627H4.23345V14.427ZM4.24224 14.427V14.627H4.24239L4.24224 14.427ZM4.92903 14.0935L5.0861 14.2174L5.08613 14.2173L4.92903 14.0935ZM7.82468 10.4181L7.98178 10.5419L7.98179 10.5419L7.82468 10.4181ZM7.95048 9.55139L8.13626 9.47734L8.13622 9.47724L7.95048 9.55139ZM7.26249 9.00932L7.23377 9.20725L7.23391 9.20727L7.26249 9.00932ZM6.44909 9.33378L6.29205 9.20994L6.24869 9.26492L6.2491 9.33493L6.44909 9.33378ZM9.96474 18.2777L9.79157 18.1776L9.79152 18.1777L9.96474 18.2777ZM9.96474 19.1528L9.79152 19.2528L9.79157 19.2529L9.96474 19.1528ZM21.8828 19.1528L22.056 19.2529L22.056 19.2528L21.8828 19.1528ZM21.8828 18.2777L22.056 18.1777L22.056 18.1776L21.8828 18.2777ZM7.55274 16.1714L7.69424 16.0301L7.55274 16.1714ZM6.31429 16.1714L6.45571 16.3128L6.45579 16.3127L6.31429 16.1714ZM5.00788 17.4778L4.86647 17.6192L5.00789 17.7606L5.1493 17.6192L5.00788 17.4778ZM3.70127 16.1714L3.8427 16.0299L3.8402 16.0275L3.70127 16.1714ZM2.86191 15.9567L2.80908 15.7638L2.80896 15.7639L2.86191 15.9567ZM2.24934 16.5693L2.05645 16.5164L2.05644 16.5165L2.24934 16.5693ZM2.46382 17.4086L2.31994 17.5476L2.3224 17.5501L2.46382 17.4086ZM3.77043 18.7153L3.91185 18.8567L4.05327 18.7153L3.91185 18.5738L3.77043 18.7153ZM2.46382 20.0219L2.60274 20.1658L2.60524 20.1633L2.46382 20.0219ZM2.1968 20.6436L2.39679 20.6455L2.39679 20.6453L2.1968 20.6436ZM2.45308 21.2701L2.59458 21.1287L2.59449 21.1286L2.45308 21.2701ZM3.0795 21.5264L3.08117 21.7263L3.08134 21.7263L3.0795 21.5264ZM3.70128 21.2591L3.55984 21.1177L3.55739 21.1202L3.70128 21.2591ZM5.00789 19.9525L5.14931 19.8111L5.00789 19.6697L4.86647 19.8111L5.00789 19.9525ZM6.3145 21.2591L6.45599 21.1178L6.45592 21.1177L6.3145 21.2591ZM7.15971 21.4861L7.21133 21.6793L7.21141 21.6793L7.15971 21.4861ZM7.77894 20.8673L7.58577 20.8154L7.58577 20.8154L7.77894 20.8673ZM7.55274 20.0219L7.69423 19.8805L7.69411 19.8804L7.55274 20.0219ZM6.24518 18.7153L6.1038 18.5738L5.96224 18.7153L6.10381 18.8567L6.24518 18.7153ZM7.55259 17.4087L7.69397 17.5501L7.69409 17.55L7.55259 17.4087ZM10.0475 4.71334C10.0475 4.5343 10.1187 4.36249 10.2452 4.23593L9.96238 3.95309C9.76078 4.15469 9.64752 4.42826 9.64752 4.71334H10.0475ZM10.2452 4.23593C10.3718 4.10938 10.5436 4.03823 10.7226 4.03823V3.63823C10.4376 3.63823 10.164 3.75148 9.96238 3.95309L10.2452 4.23593ZM10.7226 4.03823H21.1249V3.63823H10.7226V4.03823ZM21.1249 4.03823C21.366 4.03823 21.5889 4.1669 21.7096 4.37586L22.056 4.17571C21.8638 3.84319 21.5089 3.63823 21.1249 3.63823V4.03823ZM21.7096 4.37576C21.8301 4.58463 21.8301 4.84205 21.7096 5.05091L22.056 5.25087C22.248 4.91827 22.248 4.50841 22.056 4.1758L21.7096 4.37576ZM21.7096 5.05082C21.5889 5.25977 21.3659 5.38844 21.1249 5.38844V5.78844C21.5089 5.78844 21.8638 5.58348 22.056 5.25096L21.7096 5.05082ZM21.1249 5.38844H10.7226V5.78844H21.1249V5.38844ZM10.7226 5.38844C10.5436 5.38844 10.3718 5.3173 10.2452 5.19074L9.96238 5.47358C10.164 5.67519 10.4376 5.78844 10.7226 5.78844V5.38844ZM10.2452 5.19074C10.1187 5.06419 10.0475 4.89238 10.0475 4.71334H9.64752C9.64752 4.99841 9.76078 5.27198 9.96238 5.47358L10.2452 5.19074ZM3.38676 7.19615C3.58711 7.46321 3.90003 7.62207 4.23384 7.62615L4.23873 7.22618C4.02911 7.22362 3.83259 7.12387 3.70673 6.9561L3.38676 7.19615ZM4.23628 7.62617H4.24507V7.22617H4.23628V7.62617ZM4.24522 7.62617C4.57439 7.62593 4.88539 7.47502 5.08913 7.21653L4.77498 6.96892C4.64708 7.13119 4.45176 7.22602 4.24493 7.22617L4.24522 7.62617ZM5.08917 7.21648L7.98408 3.54103L7.66984 3.29353L4.77494 6.96898L5.08917 7.21648ZM7.98397 3.54116C8.22181 3.23973 8.28082 2.83418 8.13876 2.47739L7.76714 2.62535C7.85636 2.84944 7.81927 3.10414 7.66995 3.29339L7.98397 3.54116ZM8.13876 2.47739C7.99668 2.12052 7.67487 1.86664 7.29484 1.8112L7.2371 2.20701C7.47587 2.24184 7.67795 2.40135 7.76714 2.62535L8.13876 2.47739ZM7.29471 1.81118C6.91461 1.75599 6.53403 1.90765 6.29602 2.20901L6.60992 2.45693C6.75945 2.26761 6.9985 2.17236 7.23723 2.20703L7.29471 1.81118ZM6.29592 2.20913L4.09935 4.99462L4.41344 5.24231L6.61001 2.45682L6.29592 2.20913ZM4.41587 4.99776L3.73688 4.10075L3.41795 4.34216L4.09693 5.23917L4.41587 4.99776ZM3.73706 4.10098C3.50533 3.79393 3.12731 3.63371 2.74548 3.68072L2.79436 4.07773C3.03443 4.04817 3.27211 4.14892 3.41777 4.34193L3.73706 4.10098ZM2.74534 3.68074C2.36381 3.72798 2.03587 3.97499 1.88569 4.32935L2.25397 4.48543C2.34832 4.26282 2.55447 4.10743 2.79449 4.07771L2.74534 3.68074ZM1.88569 4.32934C1.7355 4.6837 1.78592 5.09101 2.01758 5.39821L2.33695 5.15738C2.19122 4.96412 2.1596 4.7081 2.25397 4.48543L1.88569 4.32934ZM2.01815 5.39897L3.38763 7.1973L3.70586 6.95496L2.33638 5.15662L2.01815 5.39897ZM21.1249 10.6391H10.7226V11.0391H21.1249V10.6391ZM10.7226 10.6391C10.3386 10.6391 9.98375 10.8441 9.79157 11.1766L10.1379 11.3767C10.2587 11.1678 10.4816 11.0391 10.7226 11.0391V10.6391ZM9.79152 11.1767C9.59954 11.5093 9.59954 11.9191 9.79152 12.2517L10.138 12.0518C10.0174 11.8429 10.0174 11.5855 10.138 11.3766L9.79152 11.1767ZM9.79157 12.2518C9.98374 12.5843 10.3386 12.7893 10.7226 12.7893V12.3893C10.4816 12.3893 10.2587 12.2606 10.1379 12.0517L9.79157 12.2518ZM10.7226 12.7893H21.1249V12.3893H10.7226V12.7893ZM21.1249 12.7893C21.5089 12.7893 21.8638 12.5843 22.056 12.2518L21.7096 12.0517C21.5889 12.2606 21.366 12.3893 21.1249 12.3893V12.7893ZM22.056 12.2517C22.248 11.9191 22.248 11.5093 22.056 11.1767L21.7096 11.3766C21.8301 11.5855 21.8301 11.8429 21.7096 12.0518L22.056 12.2517ZM22.056 11.1766C21.8638 10.844 21.5089 10.6391 21.1249 10.6391V11.0391C21.3659 11.0391 21.5889 11.1678 21.7096 11.3767L22.056 11.1766ZM6.292 9.21184L4.09898 11.9956L4.41319 12.2431L6.60621 9.45937L6.292 9.21184ZM4.41555 11.9986L3.73657 11.1016L3.41763 11.343L4.09662 12.2401L4.41555 11.9986ZM3.73674 11.1019C3.50502 10.7948 3.127 10.6346 2.74516 10.6816L2.79404 11.0786C3.03411 11.049 3.2718 11.1498 3.41746 11.3428L3.73674 11.1019ZM2.74503 10.6816C2.36349 10.7289 2.03555 10.9759 1.88537 11.3302L2.25366 11.4863C2.34801 11.2637 2.55415 11.1083 2.79418 11.0786L2.74503 10.6816ZM1.88537 11.3302C1.73518 11.6846 1.78561 12.0919 2.01726 12.3991L2.33664 12.1583C2.19091 11.965 2.15929 11.709 2.25366 11.4863L1.88537 11.3302ZM2.01773 12.3997L3.3847 14.198L3.70314 13.9559L2.33617 12.1576L2.01773 12.3997ZM3.38386 14.1969C3.58408 14.4641 3.89727 14.6229 4.23101 14.627L4.2359 14.227C4.02621 14.2244 3.82957 14.1246 3.70397 13.957L3.38386 14.1969ZM4.23345 14.627H4.24224V14.227H4.23345V14.627ZM4.24239 14.627C4.57139 14.6267 4.88238 14.4758 5.0861 14.2174L4.77195 13.9697C4.64404 14.132 4.44871 14.2268 4.2421 14.227L4.24239 14.627ZM5.08613 14.2173L7.98178 10.5419L7.66758 10.2943L4.77192 13.9698L5.08613 14.2173ZM7.98179 10.5419C8.21951 10.2401 8.27856 9.83438 8.13626 9.47734L7.76469 9.62544C7.85406 9.84968 7.81701 10.1046 7.66757 10.2943L7.98179 10.5419ZM8.13622 9.47724C7.99372 9.12025 7.6717 8.86634 7.29108 8.81138L7.23391 9.20727C7.47291 9.24179 7.67518 9.40121 7.76473 9.62554L8.13622 9.47724ZM7.29121 8.8114C6.91088 8.75621 6.53005 8.90811 6.29205 9.20994L6.60614 9.45762C6.75568 9.26798 6.99489 9.17259 7.23377 9.20725L7.29121 8.8114ZM6.2491 9.33493L6.24911 9.33675L6.6491 9.33446L6.64909 9.33263L6.2491 9.33493ZM21.1249 17.6401H10.7226V18.0401H21.1249V17.6401ZM10.7226 17.6401C10.3386 17.6401 9.98375 17.8451 9.79157 18.1776L10.1379 18.3778C10.2587 18.1688 10.4816 18.0401 10.7226 18.0401V17.6401ZM9.79152 18.1777C9.59954 18.5103 9.59954 18.9202 9.79152 19.2528L10.138 19.0528C10.0174 18.844 10.0174 18.5865 10.138 18.3777L9.79152 18.1777ZM9.79157 19.2529C9.98374 19.5854 10.3386 19.7904 10.7226 19.7904V19.3904C10.4816 19.3904 10.2587 19.2617 10.1379 19.0527L9.79157 19.2529ZM10.7226 19.7904H21.1249V19.3904H10.7226V19.7904ZM21.1249 19.7904C21.5089 19.7904 21.8638 19.5854 22.056 19.2529L21.7096 19.0527C21.5889 19.2617 21.366 19.3904 21.1249 19.3904V19.7904ZM22.056 19.2528C22.248 18.9202 22.248 18.5103 22.056 18.1777L21.7096 18.3777C21.8301 18.5865 21.8301 18.844 21.7096 19.0528L22.056 19.2528ZM22.056 18.1776C21.8638 17.8451 21.5089 17.6401 21.1249 17.6401V18.0401C21.3659 18.0401 21.5889 18.1688 21.7096 18.3778L22.056 18.1776ZM7.69424 16.0301C7.49242 15.828 7.21881 15.7147 6.93351 15.7147V16.1147C7.11274 16.1147 7.2845 16.1858 7.41123 16.3127L7.69424 16.0301ZM6.93351 15.7147C6.64822 15.7147 6.37461 15.828 6.17279 16.0301L6.45579 16.3127C6.58253 16.1858 6.7543 16.1147 6.93351 16.1147V15.7147ZM6.17287 16.03L4.86646 17.3364L5.1493 17.6192L6.45571 16.3128L6.17287 16.03ZM5.14929 17.3364L3.84268 16.03L3.55986 16.3128L4.86647 17.6192L5.14929 17.3364ZM3.8402 16.0275C3.56715 15.7638 3.1753 15.6635 2.80908 15.7638L2.91475 16.1496C3.1447 16.0866 3.39079 16.1496 3.56233 16.3153L3.8402 16.0275ZM2.80896 15.7639C2.44285 15.8644 2.1568 16.1504 2.05645 16.5164L2.44222 16.6222C2.5052 16.3924 2.68481 16.2127 2.91487 16.1496L2.80896 15.7639ZM2.05644 16.5165C1.95616 16.8826 2.05619 17.2745 2.31996 17.5476L2.60768 17.2697C2.4421 17.0983 2.37922 16.8522 2.44223 16.6221L2.05644 16.5165ZM2.3224 17.5501L3.62901 18.8567L3.91185 18.5738L2.60524 17.2672L2.3224 17.5501ZM3.62901 18.5738L2.3224 19.8804L2.60524 20.1633L3.91185 18.8567L3.62901 18.5738ZM2.32492 19.878C2.11751 20.0782 1.9992 20.3537 1.9968 20.642L2.39679 20.6453C2.39829 20.4644 2.47259 20.2914 2.60272 20.1658L2.32492 19.878ZM1.9968 20.6418C1.99416 20.9304 2.10773 21.2076 2.31166 21.4115L2.59449 21.1286C2.46636 21.0005 2.39513 20.8265 2.39679 20.6455L1.9968 20.6418ZM2.31157 21.4114C2.51547 21.6155 2.79293 21.7287 3.08117 21.7263L3.07784 21.3264C2.89653 21.3279 2.72236 21.2567 2.59458 21.1287L2.31157 21.4114ZM3.08134 21.7263C3.36946 21.7237 3.64472 21.6057 3.84517 21.398L3.55739 21.1202C3.43159 21.2505 3.25875 21.3247 3.07767 21.3264L3.08134 21.7263ZM3.8427 21.4005L5.14931 20.0939L4.86647 19.8111L3.55986 21.1177L3.8427 21.4005ZM4.86647 20.0939L6.17308 21.4005L6.45592 21.1177L5.14931 19.8111L4.86647 20.0939ZM6.17302 21.4005C6.44466 21.6724 6.84038 21.7784 7.21133 21.6793L7.10809 21.2929C6.87507 21.3551 6.62659 21.2885 6.45599 21.1178L6.17302 21.4005ZM7.21141 21.6793C7.58266 21.58 7.87253 21.2901 7.9721 20.9191L7.58577 20.8154C7.52322 21.0485 7.34114 21.2305 7.10801 21.2929L7.21141 21.6793ZM7.9721 20.9191C8.0717 20.5481 7.96561 20.1522 7.69423 19.8805L7.41125 20.1632C7.58171 20.3339 7.6483 20.5825 7.58577 20.8154L7.9721 20.9191ZM7.69411 19.8804L6.38655 18.5738L6.10381 18.8567L7.41137 20.1634L7.69411 19.8804ZM6.38656 18.8567L7.69397 17.5501L7.41121 17.2672L6.1038 18.5738L6.38656 18.8567ZM7.69409 17.55C7.89532 17.3485 8.00887 17.0753 8.00887 16.79H7.60887C7.60887 16.9689 7.53763 17.1406 7.41108 17.2673L7.69409 17.55ZM8.00887 16.79C8.00887 16.5049 7.89553 16.2316 7.69424 16.0301L7.41123 16.3127C7.53772 16.4394 7.60887 16.6111 7.60887 16.79H8.00887Z" fill="#1673FF" mask="url(#path-1-outside-1_5614_8970)"/>
</svg>
