<svg width="24" height="24" viewBox="0 0 24 24" fill="none" xmlns="http://www.w3.org/2000/svg">
<path d="M13.05 16.2002H10.95V18.3002H13.05V16.2002Z" fill="currentColor"/>
<path d="M12 1.5C6.20103 1.5 1.5 6.20103 1.5 12C1.5 17.7989 6.20103 22.4999 12 22.4999C17.7989 22.4999 22.4999 17.7989 22.4999 12C22.4999 6.20103 17.799 1.5 12 1.5ZM12 20.5995C7.25061 20.5995 3.40048 16.7493 3.40048 12C3.40048 7.25061 7.25061 3.40048 12 3.40048C16.7469 3.40624 20.5937 7.25298 20.5995 12C20.5995 16.7494 16.7494 20.5995 12 20.5995Z" fill="currentColor"/>
<path d="M16.0846 8.90215C15.5445 6.64631 13.2779 5.25549 11.022 5.79561C9.12551 6.2497 7.79104 7.94952 7.80009 9.89966H9.90011C9.99869 8.73987 11.0188 7.87958 12.1786 7.97817C13.3384 8.07675 14.1987 9.09686 14.1001 10.2566C13.8856 11.3003 12.9494 12.0368 11.8846 11.9996C11.3685 11.9996 10.9501 12.418 10.9501 12.9341V15.1496H13.0501V13.9526C15.2709 13.38 16.6217 11.1318 16.0846 8.90215Z" fill="currentColor"/>
</svg>
