<svg width="24" height="24" viewBox="0 0 24 24" fill="none" xmlns="http://www.w3.org/2000/svg">
<path d="M16.2401 7.76018C16.7979 8.31741 17.2405 8.97914 17.5424 9.70753C17.8444 10.4359 17.9998 11.2167 17.9998 12.0052C17.9998 12.7937 17.8444 13.5744 17.5424 14.3028C17.2405 15.0312 16.7979 15.6929 16.2401 16.2502M7.76006 16.2402C7.2022 15.6829 6.75965 15.0212 6.4577 14.2928C6.15576 13.5644 6.00034 12.7837 6.00034 11.9952C6.00034 11.2067 6.15576 10.4259 6.4577 9.69753C6.75965 8.96915 7.2022 8.30741 7.76006 7.75018M19.0701 4.93018C20.9448 6.80545 21.9979 9.34853 21.9979 12.0002C21.9979 14.6518 20.9448 17.1949 19.0701 19.0702M4.93006 19.0702C3.05535 17.1949 2.0022 14.6518 2.0022 12.0002C2.0022 9.34853 3.05535 6.80545 4.93006 4.93018M14.0001 12.0002C14.0001 13.1047 13.1046 14.0002 12.0001 14.0002C10.8955 14.0002 10.0001 13.1047 10.0001 12.0002C10.0001 10.8956 10.8955 10.0002 12.0001 10.0002C13.1046 10.0002 14.0001 10.8956 14.0001 12.0002Z" stroke="#757575" stroke-linecap="round" stroke-linejoin="round"/>
</svg>
