<svg width="24" height="24" viewBox="0 0 24 24" fill="none" xmlns="http://www.w3.org/2000/svg">
<path d="M17 1.99987H19.67C20.236 1.98986 20.7859 2.18801 21.2154 2.55669C21.645 2.92538 21.9242 3.43893 22 3.99987V10.9999C21.9242 11.5608 21.645 12.0744 21.2154 12.4431C20.7859 12.8117 20.236 13.0099 19.67 12.9999H17M10 14.9999V18.9999C10 19.7955 10.3161 20.5586 10.8787 21.1212C11.4413 21.6838 12.2044 21.9999 13 21.9999L17 12.9999V1.99987H5.72003C5.2377 1.99442 4.76965 2.16347 4.40212 2.47587C4.0346 2.78827 3.79235 3.22297 3.72003 3.69987L2.34003 12.6999C2.29652 12.9865 2.31586 13.2792 2.39669 13.5576C2.47753 13.8361 2.61793 14.0936 2.80817 14.3124C2.99842 14.5311 3.23395 14.7059 3.49846 14.8247C3.76297 14.9434 4.05012 15.0032 4.34003 14.9999H10Z" stroke="currentColor" stroke-linecap="round" stroke-linejoin="round"/>
</svg>
