<svg width="24" height="24" viewBox="0 0 24 24" fill="none" xmlns="http://www.w3.org/2000/svg">
<path d="M14.7001 6.30022C14.5169 6.48715 14.4142 6.73847 14.4142 7.00022C14.4142 7.26198 14.5169 7.5133 14.7001 7.70022L16.3001 9.30022C16.487 9.48345 16.7383 9.58608 17.0001 9.58608C17.2619 9.58608 17.5132 9.48345 17.7001 9.30022L21.4701 5.53022C21.9729 6.64141 22.1252 7.87946 21.9066 9.07937C21.6879 10.2793 21.1088 11.3841 20.2464 12.2465C19.3839 13.1089 18.2792 13.6881 17.0792 13.9067C15.8793 14.1253 14.6413 13.9731 13.5301 13.4702L6.6201 20.3802C6.22227 20.778 5.68271 21.0015 5.1201 21.0015C4.55749 21.0015 4.01792 20.778 3.6201 20.3802C3.22227 19.9824 2.99878 19.4428 2.99878 18.8802C2.99878 18.3176 3.22227 17.778 3.6201 17.3802L10.5301 10.4702C10.0273 9.35904 9.87502 8.12099 10.0936 6.92108C10.3123 5.72117 10.8914 4.61638 11.7538 3.75395C12.6163 2.89151 13.721 2.31239 14.921 2.09377C16.1209 1.87514 17.3589 2.02739 18.4701 2.53022L14.7101 6.29022L14.7001 6.30022Z" stroke="currentColor" stroke-linecap="round" stroke-linejoin="round"/>
</svg>
