<?xml version="1.0" encoding="UTF-8"?>
<svg width="100%" height="100%" viewBox="0 0 16 16" version="1.1" xmlns="http://www.w3.org/2000/svg" xmlns:xlink="http://www.w3.org/1999/xlink">
    <!-- Generator: Sketch 55.1 (78136) - https://sketchapp.com -->
    <title>icon / 16 px / add</title>
    <desc>Created with Sketch.</desc>
    <g id="icon-/-16-px-/-add" stroke="none" stroke-width="1" fill="none" fill-rule="evenodd">
        <rect id="Rectangle" x="0" y="0" width="16" height="16"></rect>
        <path d="M8.52941176,7.52941176 L11.0117647,7.52941176 L11.0117647,8.52941176 L8.52941176,8.52941176 L8.52941176,11.0117647 L7.52941176,11.0117647 L7.52941176,8.52941176 L4.98823529,8.52941176 L4.98823529,7.52941176 L7.52941176,7.52941176 L7.52941176,4.98823529 L8.52941176,4.98823529 L8.52941176,7.52941176 Z M8,16 C3.581722,16 0,12.418278 0,8 C0,3.581722 3.581722,0 8,0 C12.418278,0 16,3.581722 16,8 C16,12.418278 12.418278,16 8,16 Z M8,15.0588235 C11.8984806,15.0588235 15.0588235,11.8984806 15.0588235,8 C15.0588235,4.10151941 11.8984806,0.941176471 8,0.941176471 C4.10151941,0.941176471 0.941176471,4.10151941 0.941176471,8 C0.941176471,11.8984806 4.10151941,15.0588235 8,15.0588235 Z" id="Combined-Shape" fill="#4CAF50" fill-rule="nonzero"></path>
    </g>
</svg>