<?xml version="1.0" encoding="UTF-8"?>
<svg width="100%" height="100%" viewBox="0 0 16 16" version="1.1" xmlns="http://www.w3.org/2000/svg" xmlns:xlink="http://www.w3.org/1999/xlink">
    <title>icon / m / bell</title>
    <g id="icon-/-m-/-bell" stroke="none" stroke-width="1" fill="none" fill-rule="evenodd">
        <g id="Group">
            <rect id="Rectangle" x="0" y="0" width="16" height="16"></rect>
            <path d="M9.71277186,13.435 C10.1904982,13.7121209 10.3531209,14.3240456 10.076,14.8017719 C9.64664269,15.5419371 8.85568233,15.9975194 8,15.9975194 C7.14431767,15.9975194 6.35335731,15.5419371 5.924,14.8017719 C5.64687905,14.3240456 5.80950183,13.7121209 6.28722814,13.435 C6.76495445,13.1578791 7.37687905,13.3205018 7.654,13.7982281 C7.72555955,13.921589 7.85738628,13.9975194 8,13.9975194 C8.14261372,13.9975194 8.27444045,13.921589 8.346,13.7982281 C8.62312095,13.3205018 9.23504555,13.1578791 9.71277186,13.435 Z M8,0 C10.7982427,0 13.0802518,2.21025922 13.1954381,4.98018869 L13.2,5.2 C13.2,7.18100389 13.5542152,8.65690049 14.1278956,9.70864787 C14.4097526,10.2253857 14.665793,10.5175727 14.8106496,10.6351542 L14.8547002,10.6679497 C15.6450079,11.1948215 15.3185515,12.398517 14.4158056,12.4939696 L14.3,12.5 L1.7,12.5 C0.750168359,12.5 0.35410638,11.3173794 1.05228872,10.7372047 L1.1452998,10.6679497 C1.2776279,10.579731 1.55893001,10.282801 1.87210443,9.70864787 C2.44578482,8.65690049 2.8,7.18100389 2.8,5.2 C2.8,2.3281193 5.1281193,0 8,0 Z M8,2 C6.2326888,2 4.8,3.4326888 4.8,5.2 C4.8,7.3623401 4.41918327,9.08422275 3.76281258,10.4070872 L3.714,10.5 L12.285,10.5 L12.2371874,10.4070872 C11.6245748,9.17241371 11.2520002,7.59015104 11.2050464,5.62660753 L11.2,5.2 L11.1949344,5.01841339 C11.100796,3.33558623 9.70636943,2 8,2 Z" id="Combined-Shape" fill="#0066CC"></path>
        </g>
    </g>
</svg>