<?xml version="1.0" encoding="UTF-8"?>
<svg width="100%" height="100%" viewBox="0 0 16 16" version="1.1" xmlns="http://www.w3.org/2000/svg" xmlns:xlink="http://www.w3.org/1999/xlink">
    <!-- Generator: Sketch 55.1 (78136) - https://sketchapp.com -->
    <title>icon / 16 px / bell unactive</title>
    <desc>Created with Sketch.</desc>
    <g id="icon-/-16-px-/-bell-unactive" stroke="none" stroke-width="1" fill="none" fill-rule="evenodd">
        <rect id="Rectangle" x="0" y="0" width="16" height="16"></rect>
        <path d="M8,0 C10.5966565,0 12.7299849,1.98374305 12.9671568,4.51840056 L12.9890673,4.51840056 L12.9890673,4.98906729 C12.9890673,7.21873506 13.3940596,8.90620311 14.0611969,10.1292882 C14.2885908,10.5461769 14.5292201,10.8750369 14.7662826,11.1252696 C14.9002711,11.2667019 14.9967235,11.3470789 15.0386798,11.3750497 L14.7776008,12.2373349 L1.22239916,12.2373349 L0.961320232,11.3750497 C1.00327649,11.3470789 1.09972894,11.2667019 1.23371743,11.1252696 C1.47077993,10.8750369 1.71140923,10.5461769 1.93880306,10.1292882 C2.60594038,8.90620311 3.01093271,7.21873506 3.01093271,4.98906729 C3.01093271,2.23368151 5.24461422,0 8,0 Z M13.2348045,10.5800477 C12.5397366,9.30575656 12.1082106,7.61615279 12.0477338,5.45973401 L12.0477338,4.98906729 C12.0477338,2.75356562 10.2355017,0.941333451 8,0.941333451 C5.76449833,0.941333451 3.95226616,2.75356562 3.95226616,4.98906729 C3.95226616,7.37193342 3.51005839,9.21446582 2.76519553,10.5800477 C2.615851,10.853846 2.46493568,11.0917152 2.31745952,11.2960014 L13.6825405,11.2960014 C13.5350643,11.0917152 13.384149,10.853846 13.2348045,10.5800477 Z M8.89567878,14.5427679 L9.1318461,14.1356411 L9.94609953,14.6079758 L9.70993221,15.0151025 C9.35628486,15.624752 8.7047971,16 8,16 C7.2952029,16 6.64371514,15.624752 6.29006779,15.0151025 L6.05390047,14.6079758 L6.8681539,14.1356411 L7.10432122,14.5427679 C7.28956507,14.8621081 7.63082057,15.0586665 8,15.0586665 C8.36917943,15.0586665 8.71043493,14.8621081 8.89567878,14.5427679 Z" id="Combined-Shape" fill="#90A4AE" fill-rule="nonzero"></path>
    </g>
</svg>