<?xml version="1.0" encoding="UTF-8"?>
<svg width="100%" height="100%" viewBox="0 0 16 16" version="1.1" xmlns="http://www.w3.org/2000/svg" xmlns:xlink="http://www.w3.org/1999/xlink">
    <!-- Generator: Sketch 62 (91390) - https://sketch.com -->
    <title>icon / m / clock</title>
    <desc>Created with Sketch.</desc>
    <g id="icon-/-m-/-clock" stroke="none" stroke-width="1" fill="none" fill-rule="evenodd">
        <rect id="Rectangle" x="0" y="0" width="16" height="16"></rect>
        <path d="M8,0 C12.418278,0 16,3.581722 16,8 C16,12.418278 12.418278,16 8,16 C3.581722,16 0,12.418278 0,8 C0,3.581722 3.581722,0 8,0 Z M8,1.77777778 C4.56356156,1.77777778 1.77777778,4.56356156 1.77777778,8 C1.77777778,11.4364384 4.56356156,14.2222222 8,14.2222222 C11.4364384,14.2222222 14.2222222,11.4364384 14.2222222,8 C14.2222222,4.56356156 11.4364384,1.77777778 8,1.77777778 Z M8,2.84444444 C8.45585408,2.84444444 8.83156192,3.18759128 8.88290868,3.62967011 L8.88888889,3.73333333 L8.88888889,7.45066667 L11.2419676,8.62717583 C11.6496959,8.83103997 11.8322793,9.30598149 11.6805016,9.72435178 L11.6394908,9.81974542 C11.4356267,10.2274737 10.9606852,10.4100571 10.5423149,10.2582794 L10.4469212,10.2172686 L7.6024768,8.79504639 C7.3347956,8.66120579 7.15475253,8.40314295 7.11804767,8.11098248 L7.11111111,8 L7.11111111,3.73333333 C7.11111111,3.24241356 7.50908022,2.84444444 8,2.84444444 Z" id="Combined-Shape" fill="#90A4AE"></path>
    </g>
</svg>