<?xml version="1.0" encoding="UTF-8"?>
<svg width="100%" height="100%" viewBox="0 0 16 16" version="1.1" xmlns="http://www.w3.org/2000/svg" xmlns:xlink="http://www.w3.org/1999/xlink">
    <title>icon / m / database</title>
    <g id="icon-/-m-/-database" stroke="none" stroke-width="1" fill="none" fill-rule="evenodd">
        <g id="Group">
            <rect id="Rectangle" x="0" y="0" width="16" height="16"></rect>
            <path d="M8,-1.87583282e-12 L8.28646931,0.00185194638 C11.9195514,0.0490199506 14.8749484,0.996070285 15.2579765,2.71413547 C15.2747984,2.76871009 15.2865248,2.82528518 15.2932723,2.88337887 L15.3,3 L15.3,12.8 C15.3,14.8131347 12.0444125,15.9 8,15.9 C4.05188299,15.9 0.855475154,14.864274 0.705503418,12.9422179 L0.7,12.8 L0.7,3 C0.7,2.90064719 0.714488923,2.80467845 0.741469071,2.71409147 C1.13507113,0.95112763 4.23682861,-1.87583282e-12 8,-1.87583282e-12 L8,-1.87583282e-12 Z M8,11.1 C5.90908556,11.1 4.02900594,10.8095059 2.70061621,10.2507086 L2.701,12.774 L2.7060124,12.762864 C2.71621926,12.7546089 2.74320395,12.7790773 2.81325034,12.834583 C3.02586716,13.0030635 3.38310905,13.1799523 3.85416552,13.3372127 C4.91575573,13.6916205 6.39804261,13.9 8,13.9 C9.60195739,13.9 11.0842443,13.6916205 12.1458345,13.3372127 C12.616891,13.1799523 12.9741328,13.0030635 13.1867497,12.834583 L13.2628084,12.7748132 C13.2879752,12.7567781 13.2963121,12.7566757 13.2989076,12.7752173 L13.3,12.798 L13.3003758,10.2502912 C11.9719301,10.8093612 10.091435,11.1 8,11.1 Z M13.3000512,5.3467648 C11.9691986,5.90767973 10.086239,6.2 8,6.2 C5.91376097,6.2 4.03080139,5.90767973 2.69994884,5.3467648 L2.701,7.974 L2.7060124,7.96286401 C2.71621926,7.95460891 2.74320395,7.97907725 2.81325034,8.03458298 C3.02586716,8.20306348 3.38310905,8.37995234 3.85416552,8.53721273 C4.91575573,8.89162054 6.39804261,9.1 8,9.1 C9.60195739,9.1 11.0842443,8.89162054 12.1458345,8.53721273 C12.616891,8.37995234 12.9741328,8.20306348 13.1867497,8.03458298 L13.2628084,7.97481318 C13.2879752,7.95677806 13.2963121,7.95667567 13.2989076,7.97521732 L13.3,7.998 Z M8,2 C6.40787386,2 4.92591756,2.20893822 3.86145504,2.56375906 C3.38819448,2.72151258 3.02854471,2.89896316 2.81405908,3.06799682 L2.81405908,3.06799682 L2.772,3.1 L2.9147771,3.20487953 C3.0971465,3.32692577 3.35127942,3.45121724 3.66567684,3.56750831 L3.66567684,3.56750831 L3.86145504,3.63624094 C4.92591756,3.99106178 6.40787386,4.2 8,4.2 C9.59212614,4.2 11.0740824,3.99106178 12.138545,3.63624094 C12.6118055,3.47848742 12.9714553,3.30103684 13.1859409,3.13200318 L13.1859409,3.13200318 L13.227,3.1 L13.1859409,3.06799682 C13.0020961,2.92311083 12.7116001,2.77204097 12.3343232,2.63249169 L12.3343232,2.63249169 L12.138545,2.56375906 C11.0740824,2.20893822 9.59212614,2 8,2 Z" id="Combined-Shape" fill="#90A4AE"></path>
        </g>
    </g>
</svg>