<?xml version="1.0" encoding="UTF-8"?>
<svg width="100%" height="100%" viewBox="0 0 24 24" version="1.1" xmlns="http://www.w3.org/2000/svg" xmlns:xlink="http://www.w3.org/1999/xlink">
    <!-- Generator: Sketch 62 (91390) - https://sketch.com -->
    <title>icon / l / done report</title>
    <desc>Created with Sketch.</desc>
    <g id="icon-/-l-/-done-report" stroke="none" stroke-width="1" fill="none" fill-rule="evenodd">
        <rect id="Rectangle" x="0" y="0" width="24" height="24"></rect>
        <path d="M15.2923077,8.39328607e-14 C16.2633578,8.39328607e-14 17.0593046,0.749706332 17.1329071,1.70187801 L17.1384615,1.84615385 L17.138,2.215 L18.4307692,2.21538462 C20.1063162,2.21538462 21.4751903,3.52840717 21.5645869,5.18164755 L21.5692308,5.35384615 L21.5692308,20.8615385 C21.5692308,22.5370854 20.2562082,23.9059595 18.6029678,23.9953561 L18.4307692,24 L5.13846154,24 C3.46291457,24 2.09404046,22.6869774 2.0046439,21.0337371 L2,20.8615385 L2,5.35384615 C2,3.67829919 3.31302255,2.30942507 4.96626294,2.22002852 L5.13846154,2.21538462 L6.43,2.215 L6.43076923,1.84615385 C6.43076923,0.875103737 7.18047556,0.0791569231 8.13264724,0.00555439237 L8.27692308,8.39328607e-14 L15.2923077,8.39328607e-14 Z M6.43,4.061 L5.13846154,4.06153846 C4.46672335,4.06153846 3.91469037,4.57405743 3.85206967,5.2293883 L3.84615385,5.35384615 L3.84615385,20.8615385 C3.84615385,21.5332767 4.35867281,22.0853096 5.01400368,22.1479303 L5.13846154,22.1538462 L18.4307692,22.1538462 C19.1025074,22.1538462 19.6545404,21.6413272 19.7171611,20.9859963 L19.7230769,20.8615385 L19.7230769,5.35384615 C19.7230769,4.68210796 19.210558,4.13007498 18.5552271,4.06745428 L18.4307692,4.06153846 L17.138,4.061 L17.1384615,4.43076923 C17.1384615,5.40181934 16.3887552,6.19776615 15.4365835,6.27136868 L15.2923077,6.27692308 L8.27692308,6.27692308 C7.30587297,6.27692308 6.50992615,5.52721674 6.43632362,4.57504507 L6.43076923,4.43076923 L6.43,4.061 Z M15.3503139,10.2928896 L16.7071068,11.6496824 L11.3002101,17.0565791 C10.9709078,17.3858814 10.4548817,17.4297559 10.0400197,17.1398874 L10.0400197,17.1398874 L9.94342085,17.0565791 L7.29289322,14.4060515 L8.64969122,13.0492535 L10.622,15.021 L15.3503139,10.2928896 Z M15.2923077,1.84615385 L8.27692308,1.84615385 L8.27692308,4.43076923 L15.2923077,4.43076923 L15.2923077,1.84615385 Z" id="Combined-Shape" fill="#060B45"></path>
    </g>
</svg>