<?xml version="1.0" encoding="UTF-8"?>
<svg width="100%" height="100%" viewBox="0 0 12 12" version="1.1" xmlns="http://www.w3.org/2000/svg" xmlns:xlink="http://www.w3.org/1999/xlink">
    <!-- Generator: Sketch 55.2 (78181) - https://sketchapp.com -->
    <title>icon / 12 px / eye</title>
    <desc>Created with Sketch.</desc>
    <g id="icon-/-12-px-/-eye" stroke="none" stroke-width="1" fill="none" fill-rule="evenodd">
        <rect id="Rectangle" x="0" y="0" width="12" height="12"></rect>
        <path d="M0.110714394,6.22142879 L0,6 L0.110714394,5.77857121 C0.180313851,5.6393723 0.310942146,5.40714422 0.501254384,5.1124672 C0.816238584,4.62474973 1.18789581,4.13733042 1.61585458,3.68084107 C2.86152443,2.35212656 4.32655902,1.54383161 6,1.54383161 C7.67344098,1.54383161 9.13847557,2.35212656 10.3841454,3.68084107 C10.8121042,4.13733042 11.1837614,4.62474973 11.4987456,5.1124672 C11.6890579,5.40714422 11.8196861,5.6393723 11.8892856,5.77857121 L12,6 L11.8892856,6.22142879 C11.8196861,6.3606277 11.6890579,6.59285578 11.4987456,6.8875328 C11.1837614,7.37525027 10.8121042,7.86266958 10.3841454,8.31915893 C9.13847557,9.64787344 7.67344098,10.4561684 6,10.4561684 C4.32655902,10.4561684 2.86152443,9.64787344 1.61585458,8.31915893 C1.18789581,7.86266958 0.816238584,7.37525027 0.501254384,6.8875328 C0.310942146,6.59285578 0.180313851,6.3606277 0.110714394,6.22142879 Z M1.33311148,6.35029176 C1.61769855,6.7909427 1.95392224,7.2318918 2.33828583,7.64187964 C3.41353701,8.78881423 4.64077083,9.46590875 6,9.46590875 C7.35922917,9.46590875 8.58646299,8.78881423 9.66171417,7.64187964 C10.0460778,7.2318918 10.3823015,6.7909427 10.6668885,6.35029176 C10.7535686,6.21607742 10.825497,6.09791598 10.8823358,6 C10.825497,5.90208402 10.7535686,5.78392258 10.6668885,5.64970824 C10.3823015,5.2090573 10.0460778,4.7681082 9.66171417,4.35812036 C8.58646299,3.21118577 7.35922917,2.53409125 6,2.53409125 C4.64077083,2.53409125 3.41353701,3.21118577 2.33828583,4.35812036 C1.95392224,4.7681082 1.61769855,5.2090573 1.33311148,5.64970824 C1.24643139,5.78392258 1.17450302,5.90208402 1.11766424,6 C1.17450302,6.09791598 1.24643139,6.21607742 1.33311148,6.35029176 Z M6,7.98051928 C4.9061894,7.98051928 4.01948072,7.0938106 4.01948072,6 C4.01948072,4.9061894 4.9061894,4.01948072 6,4.01948072 C7.0938106,4.01948072 7.98051928,4.9061894 7.98051928,6 C7.98051928,7.0938106 7.0938106,7.98051928 6,7.98051928 Z M6,6.99025964 C6.5469053,6.99025964 6.99025964,6.5469053 6.99025964,6 C6.99025964,5.4530947 6.5469053,5.00974036 6,5.00974036 C5.4530947,5.00974036 5.00974036,5.4530947 5.00974036,6 C5.00974036,6.5469053 5.4530947,6.99025964 6,6.99025964 Z" id="Combined-Shape" fill="#90A4AE" fill-rule="nonzero"></path>
    </g>
</svg>