<svg width="26" height="26" viewBox="0 0 26 26" fill="currentColor" xmlns="http://www.w3.org/2000/svg">
<path fill-rule="evenodd" clip-rule="evenodd" d="M13 26C20.1797 26 26 20.1797 26 13C26 5.8203 20.1797 0 13 0C5.8203 0 0 5.8203 0 13C0 20.1797 5.8203 26 13 26ZM13 7C13.3846 7 13.7016 7.28953 13.745 7.66253L13.75 7.75V12.25H18.25C18.6642 12.25 19 12.5858 19 13C19 13.3846 18.7105 13.7016 18.3375 13.745L18.25 13.75H13.75V18.25C13.75 18.6642 13.4142 19 13 19C12.6154 19 12.2984 18.7105 12.255 18.3375L12.25 18.25V13.75H7.75C7.33579 13.75 7 13.4142 7 13C7 12.6154 7.28953 12.2984 7.66253 12.255L7.75 12.25H12.25V7.75C12.25 7.33579 12.5858 7 13 7Z" fill="#299D8F"/>
</svg>
