<?xml version="1.0" encoding="UTF-8"?>
<svg width="100%" height="100%" viewBox="0 0 24 24" version="1.1" xmlns="http://www.w3.org/2000/svg" xmlns:xlink="http://www.w3.org/1999/xlink">
    <!-- Generator: Sketch 63.1 (92452) - https://sketch.com -->
    <title>icon / star filled</title>
    <desc>Created with Sketch.</desc>
    <g id="icon-/-star-filled" stroke="none" stroke-width="1" fill="none" fill-rule="evenodd">
        <rect id="Rectangle" x="0" y="0" width="24" height="24"></rect>
        <path d="M8.12080887,7.61045783 L0.411082964,8.79333448 L0.330450135,8.81287297 C-0.00261209459,8.92510867 -0.118957281,9.38211558 0.145604318,9.65251748 L5.72475318,15.3538846 L4.40787837,23.4100688 L4.40065287,23.4909403 C4.3952408,23.8611259 4.77570506,24.1223617 5.1043568,23.9409961 L12,20.1347228 L18.8956432,23.9409961 L18.9667021,23.9732072 C19.3005225,24.0930464 19.654892,23.7941164 19.5921216,23.4100688 L18.2742869,15.3538846 L23.8543957,9.65251748 L23.9087614,9.58704639 C24.1156935,9.29108026 23.9543488,8.84938422 23.588917,8.79333448 L15.8782312,7.61045783 L12.4304008,0.280733765 C12.2543275,-0.0935779217 11.7456725,-0.0935779217 11.5695992,0.280733765 L8.12080887,7.61045783 Z" id="Path" fill="#90A4AE"></path>
    </g>
</svg>