<?xml version="1.0" encoding="UTF-8"?>
<svg width="100%" height="100%" viewBox="0 0 16 16" version="1.1" xmlns="http://www.w3.org/2000/svg" xmlns:xlink="http://www.w3.org/1999/xlink">
    <!-- Generator: Sketch 62 (91390) - https://sketch.com -->
    <title>icon / m / home</title>
    <desc>Created with Sketch.</desc>
    <g id="icon-/-m-/-home" stroke="none" stroke-width="1" fill="none" fill-rule="evenodd">
        <rect id="Rectangle" x="0" y="0" width="16" height="16"></rect>
        <path d="M2.90909091,16 C1.704106,16 0.727272727,15.0231667 0.727272727,13.8181818 L0.727272727,13.8181818 L0.727272727,5.81818182 C0.727272727,5.59375241 0.830889341,5.38189381 1.00804319,5.24410748 L1.00804319,5.24410748 L7.55349774,0.153198387 C7.81612354,-0.0510661291 8.18387646,-0.0510661291 8.44650226,0.153198387 L8.44650226,0.153198387 L14.9919568,5.24410748 C15.1691107,5.38189381 15.2727273,5.59375241 15.2727273,5.81818182 L15.2727273,5.81818182 L15.2727273,13.8181818 C15.2727273,15.0231667 14.295894,16 13.0909091,16 L13.0909091,16 Z M8,1.648 L2.18181818,6.17309091 L2.18181818,13.8181818 C2.18181818,14.1911533 2.46257468,14.4985507 2.82427555,14.5405616 L2.82427555,14.5405616 L2.90909091,14.5454545 L5.09027273,14.545 L5.09090909,8 C5.09090909,7.62702848 5.37166559,7.31963116 5.73336645,7.27762017 L5.81818182,7.27272727 L10.1818182,7.27272727 C10.5547897,7.27272727 10.862187,7.55348377 10.904198,7.91518464 L10.9090909,8 L10.9082727,14.545 L13.0909091,14.5454545 C13.4590989,14.5454545 13.7633852,14.2718508 13.8115427,13.9168684 L13.8181818,13.8181818 L13.8181818,6.17381818 L8,1.648 Z M9.45454545,8.72727273 L6.54545455,8.72727273 L6.54527273,14.545 L9.45427273,14.545 L9.45454545,8.72727273 Z" id="Combined-Shape" fill="#90A4AE"></path>
    </g>
</svg>