<?xml version="1.0" encoding="UTF-8"?>
<svg width="100%" height="100%" viewBox="0 0 16 16" version="1.1" xmlns="http://www.w3.org/2000/svg" xmlns:xlink="http://www.w3.org/1999/xlink">
    <!-- Generator: Sketch 55.1 (78136) - https://sketchapp.com -->
    <title>icon / 16 px / lock</title>
    <desc>Created with Sketch.</desc>
    <g id="icon-/-16-px-/-lock" stroke="none" stroke-width="1" fill="none" fill-rule="evenodd">
        <rect id="Rectangle" x="0" y="0" width="16" height="16"></rect>
        <path d="M3.75,6.75 L3.75,4.25 C3.75,1.90278981 5.65278981,4.4408921e-16 8,4.4408921e-16 C10.3472102,4.4408921e-16 12.25,1.90278981 12.25,4.25 L12.25,6.75 L12.75,6.75 C14.1307119,6.75 15.25,7.86928813 15.25,9.25 L15.25,13.5 C15.25,14.8807119 14.1307119,16 12.75,16 L3.25,16 C1.86928813,16 0.75,14.8807119 0.75,13.5 L0.75,9.25 C0.75,7.86928813 1.86928813,6.75 3.25,6.75 L3.75,6.75 Z M4.75,6.75 L11.25,6.75 L11.25,4.25 C11.25,2.45507456 9.79492544,1 8,1 C6.20507456,1 4.75,2.45507456 4.75,4.25 L4.75,6.75 Z M3.25,7.75 C2.42157288,7.75 1.75,8.42157288 1.75,9.25 L1.75,13.5 C1.75,14.3284271 2.42157288,15 3.25,15 L12.75,15 C13.5784271,15 14.25,14.3284271 14.25,13.5 L14.25,9.25 C14.25,8.42157288 13.5784271,7.75 12.75,7.75 L3.25,7.75 Z" id="Combined-Shape" fill="#90A4AE" fill-rule="nonzero"></path>
    </g>
</svg>