<?xml version="1.0" encoding="UTF-8"?>
<svg width="100%" height="100%" viewBox="0 0 16 16" version="1.1" xmlns="http://www.w3.org/2000/svg" xmlns:xlink="http://www.w3.org/1999/xlink">
    <!-- Generator: Sketch 62 (91390) - https://sketch.com -->
    <title>icon / m / map pin</title>
    <desc>Created with Sketch.</desc>
    <g id="icon-/-m-/-map-pin" stroke="none" stroke-width="1" fill="none" fill-rule="evenodd">
        <rect id="Rectangle" x="0" y="0" width="16" height="16"></rect>
        <path d="M8,0 C11.662209,0 14.631016,2.96880697 14.631016,6.63101595 C14.631016,8.87273362 13.4218645,11.0895115 11.4218387,13.2006498 C10.731771,13.9290546 9.99381693,14.5932133 9.25570886,15.180966 C8.99708797,15.3869049 8.75660279,15.5688104 8.54023085,15.725079 L8.54023085,15.725079 L8.4486791,15.7907137 L8.26103539,15.9209648 C8.10296508,16.0263451 7.89703492,16.0263451 7.73896461,15.9209648 C7.71251628,15.9033326 7.67552693,15.8780569 7.6287449,15.8453414 L7.6287449,15.8453414 L7.29306236,15.6030957 C7.12202114,15.4763555 6.93825681,15.3354202 6.74429114,15.180966 C6.00618307,14.5932133 5.26822896,13.9290546 4.5781613,13.2006498 C2.5781355,11.0895115 1.36898396,8.87273362 1.36898396,6.63101595 C1.36898396,2.96880697 4.33779098,0 8,0 Z M8,0.941176471 C4.85758839,0.941176471 2.31016043,3.48860438 2.31016043,6.63101595 C2.31016043,8.58181165 3.41116931,10.600328 5.26141089,12.5533608 C5.91893682,13.2474159 6.62483298,13.8827225 7.33057517,14.4447024 C7.45393852,14.5429362 7.57281174,14.6353133 7.686438,14.7216165 L7.686438,14.7216165 L7.99957219,14.9543528 L8.14715243,14.8464886 L8.48784201,14.5876334 L8.66942483,14.4447024 C9.37516702,13.8827225 10.0810632,13.2474159 10.7385891,12.5533608 C12.5888307,10.600328 13.6898396,8.58181165 13.6898396,6.63101595 C13.6898396,3.48860438 11.1424116,0.941176471 8,0.941176471 Z M8,4.10695178 C9.39400215,4.10695178 10.5240642,5.2370138 10.5240642,6.63101595 C10.5240642,8.0250181 9.39400215,9.15508012 8,9.15508012 C6.60599785,9.15508012 5.47593583,8.0250181 5.47593583,6.63101595 C5.47593583,5.2370138 6.60599785,4.10695178 8,4.10695178 Z M8,5.04812825 C7.12579526,5.04812825 6.4171123,5.75681121 6.4171123,6.63101595 C6.4171123,7.50522069 7.12579526,8.21390365 8,8.21390365 C8.87420474,8.21390365 9.5828877,7.50522069 9.5828877,6.63101595 C9.5828877,5.75681121 8.87420474,5.04812825 8,5.04812825 Z" id="Combined-Shape" fill="#90A4AE"></path>
    </g>
</svg>