<?xml version="1.0" encoding="UTF-8"?>
<svg width="100%" height="100%" viewBox="0 0 16 16" version="1.1" xmlns="http://www.w3.org/2000/svg" xmlns:xlink="http://www.w3.org/1999/xlink">
    <!-- Generator: Sketch 62 (91390) - https://sketch.com -->
    <title>icon / m / open eye</title>
    <desc>Created with Sketch.</desc>
    <g id="icon-/-m-/-open-eye" stroke="none" stroke-width="1" fill="none" fill-rule="evenodd">
        <rect id="Rectangle" x="0" y="0" width="16" height="16"></rect>
        <path d="M8,2 C10.2455755,2 12.219545,3.08908664 13.904809,4.8867015 C14.4870234,5.5077303 14.9931669,6.17152496 15.4220506,6.83560301 C15.5724608,7.06849618 15.7027125,7.28523504 15.8125596,7.48051877 L15.8125596,7.48051877 L15.8588831,7.56376266 L15.9503187,7.73607061 C16.0165604,7.86855413 16.0165604,8.024494 15.9503187,8.15697752 C15.9255956,8.2064237 15.8795827,8.29337728 15.8125596,8.41252935 L15.8125596,8.41252935 L15.6959201,8.61476847 C15.6136382,8.75410059 15.5223241,8.902183 15.4220506,9.05744512 C14.9931669,9.72152317 14.4870234,10.3853178 13.904809,11.0063466 C12.219545,12.8039615 10.2455755,13.8930481 8,13.8930481 C5.75442452,13.8930481 3.78045498,12.8039615 2.09519105,11.0063466 C1.51297655,10.3853178 1.00683312,9.72152317 0.577949384,9.05744512 C0.427539207,8.82455195 0.297287493,8.60781309 0.187440389,8.41252935 L0.187440389,8.41252935 L0.141116873,8.32928547 L0.0496813219,8.15697752 C-0.0165604406,8.024494 -0.0165604406,7.86855413 0.0496813219,7.73607061 C0.0744044106,7.68662443 0.120417346,7.59967085 0.187440389,7.48051877 L0.187440389,7.48051877 L0.304079913,7.27827966 C0.386361798,7.13894754 0.477675932,6.99086512 0.577949384,6.83560301 C1.00683312,6.17152496 1.51297655,5.5077303 2.09519105,4.8867015 C3.78045498,3.08908664 5.75442452,2 8,2 Z M8,2.94117647 C6.05306211,2.94117647 4.30510652,3.90556576 2.7818143,5.5304108 C2.24103414,6.10724297 1.76856795,6.72687076 1.36857468,7.34621518 C1.23215196,7.55745035 1.12140608,7.74092016 1.03694043,7.88857739 L1.03694043,7.88857739 L1.00329412,7.94635294 L1.10520778,8.12180278 L1.27108148,8.39373831 L1.36857468,8.54683295 C1.76856795,9.16617737 2.24103414,9.78580516 2.7818143,10.3626373 C4.30510652,11.9874824 6.05306211,12.9518717 8,12.9518717 C9.94693789,12.9518717 11.6948935,11.9874824 13.2181857,10.3626373 C13.7589659,9.78580516 14.2314321,9.16617737 14.6314253,8.54683295 C14.767848,8.33559778 14.8785939,8.15212797 14.9630596,8.00447074 L14.9630596,8.00447074 L14.9957647,7.94635294 L14.8167263,7.64123801 L14.6314253,7.34621518 C14.2314321,6.72687076 13.7589659,6.10724297 13.2181857,5.5304108 C11.6948935,3.90556576 9.94693789,2.94117647 8,2.94117647 Z M8,5.42245989 C9.39400215,5.42245989 10.5240642,6.55252191 10.5240642,7.94652406 C10.5240642,9.34052621 9.39400215,10.4705882 8,10.4705882 C6.60599785,10.4705882 5.47593583,9.34052621 5.47593583,7.94652406 C5.47593583,6.55252191 6.60599785,5.42245989 8,5.42245989 Z M8,6.36363636 C7.12579526,6.36363636 6.4171123,7.07231933 6.4171123,7.94652406 C6.4171123,8.8207288 7.12579526,9.52941176 8,9.52941176 C8.87420474,9.52941176 9.5828877,8.8207288 9.5828877,7.94652406 C9.5828877,7.07231933 8.87420474,6.36363636 8,6.36363636 Z" id="Combined-Shape" fill="#90A4AE"></path>
    </g>
</svg>