<?xml version="1.0" encoding="UTF-8"?>
<svg width="100%" height="100%" viewBox="0 0 16 16" version="1.1" xmlns="http://www.w3.org/2000/svg" xmlns:xlink="http://www.w3.org/1999/xlink">
    <title>icon / m / profile</title>
    <g id="icon-/-m-/-profile" stroke="none" stroke-width="1" fill="none" fill-rule="evenodd">
        <rect id="Rectangle" x="0" y="0" width="16" height="16"></rect>
        <path d="M8,0 C12.418278,0 16,3.581722 16,8 C16,12.418278 12.418278,16 8,16 C3.581722,16 0,12.418278 0,8 C0,3.581722 3.581722,0 8,0 Z M8,1.77777778 C4.56356156,1.77777778 1.77777778,4.56356156 1.77777778,8 C1.77777778,11.4364384 4.56356156,14.2222222 8,14.2222222 C11.4364384,14.2222222 14.2222222,11.4364384 14.2222222,8 C14.2222222,4.56356156 11.4364384,1.77777778 8,1.77777778 Z M11.5555556,7.11111111 C12.0464753,7.11111111 12.4444444,7.50908022 12.4444444,8 C12.4444444,10.4545989 10.4545989,12.4444444 8,12.4444444 C5.54540111,12.4444444 3.55555556,10.4545989 3.55555556,8 C3.55555556,7.50908022 3.95352467,7.11111111 4.44444444,7.11111111 L4.44444444,7.11111111 Z M10.5146667,8.88888889 L5.48444444,8.88888889 L5.55263423,9.06072112 C5.9430818,9.96035184 6.81504387,10.6025605 7.84331308,10.6621398 L7.84331308,10.6621398 L8,10.6666667 C9.15716805,10.6666667 10.1421877,9.92961163 10.5112037,8.89935675 L10.5112037,8.89935675 L10.5146667,8.88888889 Z" id="Combined-Shape" fill="#90A4AE"></path>
    </g>
</svg>