<?xml version="1.0" encoding="UTF-8"?>
<svg width="100%" height="100%" viewBox="0 0 16 16" version="1.1" xmlns="http://www.w3.org/2000/svg" xmlns:xlink="http://www.w3.org/1999/xlink">
    <title>icon / m / remove</title>
    <g id="icon-/-m-/-remove" stroke="none" stroke-width="1" fill="none" fill-rule="evenodd">
        <rect id="Rectangle" x="0" y="0" width="16" height="16"></rect>
        <path d="M9.4,5.32907052e-15 C10.6702549,5.32907052e-15 11.7100212,0.986839031 11.7944631,2.23568127 L11.8,2.4 L11.799,2.799 L14.3,2.8 C14.8522847,2.8 15.3,3.24771525 15.3,3.8 C15.3,4.31283584 14.9139598,4.73550716 14.4166211,4.79327227 L14.3,4.8 L13.899,4.799 L13.9,13.6 C13.9,14.8702549 12.913161,15.9100212 11.6643187,15.9944631 L11.5,16 L4.5,16 C3.22974508,16 2.18997876,15.013161 2.10553687,13.7643187 L2.1,13.6 L2.099,4.799 L1.7,4.8 C1.14771525,4.8 0.7,4.35228475 0.7,3.8 C0.7,3.28716416 1.08604019,2.86449284 1.58337887,2.80672773 L1.7,2.8 L4.199,2.799 L4.2,2.4 C4.2,1.12974508 5.18683903,0.0899787563 6.43568127,0.00553686671 L6.6,5.32907052e-15 L9.4,5.32907052e-15 Z M5.182,4.799 L4.099,4.799 L4.1,13.6 C4.1,13.7932997 4.2371128,13.9545749 4.41938605,13.9918734 L4.5,14 L11.5,14 C11.6932997,14 11.8545749,13.8628872 11.8918734,13.680614 L11.9,13.6 L11.899,4.799 L10.8171615,4.79985571 C10.8114525,4.79995178 10.8057319,4.8 10.8,4.8 L10.782,4.799 L5.2171615,4.79985571 C5.21145252,4.79995178 5.20573189,4.8 5.2,4.8 L5.182,4.799 Z M6.6,6.3 C7.11283584,6.3 7.53550716,6.68604019 7.59327227,7.18337887 L7.6,7.3 L7.6,11.5 C7.6,12.0522847 7.15228475,12.5 6.6,12.5 C6.08716416,12.5 5.66449284,12.1139598 5.60672773,11.6166211 L5.6,11.5 L5.6,7.3 C5.6,6.74771525 6.04771525,6.3 6.6,6.3 Z M9.4,6.3 C9.91283584,6.3 10.3355072,6.68604019 10.3932723,7.18337887 L10.4,7.3 L10.4,11.5 C10.4,12.0522847 9.95228475,12.5 9.4,12.5 C8.88716416,12.5 8.46449284,12.1139598 8.40672773,11.6166211 L8.4,11.5 L8.4,7.3 C8.4,6.74771525 8.84771525,6.3 9.4,6.3 Z M9.4,2 L6.6,2 C6.40670034,2 6.24542508,2.1371128 6.20812658,2.31938605 L6.2,2.4 L6.199,2.799 L9.799,2.799 L9.8,2.4 C9.8,2.20670034 9.6628872,2.04542508 9.48061395,2.00812658 L9.4,2 Z" id="Combined-Shape" fill="#90A4AE"></path>
    </g>
</svg>