<?xml version="1.0" encoding="UTF-8"?>
<svg width="100%" height="100%" viewBox="0 0 16 16" version="1.1" xmlns="http://www.w3.org/2000/svg" xmlns:xlink="http://www.w3.org/1999/xlink">
    <!-- Generator: Sketch 62 (91390) - https://sketch.com -->
    <title>icon / m / reports</title>
    <desc>Created with Sketch.</desc>
    <g id="icon-/-m-/-reports" stroke="none" stroke-width="1" fill="none" fill-rule="evenodd">
        <rect id="Rectangle" x="0" y="0" width="16" height="16"></rect>
        <path d="M9.95555556,3.23296945e-13 C10.8155481,3.23296945e-13 11.5329173,0.610643446 11.6977246,1.42199193 L12.2666667,1.42222222 C13.4939661,1.42222222 14.4978265,2.37887874 14.5732309,3.58717503 L14.5777778,3.73333333 L14.5777778,13.6888889 C14.5777778,14.9161883 13.6211213,15.9200487 12.412825,15.9954532 L12.2666667,16 L3.73333333,16 C2.50603389,16 1.50217355,15.0433435 1.42676905,13.8350472 L1.42222222,13.6888889 L1.42222222,3.73333333 C1.42222222,2.50603389 2.37887874,1.50217355 3.58717503,1.42676905 L3.73333333,1.42222222 L4.30227543,1.42199193 C4.46708274,0.610643446 5.18445188,3.23296945e-13 6.04444444,3.23296945e-13 L6.04444444,3.23296945e-13 Z M11.6975212,3.2012298 C11.532328,4.01208023 10.8151949,4.62222222 9.95555556,4.62222222 L9.95555556,4.62222222 L6.04444444,4.62222222 C5.18480506,4.62222222 4.46767198,4.01208023 4.30247875,3.2012298 L3.73333333,3.2 C3.46823665,3.2 3.248314,3.39341299 3.20698043,3.6468239 L3.2,3.73333333 L3.2,13.6888889 C3.2,13.9539856 3.39341299,14.1739082 3.6468239,14.2152418 L3.73333333,14.2222222 L12.2666667,14.2222222 C12.5317633,14.2222222 12.751686,14.0288092 12.7930196,13.7753983 L12.8,13.6888889 L12.8,3.73333333 C12.8,3.46823665 12.606587,3.248314 12.3531761,3.20698043 L12.2666667,3.2 Z M9.95555556,1.77777778 L6.04444444,1.77777778 L6.04444444,2.84444444 L9.95555556,2.84444444 L9.95555556,1.77777778 Z" id="Combined-Shape" fill="#90A4AE"></path>
    </g>
</svg>