<?xml version="1.0" encoding="UTF-8"?>
<svg width="100%" height="100%" viewBox="0 0 16 16" version="1.1" xmlns="http://www.w3.org/2000/svg" xmlns:xlink="http://www.w3.org/1999/xlink">
    <title>icon / m / sorting</title>
    <g id="icon-/-m-/-sorting" stroke="none" stroke-width="1" fill="none" fill-rule="evenodd">
        <rect id="Rectangle" x="0" y="0" width="16" height="16"></rect>
        <path d="M3.79289322,10.7928932 C4.15337718,10.4324093 4.72060824,10.4046797 5.11289944,10.7097046 L5.20710678,10.7928932 L8,13.585 L10.7928932,10.7928932 C11.1533772,10.4324093 11.7206082,10.4046797 12.1128994,10.7097046 L12.2071068,10.7928932 C12.5675907,11.1533772 12.5953203,11.7206082 12.2902954,12.1128994 L12.2071068,12.2071068 L8.70710678,15.7071068 C8.34662282,16.0675907 7.77939176,16.0953203 7.38710056,15.7902954 L7.29289322,15.7071068 L3.79289322,12.2071068 C3.40236893,11.8165825 3.40236893,11.1834175 3.79289322,10.7928932 Z" id="Down" fill="#90A4AE"></path>
        <path d="M7.29289322,0.292893219 C7.65337718,-0.0675907428 8.22060824,-0.0953202783 8.61289944,0.209704612 L8.70710678,0.292893219 L12.2071068,3.79289322 C12.5976311,4.18341751 12.5976311,4.81658249 12.2071068,5.20710678 C11.8466228,5.56759074 11.2793918,5.59532028 10.8871006,5.29029539 L10.7928932,5.20710678 L8,2.415 L5.20710678,5.20710678 C4.84662282,5.56759074 4.27939176,5.59532028 3.88710056,5.29029539 L3.79289322,5.20710678 C3.43240926,4.84662282 3.40467972,4.27939176 3.70970461,3.88710056 L3.79289322,3.79289322 L7.29289322,0.292893219 Z" id="Up" fill="#90A4AE"></path>
    </g>
</svg>