<?xml version="1.0" encoding="UTF-8"?>
<svg width="100%" height="100%" viewBox="0 0 24 24" version="1.1" xmlns="http://www.w3.org/2000/svg" xmlns:xlink="http://www.w3.org/1999/xlink">
    <!-- Generator: Sketch 63.1 (92452) - https://sketch.com -->
    <title>icon / star</title>
    <desc>Created with Sketch.</desc>
    <g id="icon-/-star" stroke="none" stroke-width="1" fill="none" fill-rule="evenodd">
        <rect id="Rectangle" x="0" y="0" width="24" height="24"></rect>
        <path d="M8.12080887,7.61045783 L0.411082964,8.79333448 L0.330450135,8.81287297 C-0.00261209459,8.92510867 -0.118957281,9.38211558 0.145604318,9.65251748 L5.72475318,15.3538846 L4.40787837,23.4100688 L4.40065287,23.4909403 C4.3952408,23.8611259 4.77570506,24.1223617 5.1043568,23.9409961 L12,20.1347228 L18.8956432,23.9409961 L18.9667021,23.9732072 C19.3005225,24.0930464 19.654892,23.7941164 19.5921216,23.4100688 L18.2742869,15.3538846 L23.8543957,9.65251748 L23.9087614,9.58704639 C24.1156935,9.29108026 23.9543488,8.84938422 23.588917,8.79333448 L15.8782312,7.61045783 L12.4304008,0.280733765 C12.2543275,-0.0935779217 11.7456725,-0.0935779217 11.5695992,0.280733765 L8.12080887,7.61045783 Z M11.9999319,3.04216845 L14.6848554,8.80406016 L14.7272214,8.87627882 C14.7918441,8.96564163 14.8873979,9.02605129 14.9945937,9.04264956 L20.99952,9.97216725 L16.6546889,14.4553066 L16.6028552,14.5203779 C16.5425005,14.6132121 16.5177906,14.7283261 16.5361293,14.8415967 L17.5614566,21.1742983 L12.1916246,18.1826393 L12.1171914,18.150549 C12.0152046,18.1184588 11.9042423,18.1291555 11.8082391,18.1826393 L6.43758344,21.1742983 L7.46373443,14.8415967 L7.46953254,14.756675 C7.46680968,14.6439904 7.42288917,14.5354932 7.34517486,14.4553066 L2.99952002,9.97216725 L9.00526998,9.04264956 C9.13926475,9.02190172 9.25506885,8.93269859 9.31500834,8.80406016 L11.9999319,3.04216845 Z" id="Path" fill="#90A4AE"></path>
    </g>
</svg>