<?xml version="1.0" encoding="UTF-8"?>
<svg width="100%" height="100%" viewBox="0 0 12 12" version="1.1" xmlns="http://www.w3.org/2000/svg" xmlns:xlink="http://www.w3.org/1999/xlink">
    <!-- Generator: Sketch 55.1 (78136) - https://sketchapp.com -->
    <title>icon / 12 px / unseen</title>
    <desc>Created with Sketch.</desc>
    <g id="icon-/-12-px-/-unseen" stroke="none" stroke-width="1" fill="none" fill-rule="evenodd">
        <rect id="Rectangle" x="0" y="0" width="12" height="12"></rect>
        <path d="M8.16311622,8.86276703 L7.01437951,7.71403032 C6.56149138,7.9979086 6.00537769,8.09058223 5.47334234,7.95470974 C4.77207913,7.77561942 4.22449319,7.22803348 4.04540287,6.52677027 C3.90953038,5.99473493 4.00220401,5.43862123 4.28608229,4.9857331 L3.02488362,3.72453443 C2.26428852,4.36796876 1.62043444,5.13849597 1.12222487,6.00218567 C1.1788269,6.09960881 1.25028285,6.21693385 1.33626254,6.35006369 C1.62066433,6.79042774 1.95666911,7.23108976 2.34078246,7.64081066 C3.41533358,8.78699853 4.64176838,9.46365221 5.99202384,9.46371833 C6.75815133,9.45119252 7.50499563,9.24284807 8.16311622,8.86276703 Z M8.88289671,9.58254752 C8.02683926,10.133403 7.03067436,10.4364759 6.00011261,10.4532671 C4.32776115,10.4532671 2.8636804,9.64549844 1.61882156,8.31764901 C1.19114142,7.86145686 0.819726168,7.37435489 0.504947044,6.88695495 C0.314758711,6.59246979 0.184215464,6.36039291 0.11466132,6.22128462 L-3.46389584e-14,5.99196198 L0.121228168,5.76604203 C0.681108005,4.72265396 1.42794082,3.79299228 2.32293921,3.02259 L0.207348856,0.906999664 L0.907112275,0.207236245 L11.7928764,11.0930003 L11.0931129,11.7927638 L8.88289671,9.58254752 Z M5.0242978,5.72394861 C4.96523936,5.90106658 4.95637791,6.09447109 5.00424374,6.28189914 C5.0937889,6.63253074 5.36758187,6.90632371 5.71821348,6.99586887 C5.90564152,7.0437347 6.09904603,7.03487325 6.27616401,6.97581481 L5.0242978,5.72394861 Z M10.6639623,5.64993376 C10.3795605,5.20956825 10.0435556,4.76890479 9.65944223,4.35918254 C8.58489112,3.21299108 7.35845644,2.53633533 5.99896747,2.536334 C5.68750445,2.53561318 5.37702768,2.57109902 5.07379011,2.64207896 L4.84824379,1.67850928 C5.22616399,1.5900481 5.61309958,1.54582341 6.00011261,1.54669405 C7.67246447,1.54669405 9.13654535,2.35449171 10.3814042,3.68234533 C10.8090843,4.13853886 11.1804995,4.6256423 11.4952786,5.1130437 C11.6854669,5.40752972 11.8160101,5.63960727 11.8855642,5.77871593 L12,6.00758829 L11.8793718,6.23325829 C11.562778,6.82553863 11.1852126,7.38314679 10.7528156,7.89701493 L9.99560554,7.25985665 C10.326817,6.86623922 10.6221797,6.44402477 10.8782675,5.99827347 C10.8216232,5.90075929 10.7500775,5.78327388 10.6639623,5.64993376 Z" id="Combined-Shape" fill="#90A4AE" fill-rule="nonzero"></path>
    </g>
</svg>