<?xml version="1.0" encoding="UTF-8"?>
<svg width="100%" height="100%" viewBox="0 0 16 16" version="1.1" xmlns="http://www.w3.org/2000/svg" xmlns:xlink="http://www.w3.org/1999/xlink">
    <title>icon / m / upload</title>
    <g id="icon-/-m-/-upload" stroke="none" stroke-width="1" fill="none" fill-rule="evenodd">
        <path d="M15,9.33333333 C15.5128358,9.33333333 15.9355072,9.71937352 15.9932723,10.2167122 L16,10.3333333 L16,13.4444444 C16,14.799383 14.945541,15.9080395 13.6124729,15.9945641 L13.4444444,16 L2.55555556,16 C1.20061697,16 0.0919604687,14.945541 0.00543585034,13.6124729 L0,13.4444444 L0,10.3333333 C0,9.78104858 0.44771525,9.33333333 1,9.33333333 C1.51283584,9.33333333 1.93550716,9.71937352 1.99327227,10.2167122 L2,10.3333333 L2,13.4444444 C2,13.7205868 2.20147186,13.9496729 2.46544156,13.9927287 L2.55555556,14 L13.4444444,14 C13.7205868,14 13.9496729,13.7985281 13.9927287,13.5345584 L14,13.4444444 L14,10.3333333 C14,9.78104858 14.4477153,9.33333333 15,9.33333333 Z M8,-3.8191672e-14 L8.0193545,0.000186147798 C8.04268105,0.000634893312 8.06599489,0.00189498016 8.08925007,0.00396640833 L8,-3.8191672e-14 C8.05062028,-3.8191672e-14 8.10036209,0.00376118706 8.14896122,0.0110193427 C8.16594901,0.0136280806 8.18337526,0.0167021706 8.20072576,0.020240071 C8.22274608,0.0246397952 8.24443648,0.0298336259 8.26583961,0.0357209664 C8.28146328,0.0400977346 8.29685134,0.0447287157 8.31214252,0.0497380859 C8.33179768,0.0561224864 8.3515792,0.0633157362 8.37105852,0.0711039637 C8.38879565,0.0781964242 8.4060985,0.0856790475 8.42322155,0.0936733617 C8.4438914,0.103376643 8.46429395,0.11379392 8.48427695,0.12487577 C8.49639444,0.131498828 8.50861311,0.138606922 8.52070875,0.145995454 C8.54627495,0.1617187 8.57113069,0.178490093 8.5951593,0.196313506 C8.60120864,0.200717862 8.60707334,0.20517454 8.61289944,0.209704612 C8.61966276,0.215071126 8.62256244,0.217372104 8.62544899,0.219688767 L8.70710678,0.292893219 L12.5959957,4.18178211 C12.98652,4.5723064 12.98652,5.20547138 12.5959957,5.59599567 C12.2355117,5.95647963 11.6682807,5.98420917 11.2759894,5.67918428 L11.1817821,5.59599567 L9,3.414 L9,10.3333333 C9,10.8856181 8.55228475,11.3333333 8,11.3333333 C7.48716416,11.3333333 7.06449284,10.9472931 7.00672773,10.4499545 L7,10.3333333 L7,3.414 L4.81821789,5.59599567 C4.45773393,5.95647963 3.89050287,5.98420917 3.49821167,5.67918428 L3.40400433,5.59599567 C3.04352037,5.23551171 3.01579083,4.66828065 3.32081572,4.27598945 L3.40400433,4.18178211 L7.29289322,0.292893219 L7.37455101,0.219688767 C7.37743756,0.217372104 7.38033724,0.215071126 7.38324992,0.212785965 L7.29289322,0.292893219 C7.32828727,0.257499166 7.36567442,0.225312953 7.40469339,0.196334578 C7.42886931,0.178490093 7.45372505,0.1617187 7.47933981,0.146067433 C7.49138689,0.138606922 7.50360556,0.131498828 7.5159379,0.124671174 C7.53570605,0.11379392 7.5561086,0.103376643 7.57690085,0.0936537803 C7.5939015,0.0856790475 7.61120435,0.0781964242 7.62866398,0.0712254916 C7.6484208,0.0633157362 7.66820232,0.0561224864 7.68826359,0.0495466818 C7.70314866,0.0447287157 7.71853672,0.0400977346 7.73400703,0.0358451423 C7.75556352,0.0298336259 7.77725392,0.0246397952 7.7992059,0.0201651536 C7.81662474,0.0167021706 7.83405099,0.0136280806 7.85153313,0.0110178009 C7.87050421,0.00811222997 7.89015296,0.00576611731 7.90996805,0.00399798209 C7.93433491,0.00186560354 7.95798023,0.000599315847 7.98163795,0.000167545257 C7.9872016,6.02394911e-05 7.99359377,-3.8191672e-14 8,-3.8191672e-14 Z" id="Combined-Shape" fill="#90A4AE"></path>
    </g>
</svg>